<?xml version="1.0" encoding="UTF-8"?>
<svg version="1.1" xmlns="http://www.w3.org/2000/svg" width="486" height="471">
<path d="M0 0 C3.31500626 -0.00204092 6.63000687 -0.0057871 9.94501114 -0.00990677 C48.27397622 -0.05151229 48.27397622 -0.05151229 67.36771011 0.52528 C69.12810371 0.57475281 69.12810371 0.57475281 70.92406082 0.62522507 C99.26409012 1.65188931 126.16148527 15.11445211 145.70364761 35.447155 C163.15522598 55.43767537 172.01126285 80.26421914 172.65408707 106.58778 C172.67250424 107.25528715 172.69092141 107.9227943 172.70989668 108.61052895 C173.29840997 130.09074347 173.20445696 151.5864702 173.20684218 173.07275391 C173.20756135 176.7234245 173.20971136 180.37409151 173.2123394 184.0247612 C173.22152395 196.80358233 173.2256818 209.58239317 173.22488785 222.3612175 C173.22428437 234.21311451 173.23490657 246.06496642 173.25063151 257.916852 C173.26373503 268.16309985 173.26907078 278.40933295 173.26843244 288.6555891 C173.26817889 294.7455614 173.27095228 300.83549318 173.28161049 306.925457 C173.29134277 312.63855609 173.29133575 318.3515762 173.28409386 324.06467819 C173.28305538 326.14786012 173.28536659 328.23104713 173.29145432 330.31422043 C173.37349466 360.3513673 173.37349466 360.3513673 168.41458511 374.18543625 C168.15588638 374.92874191 167.89718765 375.67204758 167.63064957 376.43787766 C157.47472333 404.48700922 136.8167194 425.45824248 110.07132339 438.21180344 C94.34190692 445.26565855 77.88171602 447.9705433 60.76259232 448.68906784 C59.33300372 448.75098999 59.33300372 448.75098999 57.87453455 448.81416309 C47.82286818 449.21866649 37.7798089 449.26393504 27.72146988 449.25233078 C25.69645532 449.25369091 23.67144101 449.25547423 21.64642715 449.25764084 C16.21866648 449.26214284 10.79092513 449.26045577 5.36316419 449.25726175 C-0.36351616 449.25469994 -6.09019504 449.25708623 -11.81687546 449.25864792 C-21.42828284 449.26045873 -31.03968251 449.25809217 -40.65108871 449.25330734 C-51.70282881 449.24786839 -62.75455044 449.24962914 -73.80629009 449.25513375 C-83.35860806 449.25969791 -92.91092054 449.26029932 -102.46323925 449.25769508 C-108.14053306 449.25615017 -113.81781824 449.25588875 -119.49511147 449.25923157 C-124.83791323 449.26215863 -130.18069162 449.26004758 -135.52349091 449.25433731 C-137.46343001 449.2530352 -139.40337115 449.25335929 -141.3433094 449.25559998 C-151.65151629 449.26639196 -161.93798268 449.11398734 -172.23838425 448.69297409 C-173.1772458 448.65633309 -174.11610736 448.6196921 -175.08341926 448.58194077 C-206.37539243 447.17041117 -232.94231212 434.18114789 -254.56978989 411.79481125 C-258.13905363 407.80563412 -261.13770391 403.66553159 -263.96041489 399.12293625 C-264.61783676 398.08653 -265.27525864 397.05012375 -265.95260239 395.98231125 C-278.03797246 376.00724676 -281.00581112 355.48512936 -281.31197739 332.4705925 C-281.33585869 330.84682833 -281.35974921 329.2230643 -281.38364792 327.59930038 C-281.46087603 322.12812033 -281.52398143 316.65681312 -281.58541489 311.18543625 C-281.59646381 310.23695313 -281.60751274 309.28847 -281.61889648 308.31124496 C-282.10533361 266.13743931 -281.9392222 223.96555635 -281.69297075 181.79080719 C-281.65723972 175.63957879 -281.62592293 169.48833823 -281.59621811 163.33707809 C-281.55910865 155.73382101 -281.51398534 148.13065504 -281.45929831 140.52750343 C-281.43100411 136.59105259 -281.40535832 132.65463941 -281.38746452 128.7181263 C-281.31829143 114.06631663 -281.2393858 99.63083984 -278.96041489 85.12293625 C-278.6956401 82.10386622 -278.48449392 79.08936205 -278.30416489 76.0643425 C-278.19072739 75.42367844 -278.07728989 74.78301437 -277.96041489 74.12293625 C-276.97041489 73.62793625 -276.97041489 73.62793625 -275.96041489 73.12293625 C-274.83039292 70.69890497 -273.78660381 68.28249839 -272.77291489 65.81043625 C-264.1223378 45.54549175 -251.37032297 29.83399815 -232.99166489 17.5330925 C-230.86459558 16.14552188 -230.86459558 16.14552188 -228.96041489 14.12293625 C-227.97041489 13.79293625 -226.98041489 13.46293625 -225.96041489 13.12293625 C-224.11068323 12.33286028 -222.26113987 11.542337 -220.41305161 10.74842453 C-205.77123251 4.51323622 -191.78413773 1.0064946 -175.82247543 0.91761398 C-174.71188672 0.90772005 -173.60129801 0.89782612 -172.45705509 0.88763237 C-168.75376956 0.85593732 -165.05047255 0.83113913 -161.34713364 0.80653 C-158.70821449 0.78576854 -156.06929949 0.76468081 -153.43038559 0.74328232 C-146.31454449 0.6867163 -139.19866297 0.63775023 -132.08275604 0.59030533 C-127.6516354 0.56069033 -123.22053004 0.52910316 -118.7894249 0.49726486 C-79.19325247 0.21425446 -39.5972769 0.01900704 0 0 Z M-70.96041489 103.12293625 C-71.70291489 103.74426437 -72.44541489 104.3655925 -73.21041489 105.00574875 C-76.86299269 108.10775416 -80.23051184 111.14182764 -82.96041489 115.12293625 C-82.96041489 115.78293625 -82.96041489 116.44293625 -82.96041489 117.12293625 C-83.95041489 117.12293625 -84.94041489 117.12293625 -85.96041489 117.12293625 C-85.84441234 115.43479388 -85.71710464 113.74742737 -85.58541489 112.06043625 C-85.51580551 111.12070969 -85.44619614 110.18098312 -85.37447739 109.21278 C-84.90564762 105.71424847 -83.93550844 102.51376911 -82.96041489 99.12293625 C-82.49140468 96.54859135 -82.0746463 93.96418261 -81.71041489 91.37293625 C-81.51963364 90.0787175 -81.32885239 88.78449875 -81.13228989 87.45106125 C-80.6213272 83.98495372 -80.6213272 83.98495372 -82.96041489 81.12293625 C-87.07233127 79.82741256 -91.33363995 79.96227432 -95.60885239 79.9459343 C-96.36232956 79.9393631 -97.11580673 79.9327919 -97.89211655 79.92602158 C-100.37321714 79.90638892 -102.85425767 79.89465207 -105.33541489 79.884655 C-106.18512863 79.88057947 -107.03484238 79.87650394 -107.91030502 79.87230492 C-112.40291726 79.8514928 -116.89549934 79.83716689 -121.38814926 79.82777023 C-126.02531713 79.81668091 -130.66200846 79.78223845 -135.29900742 79.74259853 C-138.86952229 79.71646297 -142.43992263 79.70808143 -146.01052475 79.70448875 C-147.72015244 79.69961942 -149.42977489 79.68799551 -151.13930893 79.66945076 C-153.53058561 79.64511056 -155.92061484 79.64601372 -158.31197739 79.65296555 C-159.01550339 79.64015549 -159.71902939 79.62734543 -160.44387436 79.61414719 C-163.98410171 79.65162357 -165.87545009 80.06848695 -168.88497543 81.99712753 C-171.41597773 84.58955524 -171.74317967 85.96402006 -172.14791489 89.53699875 C-172.28713364 90.70521164 -172.42635239 91.87342453 -172.56978989 93.07703781 C-172.70244356 94.42543229 -172.83251792 95.77408228 -172.96041489 97.12293625 C-173.03324692 97.83913132 -173.10607895 98.55532639 -173.18111801 99.29322433 C-173.72176021 104.61928823 -174.20406883 109.94983165 -174.67541122 115.28242111 C-175.20028753 121.20426679 -175.7422824 127.12454408 -176.28463364 133.04481125 C-176.34599691 133.71536671 -176.40736019 134.38592216 -176.47058296 135.07679749 C-178.27386677 154.75327962 -180.20602668 174.41747886 -182.1232872 194.08311081 C-183.21182589 205.24851517 -184.29697603 216.41424929 -185.38228989 227.5799675 C-185.49017397 228.68981569 -185.59805805 229.79966389 -185.70921135 230.94314384 C-187.81667899 252.62558516 -189.92095966 274.30832168 -192.00030136 295.99348068 C-192.3443351 299.57994961 -192.69009391 303.16624528 -193.03747177 306.75239182 C-193.44229739 310.93212459 -193.84362002 315.11217941 -194.24231339 319.29250145 C-194.38611704 320.79443026 -194.53108739 322.296248 -194.67744827 323.79792976 C-195.1420507 328.56999938 -195.5654381 333.34458386 -195.96041489 338.12293625 C-196.02932308 338.91346264 -196.09823128 339.70398903 -196.1692276 340.51847076 C-196.37791428 342.97958421 -196.56253201 345.44147746 -196.74142075 347.90491867 C-196.80854295 348.66624005 -196.87566515 349.42756144 -196.94482136 350.21195316 C-197.15828011 353.45461733 -197.20175446 355.66747901 -195.66160202 358.57406235 C-192.12443721 361.79453242 -187.94247196 361.27102907 -183.44723129 361.26819992 C-182.30282326 361.27323784 -182.30282326 361.27323784 -181.13529587 361.27837753 C-178.61083985 361.28788351 -176.08645019 361.28983051 -173.56197739 361.290905 C-171.80704343 361.29411796 -170.05210975 361.29748207 -168.29717636 361.30099106 C-164.61688237 361.30698154 -160.93661185 361.30883105 -157.25631332 361.30823898 C-152.54301276 361.3081374 -147.82986297 361.32178632 -143.11659813 361.33901119 C-139.49117976 361.35013627 -135.86579777 361.35215803 -132.24036407 361.35162926 C-130.5028532 361.35280873 -128.76534136 361.35722869 -127.02784729 361.36496162 C-124.59592037 361.37477119 -122.16431984 361.37187964 -119.73238754 361.36585617 C-119.01636871 361.37147568 -118.30034988 361.37709518 -117.56263351 361.38288498 C-113.61916882 361.35809567 -110.37253826 361.19216792 -106.96041489 359.12293625 C-104.48509698 354.9949037 -104.39903647 350.24984646 -104.00240707 345.54652023 C-103.88457398 344.25891155 -103.88457398 344.25891155 -103.76436043 342.94529057 C-103.50467723 340.08714438 -103.25596487 337.22815335 -103.00728989 334.36903 C-102.82531425 332.34042732 -102.64267284 330.31188427 -102.45940781 328.28339767 C-102.07023283 323.95925308 -101.68593518 319.63471287 -101.30544662 315.30979538 C-100.71084276 308.55186043 -100.10454806 301.79500427 -99.49703598 295.03821945 C-97.74233426 275.48358233 -96.01945792 255.92631073 -94.34913254 236.36428261 C-94.14327423 233.95690389 -93.93639017 231.54961578 -93.72909164 229.14236069 C-93.66303726 228.37503585 -93.59698288 227.60771101 -93.52892685 226.8171339 C-93.39931731 225.31160405 -93.26965934 223.80607837 -93.1399498 222.30055714 C-92.77433001 218.04609334 -92.4176003 213.79100573 -92.06814766 209.53518486 C-91.80191733 206.31777551 -91.52463395 203.10131138 -91.24947739 199.884655 C-91.118703 198.2332753 -91.118703 198.2332753 -90.98528671 196.54853439 C-90.03253067 185.63587399 -88.4605222 174.52181924 -83.27291489 164.74793625 C-82.92116196 164.07512619 -82.56940903 163.40231613 -82.20699692 162.70911789 C-75.97568495 151.25167881 -66.54880342 145.47291671 -54.44478989 141.24403 C-42.51005033 138.17448367 -29.40713758 140.1419636 -18.63619614 146.02918625 C-15.99039301 147.75605076 -14.01187851 149.72956202 -11.96041489 152.12293625 C-11.25916489 152.92731125 -10.55791489 153.73168625 -9.83541489 154.56043625 C-4.90988344 162.56191182 -4.69804467 172.25526201 -5.22262192 181.33582687 C-5.27056459 182.23746315 -5.31850727 183.13909943 -5.36790276 184.06805801 C-6.09209918 196.62467712 -7.36232109 209.13778107 -8.57760239 221.65418625 C-8.83915184 224.38279852 -9.09902688 227.11156948 -9.3588829 229.84034348 C-9.97130999 236.26288413 -10.58828992 242.68497722 -11.20739949 249.10687685 C-11.96721481 256.98831162 -12.72430127 264.87000684 -13.47994614 272.7518425 C-13.5469423 273.45046024 -13.61393846 274.14907799 -13.6829648 274.86886597 C-14.7844559 286.35907638 -15.87160995 297.85058801 -16.94600677 309.34336472 C-17.57277765 316.04076547 -18.21440291 322.73634391 -18.87628365 329.4303627 C-19.2215363 332.96298848 -19.54974281 336.49700833 -19.8717041 340.03182602 C-20.01722422 341.59024521 -20.1701431 343.14799464 -20.33113861 344.7048912 C-20.5439249 346.77071523 -20.73058657 348.83720322 -20.91012192 350.90613937 C-21.0715921 352.58407578 -21.0715921 352.58407578 -21.23632431 354.29590988 C-21.16829716 357.18568211 -21.16829716 357.18568211 -19.46891403 359.48112106 C-15.9990241 361.75216747 -12.88589586 361.66784334 -8.87472153 361.60877609 C-7.65694267 361.61447113 -7.65694267 361.61447113 -6.41456223 361.62028122 C-3.73283789 361.62768606 -1.05219909 361.60630393 1.62942886 361.58387375 C3.49503324 361.58148893 5.36064005 361.58058408 7.22624588 361.58109665 C11.13610243 361.57796864 15.0455923 361.56140478 18.9553566 361.53455734 C23.96349061 361.50060113 28.97122126 361.49292815 33.9794569 361.49444771 C37.83223181 361.49390339 41.68491879 361.48292588 45.53766441 361.46844482 C47.38401563 361.46208646 49.23037679 361.45814018 51.07673836 361.45665741 C53.65949653 361.45231285 56.24183049 361.43478641 58.82449722 361.41346359 C59.5856987 361.41436996 60.34690018 361.41527634 61.13116837 361.41621017 C65.17657007 361.36746311 68.46040636 361.08907615 72.03958511 359.12293625 C75.89121941 351.61224938 75.16609578 341.57155735 74.97708511 333.33778 C75.03958511 331.12293625 75.03958511 331.12293625 76.03958511 329.12293625 C76.34205651 326.43559969 76.59287417 323.76194409 76.8081398 321.06727219 C76.8783764 320.22905206 76.948613 319.39083193 77.02097797 318.52721119 C77.25509819 315.7208911 77.48327828 312.91411996 77.71146011 310.10731125 C77.87555789 308.12532353 78.04000871 306.14336501 78.20479202 304.16143417 C78.64655612 298.83508243 79.0831343 293.50831728 79.51863098 288.18144989 C79.96890893 282.68328406 80.42363729 277.18548618 80.87771988 271.68763351 C81.85791051 259.80733121 82.83067223 247.92642807 83.80088425 236.04530716 C84.02687829 233.27850357 84.25311529 230.51172 84.47946548 227.74494553 C85.31612766 217.51710831 86.14910472 207.28897998 86.97708511 197.06043625 C87.12893265 195.18708603 87.12893265 195.18708603 87.28384781 193.27589035 C93.05444063 146.17803692 93.05444063 146.17803692 75.10843277 104.15028 C60.8525062 88.38762949 41.16782692 79.51532572 20.03958511 78.12293625 C-13.92512853 76.92868098 -44.26245983 80.04032927 -70.96041489 103.12293625 Z " fill="#38935B" transform="translate(294.9604148864746,14.877063751220703)"/>
<path d="M0 0 C0.33 0 0.66 0 1 0 C1 85.14 1 170.28 1 258 C0.67 258 0.34 258 0 258 C-0.90601476 254.10438107 -1.15702435 250.44243875 -1.22119141 246.44677734 C-1.23266897 245.79442549 -1.24414654 245.14207363 -1.25597191 244.46995354 C-1.29303902 242.258663 -1.32267526 240.04734928 -1.3515625 237.8359375 C-1.37536789 236.20456893 -1.39921367 234.57320095 -1.4230957 232.9418335 C-1.50055927 227.41966498 -1.56322471 221.8973626 -1.625 216.375 C-1.63619621 215.42104088 -1.64739243 214.46708176 -1.65892792 213.48421478 C-2.16532016 170.13588411 -1.93770513 126.79100785 -1.65892792 83.44202423 C-1.63610253 79.88904457 -1.6139802 76.33606169 -1.59253693 72.78307343 C-1.53067637 62.5347426 -1.46337572 52.28647688 -1.3866272 42.03824615 C-1.36298046 38.87144165 -1.34129874 35.70463336 -1.32131958 32.53780365 C-1.29786369 28.85522038 -1.26968431 25.17270342 -1.23776317 21.49018407 C-1.22171066 19.51364285 -1.21027781 17.53706579 -1.1989994 15.56049156 C-1.18776228 14.38118883 -1.17652515 13.2018861 -1.16494751 11.98684692 C-1.15719614 10.96884569 -1.14944477 9.95084446 -1.14145851 8.90199471 C-0.99365586 5.86985121 -0.5561319 2.98209295 0 0 Z " fill="#296D3D" transform="translate(15,110)"/>
<path d="M0 0 C0.495 0.99 0.495 0.99 1 2 C10.24 2 19.48 2 29 2 C28.67 2.66 28.34 3.32 28 4 C-19.19 4 -66.38 4 -115 4 C-115 3.34 -115 2.68 -115 2 C-77.05 2 -39.1 2 0 2 C0 1.34 0 0.68 0 0 Z " fill="#3D9E64" transform="translate(239,15)"/>
<path d="M0 0 C0.495 0.99 0.495 0.99 1 2 C3.64 2 6.28 2 9 2 C9 2.33 9 2.66 9 3 C0.16852718 3.79282676 -8.58392389 4.15940167 -17.44921875 4.16796875 C-19.27898003 4.17296135 -19.27898003 4.17296135 -21.14570618 4.17805481 C-23.69601061 4.18307576 -26.24632149 4.18546465 -28.79663086 4.18530273 C-32.71543833 4.18751578 -36.63397557 4.20579386 -40.55273438 4.22460938 C-43.03906154 4.22753895 -45.52539004 4.22952666 -48.01171875 4.23046875 C-49.18554611 4.23765427 -50.35937347 4.24483978 -51.56877136 4.25224304 C-53.18734795 4.2476281 -53.18734795 4.2476281 -54.83862305 4.24291992 C-56.26539619 4.24505745 -56.26539619 4.24505745 -57.72099304 4.24723816 C-60 4 -60 4 -62 2 C-41.54 2 -21.08 2 0 2 C0 1.34 0 0.68 0 0 Z " fill="#3FA063" transform="translate(177,375)"/>
<path d="M0 0 C16.69091058 2.65266257 33.59323409 19.39913863 43.1875 32.4375 C44.91796875 34.87109375 44.91796875 34.87109375 46 37 C45.67 37.99 45.34 38.98 45 40 C44.62230469 39.41734375 44.24460937 38.8346875 43.85546875 38.234375 C32.38660706 21.15194869 18.2737627 10.1618455 0 1 C0 0.67 0 0.34 0 0 Z " fill="#266C3E" transform="translate(404,26)"/>
<path d="M0 0 C12.92983177 3.71029955 22.86492932 15.64513226 29.75 26.6796875 C31 29 31 29 31 31 C31.66 31 32.32 31 33 31 C33.85856655 34.4342662 33.97591583 36.61682513 33 40 C32.50371094 38.94941406 32.00742187 37.89882812 31.49609375 36.81640625 C24.0280634 21.26696639 15.07509096 9.93338723 0 1 C0 0.67 0 0.34 0 0 Z " fill="#286E3E" transform="translate(349,102)"/>
<path d="M0 0 C0.33 0 0.66 0 1 0 C1.12432554 8.64654496 0.76933094 17.19096728 0.125 25.8125 C0.00705078 27.5749707 0.00705078 27.5749707 -0.11328125 29.37304688 C-0.95402882 40.82661574 -0.95402882 40.82661574 -3 46 C-5.625 47.4375 -5.625 47.4375 -8 48 C-7.67 47.34 -7.34 46.68 -7 46 C-6.34 46 -5.68 46 -5 46 C-3.28907091 33.0500236 -3.28907091 33.0500236 -3.02734375 20.00390625 C-3 18 -3 18 -2 16 C-1.60772162 13.29127482 -1.25430502 10.59248307 -0.9375 7.875 C-0.84662109 7.12089844 -0.75574219 6.36679687 -0.66210938 5.58984375 C-0.43809148 3.72695812 -0.21861427 1.86352748 0 0 Z " fill="#287040" transform="translate(372,328)"/>
<path d="M0 0 C0 0.33 0 0.66 0 1 C-3.70795276 1.33765809 -7.41641581 1.66935514 -11.125 2 C-12.17171875 2.09539063 -13.2184375 2.19078125 -14.296875 2.2890625 C-19.2117833 2.7245607 -24.05972054 3.13675514 -29 3 C-29 2.67 -29 2.34 -29 2 C-37.91 1.67 -46.82 1.34 -56 1 C-56 0.67 -56 0.34 -56 0 C-37.26744593 -0.78887093 -18.73423239 -1.18977484 0 0 Z " fill="#1C5E33" transform="translate(296,16)"/>
<path d="M0 0 C0.66 0.33 1.32 0.66 2 1 C1.23816406 1.77601562 0.47632812 2.55203125 -0.30859375 3.3515625 C-10.33626776 13.76397575 -17.95233914 24.81062908 -24 38 C-25 35 -25 35 -23.55078125 31.48046875 C-22.82116403 30.04100851 -22.07380532 28.61045512 -21.3125 27.1875 C-20.91329346 26.43573486 -20.51408691 25.68396973 -20.1027832 24.90942383 C-14.84802946 15.4212572 -7.7140116 7.56742705 0 0 Z " fill="#246739" transform="translate(48,43)"/>
<path d="M0 0 C0.33 0.66 0.66 1.32 1 2 C4.63 2 8.26 2 12 2 C12 2.66 12 3.32 12 4 C0.45 4 -11.1 4 -23 4 C-23 3.67 -23 3.34 -23 3 C-15.31395526 2.02840067 -7.74136601 1.89079578 0 2 C0 1.34 0 0.68 0 0 Z " fill="#3C9B63" transform="translate(296,15)"/>
<path d="M0 0 C0.33 0 0.66 0 1 0 C1.23305108 7.44468714 0.97936504 14.72447373 0.1875 22.125 C0.11740723 22.85904053 0.04731445 23.59308105 -0.02490234 24.34936523 C-0.38061293 27.39704524 -0.64347853 29.54881899 -2.57421875 31.9921875 C-3.04472656 32.32476562 -3.51523438 32.65734375 -4 33 C-4.66 32.67 -5.32 32.34 -6 32 C-5.29230469 30.85917969 -5.29230469 30.85917969 -4.5703125 29.6953125 C-2.23850106 25.02894954 -2.21846559 20.00004537 -1.875 14.875 C-1.7292569 12.9138604 -1.5809206 10.95291138 -1.4296875 8.9921875 C-1.34050049 7.69837158 -1.34050049 7.69837158 -1.24951172 6.37841797 C-1.01730712 4.16497649 -0.59977187 2.13974342 0 0 Z " fill="#266C3B" transform="translate(192,343)"/>
<path d="M0 0 C0.33 0 0.66 0 1 0 C1.2615556 10.24426111 0.60781635 19.87937028 -1 30 C-1.33 30 -1.66 30 -2 30 C-2.22162857 27.22964291 -2.42779249 24.45961005 -2.625 21.6875 C-2.68945312 20.90181641 -2.75390625 20.11613281 -2.8203125 19.30664062 C-2.871875 18.54931641 -2.9234375 17.79199219 -2.9765625 17.01171875 C-3.02893066 16.31522217 -3.08129883 15.61872559 -3.13525391 14.90112305 C-3 13 -3 13 -1 10 C-0.54398739 7.49103314 -0.54398739 7.49103314 -0.375 4.8125 C-0.30023438 3.91144531 -0.22546875 3.01039063 -0.1484375 2.08203125 C-0.09945312 1.39496094 -0.05046875 0.70789063 0 0 Z " fill="#226939" transform="translate(102,306)"/>
<path d="M0 0 C-2.45078412 1.63385608 -4.44165123 2.65357792 -7.125 3.75 C-13.38273286 6.48008934 -19.28908925 10.00761974 -24 15 C-24.66 14.67 -25.32 14.34 -26 14 C-20.20273201 6.82969485 -9.63537962 -0.89081812 0 0 Z " fill="#266D3D" transform="translate(243,156)"/>
<path d="M0 0 C0 3.3 0 6.6 0 10 C0.928125 8.7625 0.928125 8.7625 1.875 7.5 C2.57625 6.675 3.2775 5.85 4 5 C4.66 5 5.32 5 6 5 C6 5.66 6 6.32 6 7 C5.34 7 4.68 7 4 7 C3.71125 7.598125 3.4225 8.19625 3.125 8.8125 C2 11 2 11 0 14 C-0.99 14 -1.98 14 -3 14 C-3 9.71 -3 5.42 -3 1 C-1 0 -1 0 0 0 Z " fill="#2D7745" transform="translate(212,118)"/>
<path d="M0 0 C0 0.99 0 1.98 0 3 C1.65 3 3.3 3 5 3 C5 3.33 5 3.66 5 4 C1.7 4 -1.6 4 -5 4 C-5 3.34 -5 2.68 -5 2 C-8.63 2 -12.26 2 -16 2 C-16 1.67 -16 1.34 -16 1 C-14.08351538 0.83125293 -12.16680367 0.66508357 -10.25 0.5 C-9.18265625 0.4071875 -8.1153125 0.314375 -7.015625 0.21875 C-4.6820782 0.04947717 -2.33967818 0 0 0 Z " fill="#287545" transform="translate(313,15)"/>
<path d="M0 0 C4.63607655 1.19213397 6.49826189 3.52902771 9.1796875 7.24609375 C10 9 10 9 9 12 C6 8 3 4 0 0 Z " fill="#246C3B" transform="translate(277,162)"/>
<path d="M0 0 C0.66 0.33 1.32 0.66 2 1 C-0.97 4.3 -3.94 7.6 -7 11 C-7.33 10.01 -7.66 9.02 -8 8 C-5.36 5.36 -2.72 2.72 0 0 Z " fill="#2E7748" transform="translate(48,43)"/>
<path d="M0 0 C0.66 0.99 1.32 1.98 2 3 C2.99 3 3.98 3 5 3 C3.35830472 5.02054804 1.69088222 7.02043058 0 9 C-0.33 9 -0.66 9 -1 9 C-0.67 6.03 -0.34 3.06 0 0 Z " fill="#3F9D63" transform="translate(212,120)"/>
<path d="M0 0 C2 2 2 2 2.125 5.125 C2.08375 6.07375 2.0425 7.0225 2 8 C1.01 7.67 0.02 7.34 -1 7 C-1.04254356 5.00045254 -1.04080783 2.99958364 -1 1 C-0.67 0.67 -0.34 0.34 0 0 Z M0 3 C1 5 1 5 1 5 Z " fill="#4B9B68" transform="translate(470,300)"/>
<path d="M0 0 C0.99 0.33 1.98 0.66 3 1 C2 4 2 4 0 6 C0 4.02 0 2.04 0 0 Z " fill="#4B9C67" transform="translate(469,293)"/>
<path d="M0 0 C0.33 0.66 0.66 1.32 1 2 C1.66 2 2.32 2 3 2 C2.34 3.32 1.68 4.64 1 6 C0.67 6 0.34 6 0 6 C0 4.02 0 2.04 0 0 Z " fill="#4B9B67" transform="translate(469,253)"/>
<path d="M0 0 C1.09658936 3.28976808 0.79953138 4.71303767 0 8 C-0.33 8 -0.66 8 -1 8 C-1.125 2.25 -1.125 2.25 0 0 Z " fill="#4A9C67" transform="translate(470,267)"/>
<path d="M0 0 C0.33 0.66 0.66 1.32 1 2 C1.66 2 2.32 2 3 2 C2.34 3.32 1.68 4.64 1 6 C0.67 6 0.34 6 0 6 C0 4.02 0 2.04 0 0 Z " fill="#499A66" transform="translate(469,205)"/>
<path d="M0 0 C0.99 0.495 0.99 0.495 2 1 C1.67 2.98 1.34 4.96 1 7 C0.67 7 0.34 7 0 7 C0 4.69 0 2.38 0 0 Z " fill="#4A9865" transform="translate(469,340)"/>
<path d="M0 0 C0.99 0.33 1.98 0.66 3 1 C2.67 1.99 2.34 2.98 2 4 C1.34 3.67 0.68 3.34 0 3 C0 2.01 0 1.02 0 0 Z " fill="#4B9D68" transform="translate(469,277)"/>
<path d="M0 0 C0.66 0 1.32 0 2 0 C2.33 1.32 2.66 2.64 3 4 C2.01 3.67 1.02 3.34 0 3 C0 2.01 0 1.02 0 0 Z " fill="#4A9B67" transform="translate(469,261)"/>
<path d="M0 0 C1.33332095 2.6666419 0.67102033 4.16680303 0 7 C-0.33 7 -0.66 7 -1 7 C-1.04254356 5.00045254 -1.04080783 2.99958364 -1 1 C-0.67 0.67 -0.34 0.34 0 0 Z " fill="#4B9B67" transform="translate(470,244)"/>
<path d="M0 0 C0.99 0.495 0.99 0.495 2 1 C1.67 2.65 1.34 4.3 1 6 C0.67 6 0.34 6 0 6 C0 4.02 0 2.04 0 0 Z " fill="#4B9B67" transform="translate(469,309)"/>
<path d="M0 0 C0.33 0.66 0.66 1.32 1 2 C0.0625 4.125 0.0625 4.125 -1 6 C-1.042721 4.33388095 -1.04063832 2.66617115 -1 1 C-0.67 0.67 -0.34 0.34 0 0 Z " fill="#4B9C66" transform="translate(470,284)"/>
<path d="M0 0 C0.99 0.495 0.99 0.495 2 1 C1.67 2.65 1.34 4.3 1 6 C0.67 6 0.34 6 0 6 C0 4.02 0 2.04 0 0 Z " fill="#4A9B66" transform="translate(469,229)"/>
<path d="M0 0 C0.99 0.495 0.99 0.495 2 1 C1.67 2.65 1.34 4.3 1 6 C0.67 6 0.34 6 0 6 C0 4.02 0 2.04 0 0 Z " fill="#4B9A65" transform="translate(469,189)"/>
<path d="M0 0 C0.33 0.66 0.66 1.32 1 2 C1.66 2 2.32 2 3 2 C2.67 2.66 2.34 3.32 2 4 C1.34 3.67 0.68 3.34 0 3 C0 2.01 0 1.02 0 0 Z " fill="#499865" transform="translate(469,349)"/>
<path d="M0 0 C0.66 0 1.32 0 2 0 C1.34 1.32 0.68 2.64 0 4 C0 2.68 0 1.36 0 0 Z " fill="#499A66" transform="translate(469,220)"/>
<path d="M0 0 C0.33 0.99 0.66 1.98 1 3 C0.34 3.66 -0.32 4.32 -1 5 C-0.67 3.35 -0.34 1.7 0 0 Z " fill="#4B9A65" transform="translate(470,163)"/>
<path d="M0 0 C0.66 1.32 1.32 2.64 2 4 C1.34 3.67 0.68 3.34 0 3 C0 2.01 0 1.02 0 0 Z " fill="#499A65" transform="translate(26,407)"/>
<path d="M0 0 C0.33 0 0.66 0 1 0 C1 1.65 1 3.3 1 5 C0.67 5 0.34 5 0 5 C0 3.35 0 1.7 0 0 Z " fill="#4B9B66" transform="translate(469,318)"/>
<path d="M0 0 C1.32 0.33 2.64 0.66 4 1 C3.01 1.495 3.01 1.495 2 2 C1.34 1.34 0.68 0.68 0 0 Z " fill="#4B9C68" transform="translate(59,28)"/>
<path d="M0 0 C0.99 0.33 1.98 0.66 3 1 C2.01 1.33 1.02 1.66 0 2 C0 1.34 0 0.68 0 0 Z " fill="#489A65" transform="translate(113,464)"/>
<path d="M0 0 C1 4 1 4 1 4 Z " fill="#49A068" transform="translate(193,307)"/>
<path d="M0 0 C1 4 1 4 1 4 Z " fill="#499F68" transform="translate(196,272)"/>
<path d="M0 0 C0.99 0.495 0.99 0.495 2 1 C1.34 1.66 0.68 2.32 0 3 C0 2.01 0 1.02 0 0 Z " fill="#4A9B66" transform="translate(469,237)"/>
<path d="M0 0 C1 4 1 4 1 4 Z " fill="#4A9A65" transform="translate(469,199)"/>
<path d="M0 0 C1 4 1 4 1 4 Z " fill="#499A65" transform="translate(469,181)"/>
<path d="M0 0 C0.99 0.495 0.99 0.495 2 1 C1.34 1.66 0.68 2.32 0 3 C0 2.01 0 1.02 0 0 Z " fill="#4A9964" transform="translate(469,173)"/>
<path d="M0 0 C0.99 0.495 0.99 0.495 2 1 C1.34 1.66 0.68 2.32 0 3 C0 2.01 0 1.02 0 0 Z " fill="#499A64" transform="translate(469,157)"/>
<path d="M0 0 C0.99 1.485 0.99 1.485 2 3 C1.34 3 0.68 3 0 3 C0 2.01 0 1.02 0 0 Z " fill="#4A9965" transform="translate(469,141)"/>
<path d="M0 0 C0.66 0 1.32 0 2 0 C1.67 0.66 1.34 1.32 1 2 C0.67 1.34 0.34 0.68 0 0 Z " fill="#489863" transform="translate(105,465)"/>
<path d="M0 0 C3 1 3 1 3 1 Z " fill="#489964" transform="translate(105,463)"/>
<path d="M0 0 C0.33 0.66 0.66 1.32 1 2 C0.34 1.67 -0.32 1.34 -1 1 C-0.67 0.67 -0.34 0.34 0 0 Z " fill="#499764" transform="translate(36,422)"/>
<path d="" fill="#499A65" transform="translate(0,0)"/>
<path d="" fill="#499863" transform="translate(0,0)"/>
<path d="M0 0 C0.99 0.495 0.99 0.495 2 1 C1.01 1.495 1.01 1.495 0 2 C0 1.34 0 0.68 0 0 Z " fill="#4A9966" transform="translate(471,343)"/>
<path d="" fill="#4A9B65" transform="translate(0,0)"/>
<path d="" fill="#4C9A65" transform="translate(0,0)"/>
<path d="M0 0 C0.33 0.66 0.66 1.32 1 2 C0.34 1.67 -0.32 1.34 -1 1 C-0.67 0.67 -0.34 0.34 0 0 Z " fill="#4B9A67" transform="translate(470,324)"/>
<path d="" fill="#4A9B68" transform="translate(0,0)"/>
<path d="" fill="#49A067" transform="translate(0,0)"/>
<path d="" fill="#4A9A65" transform="translate(0,0)"/>
<path d="" fill="#479C66" transform="translate(0,0)"/>
<path d="" fill="#4B9A67" transform="translate(0,0)"/>
<path d="" fill="#499D66" transform="translate(0,0)"/>
<path d="" fill="#499864" transform="translate(0,0)"/>
<path d="" fill="#4B9966" transform="translate(0,0)"/>
<path d="" fill="#4D9A68" transform="translate(0,0)"/>
<path d="M0 0 C3 1 3 1 3 1 Z " fill="#489D67" transform="translate(129,97)"/>
<path d="" fill="#489C68" transform="translate(0,0)"/>
<path d="" fill="#499B67" transform="translate(0,0)"/>
<path d="M0 0 C0.66 0 1.32 0 2 0 C1.67 0.66 1.34 1.32 1 2 C0.67 1.34 0.34 0.68 0 0 Z " fill="#469966" transform="translate(414,28)"/>
<path d="M0 0 C0.66 0 1.32 0 2 0 C1.67 0.66 1.34 1.32 1 2 C0.67 1.34 0.34 0.68 0 0 Z " fill="#499C66" transform="translate(402,22)"/>
<path d="M0 0 C2 1 2 1 2 1 Z " fill="#479562" transform="translate(367,463)"/>
<path d="M0 0 C2 1 2 1 2 1 Z " fill="#499863" transform="translate(100,462)"/>
<path d="" fill="#499865" transform="translate(0,0)"/>
<path d="M0 0 C2 1 2 1 2 1 Z " fill="#489360" transform="translate(421,449)"/>
<path d="" fill="#538E63" transform="translate(0,0)"/>
<path d="" fill="#489763" transform="translate(0,0)"/>
<path d="" fill="#499A65" transform="translate(0,0)"/>
<path d="" fill="#489B66" transform="translate(0,0)"/>
<path d="" fill="#4F9564" transform="translate(0,0)"/>
<path d="" fill="#4A9864" transform="translate(0,0)"/>
<path d="" fill="#4C9966" transform="translate(0,0)"/>
<path d="" fill="#4A9965" transform="translate(0,0)"/>
<path d="" fill="#4B9867" transform="translate(0,0)"/>
<path d="" fill="#479E66" transform="translate(0,0)"/>
<path d="" fill="#4C9A67" transform="translate(0,0)"/>
<path d="" fill="#4A9A67" transform="translate(0,0)"/>
<path d="" fill="#4B9B68" transform="translate(0,0)"/>
<path d="" fill="#4AA269" transform="translate(0,0)"/>
<path d="" fill="#469E66" transform="translate(0,0)"/>
<path d="" fill="#4B9B68" transform="translate(0,0)"/>
<path d="" fill="#49A169" transform="translate(0,0)"/>
<path d="" fill="#499F69" transform="translate(0,0)"/>
<path d="" fill="#49A168" transform="translate(0,0)"/>
<path d="" fill="#49A169" transform="translate(0,0)"/>
<path d="" fill="#47A067" transform="translate(0,0)"/>
<path d="" fill="#4C9C68" transform="translate(0,0)"/>
<path d="" fill="#499F68" transform="translate(0,0)"/>
<path d="" fill="#4B9B67" transform="translate(0,0)"/>
<path d="" fill="#4C9C67" transform="translate(0,0)"/>
<path d="" fill="#4B9C67" transform="translate(0,0)"/>
<path d="" fill="#4B9B68" transform="translate(0,0)"/>
<path d="" fill="#4B9B66" transform="translate(0,0)"/>
<path d="" fill="#4A9B66" transform="translate(0,0)"/>
<path d="" fill="#4B9C67" transform="translate(0,0)"/>
<path d="" fill="#49A066" transform="translate(0,0)"/>
<path d="" fill="#469C65" transform="translate(0,0)"/>
<path d="M0 0 C2 1 2 1 2 1 Z " fill="#499A65" transform="translate(469,197)"/>
<path d="" fill="#4C9965" transform="translate(0,0)"/>
<path d="M0 0 C2 1 2 1 2 1 Z " fill="#4B9A65" transform="translate(469,169)"/>
<path d="" fill="#4B9A66" transform="translate(0,0)"/>
<path d="M0 0 C2 1 2 1 2 1 Z " fill="#459C65" transform="translate(220,164)"/>
<path d="M0 0 C2 1 2 1 2 1 Z " fill="#459D66" transform="translate(217,164)"/>
<path d="" fill="#4A9A66" transform="translate(0,0)"/>
<path d="" fill="#469D67" transform="translate(0,0)"/>
<path d="M0 0 C2 1 2 1 2 1 Z " fill="#4AA16B" transform="translate(233,156)"/>
<path d="" fill="#469E68" transform="translate(0,0)"/>
<path d="" fill="#4C9B67" transform="translate(0,0)"/>
<path d="" fill="#4C9B67" transform="translate(0,0)"/>
<path d="" fill="#4E9B66" transform="translate(0,0)"/>
<path d="" fill="#4D9B67" transform="translate(0,0)"/>
<path d="M0 0 C2 1 2 1 2 1 Z " fill="#47A068" transform="translate(331,97)"/>
<path d="M0 0 C2 1 2 1 2 1 Z " fill="#499C67" transform="translate(304,94)"/>
<path d="M0 0 C2 1 2 1 2 1 Z " fill="#489C67" transform="translate(35,54)"/>
<path d="M0 0 C2 1 2 1 2 1 Z " fill="#499C68" transform="translate(421,33)"/>
<path d="M0 0 C2 1 2 1 2 1 Z " fill="#499A66" transform="translate(422,29)"/>
<path d="" fill="#4E8D60" transform="translate(0,0)"/>
<path d="" fill="#499A65" transform="translate(0,0)"/>
<path d="" fill="#479863" transform="translate(0,0)"/>
<path d="" fill="#479B65" transform="translate(0,0)"/>
<path d="" fill="#4D8E60" transform="translate(0,0)"/>
<path d="" fill="#499763" transform="translate(0,0)"/>
<path d="" fill="#479663" transform="translate(0,0)"/>
<path d="" fill="#479A64" transform="translate(0,0)"/>
<path d="" fill="#479966" transform="translate(0,0)"/>
<path d="" fill="#489B65" transform="translate(0,0)"/>
<path d="" fill="#479B65" transform="translate(0,0)"/>
<path d="" fill="#459461" transform="translate(0,0)"/>
<path d="" fill="#4A9D68" transform="translate(0,0)"/>
<path d="" fill="#548B61" transform="translate(0,0)"/>
<path d="" fill="#459261" transform="translate(0,0)"/>
<path d="" fill="#459761" transform="translate(0,0)"/>
<path d="" fill="#459560" transform="translate(0,0)"/>
<path d="" fill="#4B8F61" transform="translate(0,0)"/>
<path d="" fill="#479B66" transform="translate(0,0)"/>
<path d="" fill="#558C62" transform="translate(0,0)"/>
<path d="" fill="#479360" transform="translate(0,0)"/>
<path d="" fill="#479663" transform="translate(0,0)"/>
<path d="" fill="#489261" transform="translate(0,0)"/>
<path d="" fill="#449761" transform="translate(0,0)"/>
<path d="" fill="#469462" transform="translate(0,0)"/>
<path d="" fill="#449661" transform="translate(0,0)"/>
<path d="" fill="#469865" transform="translate(0,0)"/>
<path d="" fill="#538E62" transform="translate(0,0)"/>
<path d="" fill="#4A9362" transform="translate(0,0)"/>
<path d="" fill="#4A9462" transform="translate(0,0)"/>
<path d="" fill="#4C9462" transform="translate(0,0)"/>
<path d="" fill="#519064" transform="translate(0,0)"/>
<path d="" fill="#4A9462" transform="translate(0,0)"/>
<path d="" fill="#528E63" transform="translate(0,0)"/>
<path d="" fill="#489664" transform="translate(0,0)"/>
<path d="" fill="#44925F" transform="translate(0,0)"/>
<path d="" fill="#509365" transform="translate(0,0)"/>
<path d="" fill="#549064" transform="translate(0,0)"/>
<path d="" fill="#46945F" transform="translate(0,0)"/>
<path d="" fill="#4A9763" transform="translate(0,0)"/>
<path d="" fill="#499963" transform="translate(0,0)"/>
<path d="" fill="#4A9763" transform="translate(0,0)"/>
<path d="" fill="#539064" transform="translate(0,0)"/>
<path d="" fill="#4B9861" transform="translate(0,0)"/>
<path d="" fill="#4E9563" transform="translate(0,0)"/>
<path d="" fill="#489663" transform="translate(0,0)"/>
<path d="" fill="#469865" transform="translate(0,0)"/>
<path d="" fill="#489764" transform="translate(0,0)"/>
<path d="" fill="#529163" transform="translate(0,0)"/>
<path d="" fill="#4B9464" transform="translate(0,0)"/>
<path d="" fill="#4A9965" transform="translate(0,0)"/>
<path d="" fill="#499762" transform="translate(0,0)"/>
<path d="" fill="#4B9865" transform="translate(0,0)"/>
<path d="" fill="#4B9967" transform="translate(0,0)"/>
<path d="" fill="#519164" transform="translate(0,0)"/>
<path d="" fill="#499664" transform="translate(0,0)"/>
<path d="" fill="#489563" transform="translate(0,0)"/>
<path d="" fill="#499562" transform="translate(0,0)"/>
<path d="" fill="#489964" transform="translate(0,0)"/>
<path d="" fill="#489865" transform="translate(0,0)"/>
<path d="" fill="#4A9965" transform="translate(0,0)"/>
<path d="" fill="#499663" transform="translate(0,0)"/>
<path d="" fill="#529264" transform="translate(0,0)"/>
<path d="" fill="#519263" transform="translate(0,0)"/>
<path d="" fill="#489764" transform="translate(0,0)"/>
<path d="" fill="#459260" transform="translate(0,0)"/>
<path d="" fill="#509464" transform="translate(0,0)"/>
<path d="" fill="#519263" transform="translate(0,0)"/>
<path d="" fill="#4A9561" transform="translate(0,0)"/>
<path d="" fill="#4F9465" transform="translate(0,0)"/>
<path d="" fill="#4E9263" transform="translate(0,0)"/>
<path d="" fill="#4A9A65" transform="translate(0,0)"/>
<path d="" fill="#499564" transform="translate(0,0)"/>
<path d="" fill="#4E9663" transform="translate(0,0)"/>
<path d="" fill="#4D9463" transform="translate(0,0)"/>
<path d="" fill="#479864" transform="translate(0,0)"/>
<path d="" fill="#4E9765" transform="translate(0,0)"/>
<path d="" fill="#4F9662" transform="translate(0,0)"/>
<path d="" fill="#4F9663" transform="translate(0,0)"/>
<path d="" fill="#4F9665" transform="translate(0,0)"/>
<path d="" fill="#4C9665" transform="translate(0,0)"/>
<path d="" fill="#4B9664" transform="translate(0,0)"/>
<path d="" fill="#4B9564" transform="translate(0,0)"/>
<path d="" fill="#4B9663" transform="translate(0,0)"/>
<path d="" fill="#4C9967" transform="translate(0,0)"/>
<path d="" fill="#4C9662" transform="translate(0,0)"/>
<path d="" fill="#479D62" transform="translate(0,0)"/>
<path d="" fill="#47A269" transform="translate(0,0)"/>
<path d="" fill="#4D9B65" transform="translate(0,0)"/>
<path d="" fill="#459B66" transform="translate(0,0)"/>
<path d="" fill="#4B9A67" transform="translate(0,0)"/>
<path d="" fill="#4B9B65" transform="translate(0,0)"/>
<path d="" fill="#4A9864" transform="translate(0,0)"/>
<path d="" fill="#4A9763" transform="translate(0,0)"/>
<path d="" fill="#499965" transform="translate(0,0)"/>
<path d="" fill="#4B9C68" transform="translate(0,0)"/>
<path d="" fill="#4D9965" transform="translate(0,0)"/>
<path d="" fill="#4B9866" transform="translate(0,0)"/>
<path d="" fill="#4B9A69" transform="translate(0,0)"/>
<path d="" fill="#479F68" transform="translate(0,0)"/>
<path d="" fill="#4CA367" transform="translate(0,0)"/>
<path d="" fill="#49A065" transform="translate(0,0)"/>
<path d="" fill="#4A9965" transform="translate(0,0)"/>
<path d="" fill="#4C9D65" transform="translate(0,0)"/>
<path d="" fill="#4A9A65" transform="translate(0,0)"/>
<path d="" fill="#4B9A65" transform="translate(0,0)"/>
<path d="" fill="#48A167" transform="translate(0,0)"/>
<path d="" fill="#4A9E64" transform="translate(0,0)"/>
<path d="" fill="#4A9B66" transform="translate(0,0)"/>
<path d="" fill="#4C9967" transform="translate(0,0)"/>
<path d="" fill="#489F68" transform="translate(0,0)"/>
<path d="" fill="#4AA469" transform="translate(0,0)"/>
<path d="" fill="#499B66" transform="translate(0,0)"/>
<path d="" fill="#499D65" transform="translate(0,0)"/>
<path d="" fill="#4D9B66" transform="translate(0,0)"/>
<path d="" fill="#4B9D66" transform="translate(0,0)"/>
<path d="" fill="#4A9A66" transform="translate(0,0)"/>
<path d="" fill="#4A9A64" transform="translate(0,0)"/>
<path d="" fill="#4B9B67" transform="translate(0,0)"/>
<path d="" fill="#4C9B68" transform="translate(0,0)"/>
<path d="" fill="#479D68" transform="translate(0,0)"/>
<path d="" fill="#4E9D66" transform="translate(0,0)"/>
<path d="" fill="#49A068" transform="translate(0,0)"/>
<path d="" fill="#489F67" transform="translate(0,0)"/>
<path d="" fill="#489C66" transform="translate(0,0)"/>
<path d="" fill="#49A069" transform="translate(0,0)"/>
<path d="" fill="#499B65" transform="translate(0,0)"/>
<path d="" fill="#4A9C69" transform="translate(0,0)"/>
<path d="" fill="#499B65" transform="translate(0,0)"/>
<path d="" fill="#49A168" transform="translate(0,0)"/>
<path d="" fill="#4A9D67" transform="translate(0,0)"/>
<path d="" fill="#4BA468" transform="translate(0,0)"/>
<path d="" fill="#4E9D65" transform="translate(0,0)"/>
<path d="" fill="#4AA068" transform="translate(0,0)"/>
<path d="" fill="#4B9D66" transform="translate(0,0)"/>
<path d="" fill="#4A9C65" transform="translate(0,0)"/>
<path d="" fill="#489A66" transform="translate(0,0)"/>
<path d="" fill="#4C9C69" transform="translate(0,0)"/>
<path d="" fill="#4D9C6A" transform="translate(0,0)"/>
<path d="" fill="#4CA16A" transform="translate(0,0)"/>
<path d="" fill="#4A9F68" transform="translate(0,0)"/>
<path d="" fill="#499E67" transform="translate(0,0)"/>
<path d="" fill="#499B63" transform="translate(0,0)"/>
<path d="" fill="#499F67" transform="translate(0,0)"/>
<path d="" fill="#489F67" transform="translate(0,0)"/>
<path d="" fill="#479B65" transform="translate(0,0)"/>
<path d="" fill="#48A069" transform="translate(0,0)"/>
<path d="" fill="#4A9E67" transform="translate(0,0)"/>
<path d="" fill="#499C65" transform="translate(0,0)"/>
<path d="" fill="#479E66" transform="translate(0,0)"/>
<path d="" fill="#49A168" transform="translate(0,0)"/>
<path d="" fill="#4BA169" transform="translate(0,0)"/>
<path d="" fill="#489B64" transform="translate(0,0)"/>
<path d="" fill="#4B9E68" transform="translate(0,0)"/>
<path d="" fill="#4C9B67" transform="translate(0,0)"/>
<path d="" fill="#4B9F69" transform="translate(0,0)"/>
<path d="" fill="#4AA168" transform="translate(0,0)"/>
<path d="" fill="#499E67" transform="translate(0,0)"/>
<path d="" fill="#479F6A" transform="translate(0,0)"/>
<path d="" fill="#4A9B64" transform="translate(0,0)"/>
<path d="" fill="#479F6A" transform="translate(0,0)"/>
<path d="" fill="#49A06A" transform="translate(0,0)"/>
<path d="" fill="#4A9D65" transform="translate(0,0)"/>
<path d="" fill="#49A06A" transform="translate(0,0)"/>
<path d="" fill="#499C68" transform="translate(0,0)"/>
<path d="" fill="#4A9C68" transform="translate(0,0)"/>
<path d="" fill="#479F66" transform="translate(0,0)"/>
<path d="" fill="#489B63" transform="translate(0,0)"/>
<path d="" fill="#46A167" transform="translate(0,0)"/>
<path d="" fill="#48A168" transform="translate(0,0)"/>
<path d="" fill="#4D9E65" transform="translate(0,0)"/>
<path d="" fill="#499C68" transform="translate(0,0)"/>
<path d="" fill="#4B9C66" transform="translate(0,0)"/>
<path d="" fill="#499E67" transform="translate(0,0)"/>
<path d="" fill="#4A9C66" transform="translate(0,0)"/>
<path d="" fill="#499A64" transform="translate(0,0)"/>
<path d="" fill="#489E67" transform="translate(0,0)"/>
<path d="" fill="#4AA064" transform="translate(0,0)"/>
<path d="" fill="#479A65" transform="translate(0,0)"/>
<path d="" fill="#469C65" transform="translate(0,0)"/>
<path d="" fill="#4B9A66" transform="translate(0,0)"/>
<path d="" fill="#489F69" transform="translate(0,0)"/>
<path d="" fill="#4C9B67" transform="translate(0,0)"/>
<path d="" fill="#4D9C66" transform="translate(0,0)"/>
<path d="" fill="#489E67" transform="translate(0,0)"/>
<path d="" fill="#489B65" transform="translate(0,0)"/>
<path d="" fill="#4A9B67" transform="translate(0,0)"/>
<path d="" fill="#499E66" transform="translate(0,0)"/>
<path d="" fill="#469D67" transform="translate(0,0)"/>
<path d="" fill="#49A367" transform="translate(0,0)"/>
<path d="" fill="#489C66" transform="translate(0,0)"/>
<path d="" fill="#499B68" transform="translate(0,0)"/>
<path d="" fill="#469B65" transform="translate(0,0)"/>
<path d="" fill="#479C66" transform="translate(0,0)"/>
<path d="" fill="#4D9E68" transform="translate(0,0)"/>
<path d="" fill="#4A9E67" transform="translate(0,0)"/>
<path d="" fill="#479F69" transform="translate(0,0)"/>
<path d="" fill="#4CA366" transform="translate(0,0)"/>
<path d="" fill="#4B9E66" transform="translate(0,0)"/>
<path d="" fill="#4A9A68" transform="translate(0,0)"/>
<path d="" fill="#499E66" transform="translate(0,0)"/>
<path d="" fill="#4B9866" transform="translate(0,0)"/>
<path d="" fill="#48A36B" transform="translate(0,0)"/>
<path d="" fill="#4A9B65" transform="translate(0,0)"/>
<path d="" fill="#4A9C67" transform="translate(0,0)"/>
<path d="" fill="#4A9A67" transform="translate(0,0)"/>
<path d="" fill="#4A9F68" transform="translate(0,0)"/>
<path d="" fill="#4A9A64" transform="translate(0,0)"/>
<path d="" fill="#469E67" transform="translate(0,0)"/>
<path d="" fill="#469D67" transform="translate(0,0)"/>
<path d="" fill="#4C9965" transform="translate(0,0)"/>
<path d="" fill="#489C63" transform="translate(0,0)"/>
<path d="" fill="#4BA066" transform="translate(0,0)"/>
<path d="" fill="#49A068" transform="translate(0,0)"/>
<path d="" fill="#4D9B67" transform="translate(0,0)"/>
<path d="" fill="#4AA068" transform="translate(0,0)"/>
<path d="" fill="#489A66" transform="translate(0,0)"/>
<path d="" fill="#4A9A66" transform="translate(0,0)"/>
<path d="" fill="#4A9E66" transform="translate(0,0)"/>
<path d="" fill="#489B64" transform="translate(0,0)"/>
<path d="" fill="#499F68" transform="translate(0,0)"/>
<path d="" fill="#4AA067" transform="translate(0,0)"/>
<path d="" fill="#4B9A68" transform="translate(0,0)"/>
<path d="" fill="#479E69" transform="translate(0,0)"/>
<path d="" fill="#4DA268" transform="translate(0,0)"/>
<path d="" fill="#4BA169" transform="translate(0,0)"/>
<path d="" fill="#499A64" transform="translate(0,0)"/>
<path d="" fill="#4D9B66" transform="translate(0,0)"/>
<path d="" fill="#489F66" transform="translate(0,0)"/>
<path d="" fill="#4C9B66" transform="translate(0,0)"/>
<path d="" fill="#4D9A67" transform="translate(0,0)"/>
<path d="" fill="#4E9D65" transform="translate(0,0)"/>
<path d="" fill="#47A06A" transform="translate(0,0)"/>
<path d="" fill="#4C9966" transform="translate(0,0)"/>
<path d="" fill="#4B9B66" transform="translate(0,0)"/>
<path d="" fill="#4C9B66" transform="translate(0,0)"/>
<path d="" fill="#4D9E68" transform="translate(0,0)"/>
<path d="" fill="#4A9A63" transform="translate(0,0)"/>
<path d="" fill="#499F69" transform="translate(0,0)"/>
<path d="" fill="#449A61" transform="translate(0,0)"/>
<path d="" fill="#4B9A67" transform="translate(0,0)"/>
<path d="" fill="#4B9A66" transform="translate(0,0)"/>
<path d="" fill="#499D66" transform="translate(0,0)"/>
<path d="" fill="#489B66" transform="translate(0,0)"/>
<path d="" fill="#4A9A68" transform="translate(0,0)"/>
<path d="" fill="#4B9B64" transform="translate(0,0)"/>
<path d="" fill="#499E66" transform="translate(0,0)"/>
<path d="" fill="#4C9C68" transform="translate(0,0)"/>
<path d="" fill="#4A9C63" transform="translate(0,0)"/>
<path d="" fill="#4C9B67" transform="translate(0,0)"/>
<path d="" fill="#4C9C67" transform="translate(0,0)"/>
<path d="" fill="#479D66" transform="translate(0,0)"/>
<path d="" fill="#499C64" transform="translate(0,0)"/>
<path d="" fill="#479C64" transform="translate(0,0)"/>
<path d="" fill="#489B63" transform="translate(0,0)"/>
<path d="" fill="#479B63" transform="translate(0,0)"/>
<path d="" fill="#4C9E69" transform="translate(0,0)"/>
<path d="" fill="#429A67" transform="translate(0,0)"/>
<path d="" fill="#4A9965" transform="translate(0,0)"/>
<path d="" fill="#499E66" transform="translate(0,0)"/>
<path d="" fill="#4E9B68" transform="translate(0,0)"/>
<path d="" fill="#509B69" transform="translate(0,0)"/>
<path d="" fill="#4B9B64" transform="translate(0,0)"/>
<path d="" fill="#4D9B67" transform="translate(0,0)"/>
<path d="" fill="#4B9D64" transform="translate(0,0)"/>
<path d="" fill="#4B9C66" transform="translate(0,0)"/>
<path d="" fill="#489C65" transform="translate(0,0)"/>
<path d="" fill="#4A9A64" transform="translate(0,0)"/>
<path d="" fill="#449E65" transform="translate(0,0)"/>
<path d="" fill="#469E66" transform="translate(0,0)"/>
<path d="" fill="#469965" transform="translate(0,0)"/>
<path d="" fill="#449D64" transform="translate(0,0)"/>
<path d="" fill="#479D65" transform="translate(0,0)"/>
<path d="" fill="#459E64" transform="translate(0,0)"/>
<path d="" fill="#449C62" transform="translate(0,0)"/>
<path d="" fill="#469B65" transform="translate(0,0)"/>
<path d="" fill="#48A267" transform="translate(0,0)"/>
<path d="" fill="#4E9A68" transform="translate(0,0)"/>
<path d="" fill="#4F9B68" transform="translate(0,0)"/>
<path d="" fill="#4A9F6A" transform="translate(0,0)"/>
<path d="" fill="#479F65" transform="translate(0,0)"/>
<path d="" fill="#4F9B69" transform="translate(0,0)"/>
<path d="" fill="#4F9C67" transform="translate(0,0)"/>
<path d="" fill="#4A9D66" transform="translate(0,0)"/>
<path d="" fill="#4E9B67" transform="translate(0,0)"/>
<path d="" fill="#489D69" transform="translate(0,0)"/>
<path d="" fill="#4B9C67" transform="translate(0,0)"/>
<path d="" fill="#519A68" transform="translate(0,0)"/>
<path d="" fill="#479A64" transform="translate(0,0)"/>
<path d="" fill="#519A68" transform="translate(0,0)"/>
<path d="" fill="#4B9D66" transform="translate(0,0)"/>
<path d="" fill="#4B9965" transform="translate(0,0)"/>
<path d="" fill="#4A9964" transform="translate(0,0)"/>
<path d="" fill="#4C9D6A" transform="translate(0,0)"/>
<path d="" fill="#499B66" transform="translate(0,0)"/>
<path d="" fill="#529868" transform="translate(0,0)"/>
<path d="" fill="#529867" transform="translate(0,0)"/>
<path d="" fill="#4A9B69" transform="translate(0,0)"/>
<path d="" fill="#549768" transform="translate(0,0)"/>
<path d="" fill="#479C66" transform="translate(0,0)"/>
<path d="" fill="#549667" transform="translate(0,0)"/>
<path d="" fill="#549566" transform="translate(0,0)"/>
<path d="" fill="#4D9766" transform="translate(0,0)"/>
<path d="" fill="#4A9E67" transform="translate(0,0)"/>
<path d="" fill="#559567" transform="translate(0,0)"/>
<path d="" fill="#489966" transform="translate(0,0)"/>
<path d="" fill="#559468" transform="translate(0,0)"/>
<path d="" fill="#499B67" transform="translate(0,0)"/>
<path d="" fill="#4D9966" transform="translate(0,0)"/>
<path d="" fill="#499C68" transform="translate(0,0)"/>
<path d="" fill="#4F9966" transform="translate(0,0)"/>
<path d="" fill="#489968" transform="translate(0,0)"/>
<path d="" fill="#479966" transform="translate(0,0)"/>
<path d="" fill="#489B67" transform="translate(0,0)"/>
<path d="" fill="#439B65" transform="translate(0,0)"/>
<path d="" fill="#509867" transform="translate(0,0)"/>
<path d="" fill="#4E9866" transform="translate(0,0)"/>
<path d="" fill="#489A68" transform="translate(0,0)"/>
<path d="" fill="#479C68" transform="translate(0,0)"/>
<path d="" fill="#569266" transform="translate(0,0)"/>
<path d="" fill="#4A9C66" transform="translate(0,0)"/>
<path d="" fill="#479A68" transform="translate(0,0)"/>
<path d="" fill="#4F9566" transform="translate(0,0)"/>
<path d="" fill="#569166" transform="translate(0,0)"/>
<path d="" fill="#539366" transform="translate(0,0)"/>
</svg>
