<svg width="512" height="512" viewBox="0 0 512 512" fill="none" xmlns="http://www.w3.org/2000/svg" xmlns:xlink="http://www.w3.org/1999/xlink" class=""><rect id="_r_9_" width="508" height="508" x="2" y="2" rx="128" fill="url(#_r_a_)" stroke="#059669" stroke-width="4" stroke-opacity="100%" paint-order="stroke"></rect><clipPath id="clip"><use xlink:href="#_r_9_"></use></clipPath><defs><linearGradient id="_r_a_" gradientUnits="userSpaceOnUse" gradientTransform="rotate(270)" style="transform-origin: center center;"><stop stop-color="#035D41"></stop><stop offset="1" stop-color="#059669"></stop></linearGradient><radialGradient id="_r_b_" cx="0" cy="0" r="1" gradientUnits="userSpaceOnUse" gradientTransform="translate(256) rotate(90) scale(512)"><stop stop-color="white"></stop><stop offset="1" stop-color="white" stop-opacity="0"></stop></radialGradient></defs><svg xmlns="http://www.w3.org/2000/svg" fill="none" viewBox="0 0 16 16" width="352" height="352" x="80" y="80" alignment-baseline="middle" style="color: rgb(212, 187, 76); width: 352px; height: 352px;"><path stroke="currentColor" stroke-linecap="round" stroke-linejoin="round" stroke-width="1.5" d="M5.75 3.75h-1a1 1 0 0 0-1 1v1m2-2v-2m0 2h4.5m0 0h1a1 1 0 0 1 1 1v1m-2-2v-2m-4.5 12.5v-2m4.5 2v-2m2-6.5h2m-2 0v4.5m0 0v1a1 1 0 0 1-1 1h-6.5a1 1 0 0 1-1-1v-1m8.5 0h2m-10.5 0h-2m2 0v-4.5m0 0h-2"></path></svg></svg>