<svg width="512" height="512" viewBox="0 0 512 512" fill="none" xmlns="http://www.w3.org/2000/svg" xmlns:xlink="http://www.w3.org/1999/xlink" class=""><rect id="_r_9_" width="508" height="508" x="2" y="2" rx="128" fill="url(#_r_a_)" stroke="#059669" stroke-width="4" stroke-opacity="100%" paint-order="stroke"></rect><clipPath id="clip"><use xlink:href="#_r_9_"></use></clipPath><defs><linearGradient id="_r_a_" gradientUnits="userSpaceOnUse" gradientTransform="rotate(270)" style="transform-origin: center center;"><stop stop-color="#035D41"></stop><stop offset="1" stop-color="#059669"></stop></linearGradient><radialGradient id="_r_b_" cx="0" cy="0" r="1" gradientUnits="userSpaceOnUse" gradientTransform="translate(256) rotate(90) scale(512)"><stop stop-color="white"></stop><stop offset="1" stop-color="white" stop-opacity="0"></stop></radialGradient></defs><svg xmlns="http://www.w3.org/2000/svg" fill="none" viewBox="0 0 16 16" width="352" height="352" x="80" y="80" alignment-baseline="middle" style="color: rgb(212, 187, 76); width: 352px; height: 352px;"><path fill="currentColor" fill-rule="evenodd" d="M5.586 3.782a1.252 1.252 0 0 1 0-1.563.75.75 0 1 0-1.172-.937 2.752 2.752 0 0 0 0 3.437.75.75 0 1 0 1.172-.937ZM1.75 6a.75.75 0 0 0-.75.75V9.5A5.5 5.5 0 0 0 11.793 11h.707a2.5 2.5 0 1 0 0-5H1.75ZM12 7.5v2h.5a1 1 0 1 0 0-2H12Zm-1.5 0h-8v2a4 4 0 1 0 8 0v-2ZM8.586 2.219a1.252 1.252 0 0 0 0 1.563.75.75 0 1 1-1.172.937 2.752 2.752 0 0 1 0-3.437.75.75 0 1 1 1.172.937Z" clip-rule="evenodd"></path></svg></svg>