<svg width="512" height="512" viewBox="0 0 512 512" fill="none" xmlns="http://www.w3.org/2000/svg" xmlns:xlink="http://www.w3.org/1999/xlink" class=""><rect id="_r_9_" width="508" height="508" x="2" y="2" rx="128" fill="url(#_r_a_)" stroke="#059669" stroke-width="4" stroke-opacity="100%" paint-order="stroke"></rect><clipPath id="clip"><use xlink:href="#_r_9_"></use></clipPath><defs><linearGradient id="_r_a_" gradientUnits="userSpaceOnUse" gradientTransform="rotate(270)" style="transform-origin: center center;"><stop stop-color="#035D41"></stop><stop offset="1" stop-color="#059669"></stop></linearGradient><radialGradient id="_r_b_" cx="0" cy="0" r="1" gradientUnits="userSpaceOnUse" gradientTransform="translate(256) rotate(90) scale(512)"><stop stop-color="white"></stop><stop offset="1" stop-color="white" stop-opacity="0"></stop></radialGradient></defs><svg xmlns="http://www.w3.org/2000/svg" fill="none" viewBox="0 0 16 16" width="352" height="352" x="80" y="80" alignment-baseline="middle" style="color: rgb(212, 187, 76); width: 352px; height: 352px;"><path stroke="currentColor" stroke-linecap="round" stroke-width="1.5" d="M6.25 3.75 4.354 1.896a.5.5 0 0 0-.704.004L1.9 3.65a.5.5 0 0 0-.004.704L3.75 6.25M8.5 6l-6.544 6.076a.6.6 0 0 0-.016.864l1.12 1.12a.6.6 0 0 0 .864-.016L10 7.5m.5 3 2 2m0 0 1.625 1.625M12.5 12.5l.394.789c.07.139.17.26.295.353l.804.603a.01.01 0 0 0 .013-.001l.119-.119M12.5 12.5l.789.394c.139.07.26.17.353.295l.603.804a.01.01 0 0 1-.001.013l-.119.119m-.957-7.527L14.1 5.48a.684.684 0 0 0-.042-.922.114.114 0 0 0-.131-.021l-.821.41a.5.5 0 0 1-.224.053H12a1 1 0 0 1-1-1v-.882a.5.5 0 0 1 .053-.224l.41-.82a.114.114 0 0 0-.021-.132.684.684 0 0 0-.922-.042l-1.118.932a2.674 2.674 0 1 0 3.767 3.766Z"></path></svg></svg>