<?xml version="1.0" encoding="UTF-8"?>
<svg version="1.1" xmlns="http://www.w3.org/2000/svg" width="824" height="302">
<path d="M0 0 C12.81179637 -0.08308766 25.6209559 -0.06963893 38.43261719 0.02746582 C41.98566141 0.05245902 45.53871007 0.07048583 49.09179688 0.08837891 C55.66476368 0.12441333 62.23718295 0.18468815 68.80981445 0.25982666 C71.3460525 0.28636087 73.88236221 0.30687703 76.41870117 0.32073975 C102.68419724 0.47973505 124.02707085 4.37771677 143.67773438 23.05029297 C159.62951993 39.54886104 165.46003976 57.84311361 166.23242188 80.42138672 C166.27446747 81.61581894 166.31651306 82.81025116 166.35983276 84.0408783 C166.75504851 96.06619751 166.83417013 108.08197468 166.80273438 120.11279297 C166.8005188 121.25798401 166.79830322 122.40317505 166.79602051 123.58306885 C166.78053895 130.59299802 166.75133742 137.60278141 166.71218872 144.61261749 C166.69162952 148.31239648 166.67327337 152.01216678 166.65881348 155.7119751 C166.62313395 164.81233081 166.57290489 173.91231738 166.49061775 183.01238346 C166.45379839 187.09576258 166.42268048 191.17896055 166.4072876 195.26248169 C166.29298229 222.9728234 164.9233785 248.0890058 145.67773438 270.05029297 C145.01773437 270.05029297 144.35773438 270.05029297 143.67773438 270.05029297 C143.443125 270.63294922 143.20851563 271.21560547 142.96679688 271.81591797 C136.97361425 282.20410118 118.61850099 289.14645631 107.67773438 292.48779297 C99.8446024 294.15692483 92.10692689 294.43639029 84.11889648 294.63745117 C82.69852239 294.67728905 81.2781501 294.71719116 79.8577795 294.75715351 C65.48450588 295.14284652 51.11043129 295.21480932 36.73253751 295.21755004 C34.57470475 295.21827668 32.41687782 295.22043951 30.25904655 295.22304726 C22.6791228 295.23217949 15.09921619 295.23639576 7.51928711 295.2355957 C0.52865966 295.23499095 -6.46189165 295.24565142 -13.45249981 295.26133937 C-19.53659111 295.27449203 -25.62065762 295.27977672 -31.704763 295.27914029 C-35.30370098 295.27888854 -38.90257008 295.28156029 -42.50149345 295.29231834 C-73.62362943 295.37876043 -102.83704506 294.17069458 -126.32226562 271.05029297 C-126.65226562 270.06029297 -126.98226562 269.07029297 -127.32226562 268.05029297 C-127.98226562 268.05029297 -128.64226562 268.05029297 -129.32226562 268.05029297 C-130.84718765 266.18683825 -132.21846587 264.34636489 -133.57226562 262.36279297 C-133.97268066 261.77699463 -134.3730957 261.19119629 -134.78564453 260.58764648 C-141.11027715 251.09054159 -145.02888141 241.21545298 -147.32226562 230.05029297 C-147.98226562 230.05029297 -148.64226562 230.05029297 -149.32226562 230.05029297 C-149.32226562 229.39029297 -149.32226562 228.73029297 -149.32226562 228.05029297 C-148.66226563 228.05029297 -148.00226563 228.05029297 -147.32226562 228.05029297 C-147.34105774 226.62855774 -147.34105774 226.62855774 -147.36022949 225.17810059 C-148.42237269 144.47360916 -148.42237269 144.47360916 -148.49951172 108.76855469 C-148.50530588 106.11207352 -148.51644108 103.45578738 -148.53027344 100.79931641 C-148.67555638 70.89397049 -147.38061678 44.87847423 -125.49023438 22.14794922 C-108.70477326 6.56397374 -87.9549172 0.63617453 -65.58789062 0.53857422 C-64.08195636 0.52153356 -62.57603542 0.50327838 -61.07012939 0.48390198 C-57.06619643 0.43609969 -53.06232495 0.40610415 -49.05819702 0.38033295 C-45.70854967 0.35669885 -42.35903386 0.32299335 -39.00947571 0.28922272 C-29.16139639 0.19003288 -19.31327493 0.12069428 -9.46487427 0.06319427 C-6.30990192 0.04419722 -3.1549534 0.02189255 0 0 Z M13.67773438 58.05029297 C12.48083984 58.68064453 12.48083984 58.68064453 11.25976562 59.32373047 C2.53454381 64.22067667 -4.3161287 70.99455508 -11.32226562 78.05029297 C-11.17789063 76.98810547 -11.03351563 75.92591797 -10.88476562 74.83154297 C-10.69699616 73.40449506 -10.50951143 71.97740968 -10.32226562 70.55029297 C-10.226875 69.85419922 -10.13148438 69.15810547 -10.03320312 68.44091797 C-9.40594186 63.60204537 -8.98296677 58.92771405 -9.32226562 54.05029297 C-12.64989454 51.8318737 -13.6811631 51.80150189 -17.55639648 51.80737305 C-18.62437973 51.80429642 -19.69236298 51.80121979 -20.79270935 51.79804993 C-21.94586136 51.80523544 -23.09901337 51.81242096 -24.28710938 51.81982422 C-25.47196426 51.82028244 -26.65681915 51.82074066 -27.87757874 51.82121277 C-30.38511149 51.82423587 -32.89264236 51.83212386 -35.40014648 51.84448242 C-39.2407903 51.86270295 -43.08119254 51.86499234 -46.921875 51.86474609 C-49.35612188 51.86966271 -51.79036712 51.87549166 -54.22460938 51.88232422 C-55.95130104 51.88399345 -55.95130104 51.88399345 -57.71287537 51.88569641 C-59.31957848 51.89526619 -59.31957848 51.89526619 -60.95874023 51.9050293 C-61.90011337 51.90884109 -62.84148651 51.91265289 -63.81138611 51.9165802 C-66.154519 52.0413599 -68.11320415 52.26257606 -70.32226562 53.05029297 C-71.96224293 56.33024757 -71.87160188 59.99982398 -72.18261719 63.61254883 C-72.26260452 64.50428205 -72.34259186 65.39601526 -72.42500305 66.3147707 C-72.69155253 69.29789158 -72.95223396 72.2814956 -73.21289062 75.26513672 C-73.39947013 77.36760341 -73.58638641 79.47004024 -73.77362061 81.57244873 C-74.27466434 87.21119741 -74.7704865 92.85039371 -75.26507568 98.48971176 C-75.6732294 103.13750345 -76.08410565 107.78505282 -76.49495697 112.4326067 C-77.77995312 126.97103084 -79.05370272 141.51042659 -80.32226562 156.05029297 C-80.40169403 156.96011932 -80.48112244 157.86994568 -80.56295776 158.80734253 C-81.49194354 169.45004753 -82.41234548 180.09343896 -83.32226562 190.73779297 C-83.47145447 192.47100296 -83.47145447 192.47100296 -83.62365723 194.23922729 C-84.14274597 200.28575728 -84.64622115 206.33298167 -85.11376953 212.38372803 C-85.25412254 214.17877557 -85.39973018 215.97341914 -85.55029297 217.76763916 C-85.7609654 220.30495136 -85.95088335 222.84294924 -86.13476562 225.38232422 C-86.23265381 226.49337776 -86.23265381 226.49337776 -86.33251953 227.62687683 C-86.63820347 231.38826508 -86.63820347 231.38826508 -85.17103577 234.73899841 C-82.58303811 236.57461181 -80.75510803 236.41785612 -77.59741211 236.40673828 C-75.83559853 236.41123993 -75.83559853 236.41123993 -74.03819275 236.41583252 C-72.76939774 236.40348572 -71.50060272 236.39113892 -70.19335938 236.37841797 C-68.89278091 236.3765448 -67.59220245 236.37467163 -66.25221252 236.3727417 C-63.50077886 236.36814109 -60.74963829 236.35372402 -57.99829102 236.33154297 C-54.46849347 236.3032329 -50.93892644 236.2923284 -47.40902615 236.28786087 C-44.04543488 236.2827095 -40.68192314 236.26817038 -37.31835938 236.25341797 C-36.04754013 236.24916809 -34.77672089 236.24491821 -33.46739197 236.24053955 C-32.29600174 236.23093201 -31.12461151 236.22132446 -29.91772461 236.21142578 C-28.88308578 236.20459778 -27.84844696 236.19776978 -26.78245544 236.19073486 C-24.31753392 236.21272319 -24.31753392 236.21272319 -22.32226562 235.05029297 C-21.68084831 232.2823106 -21.68084831 232.2823106 -21.31225586 228.83374023 C-21.18971388 227.83919374 -21.18971388 227.83919374 -21.06469631 226.8245554 C-20.06646139 218.39896048 -19.39864366 209.93999488 -18.72093391 201.48383904 C-18.47649537 198.44137099 -18.22626363 195.39942711 -17.97447205 192.3575592 C-17.26016376 183.72025114 -16.55310166 175.0823735 -15.85668945 166.44360352 C-15.42778747 161.12827273 -14.98986639 155.81374609 -14.54647636 150.49960518 C-14.3808545 148.49350065 -14.21857222 146.48711717 -14.05989265 144.48045158 C-11.240471 108.86165243 -11.240471 108.86165243 -1.14257812 100.17529297 C7.75766698 93.94212468 17.18195059 92.28859827 27.86132812 93.49169922 C33.31339334 94.57303809 38.49879703 96.45631994 42.15429688 100.80810547 C46.78347513 109.03405532 45.7826581 119.02051367 44.96508789 128.06445312 C44.87745178 129.11620224 44.78981567 130.16795135 44.69952393 131.25157166 C44.41032714 134.69827221 44.1084405 138.1437377 43.80664062 141.58935547 C43.60253783 143.99962968 43.3993407 146.40998075 43.19700623 148.82040405 C42.66392653 155.1472496 42.1205286 161.4731633 41.57434082 167.79888916 C40.70120203 177.92930893 39.84295238 188.06099561 38.98631096 198.1928215 C38.68624079 201.72274077 38.38125897 205.25220957 38.07557678 208.78164673 C37.89018814 210.95272807 37.70491488 213.12381927 37.51977539 215.29492188 C37.4340477 216.26967972 37.34832001 217.24443756 37.25999451 218.24873352 C36.00103871 227.37400802 36.00103871 227.37400802 37.67773438 236.05029297 C45.18815131 236.09662212 52.69855344 236.13216511 60.2090807 236.15391731 C63.69648598 236.16435701 67.18379354 236.17851946 70.67114258 236.20117188 C74.67985984 236.22704809 78.68847435 236.2367642 82.69726562 236.24560547 C83.95046097 236.25592804 85.20365631 236.26625061 86.49482727 236.27688599 C87.65580429 236.27703705 88.81678131 236.27718811 90.01293945 236.27734375 C91.54849236 236.28400558 91.54849236 236.28400558 93.11506653 236.290802 C95.91909072 236.23210209 95.91909072 236.23210209 98.67773438 234.05029297 C99.62617048 231.20498466 99.93917634 228.97564671 100.17762756 226.00460815 C100.26314377 224.96172134 100.34865997 223.91883453 100.43676758 222.84434509 C100.57163574 221.12846947 100.57163574 221.12846947 100.70922852 219.37792969 C100.85575111 217.57016304 100.85575111 217.57016304 101.00523376 215.72587585 C101.27247631 212.41791858 101.53630958 209.10972437 101.79841924 205.8013587 C102.07373148 202.33403355 102.35276185 198.86700729 102.63121033 195.39993286 C103.09872263 189.57103461 103.56307446 183.74189082 104.02563477 177.91259766 C104.55915398 171.18963342 105.09792455 164.4671056 105.63949114 157.74478519 C106.16122205 151.26682483 106.67889398 144.78854588 107.19485283 138.31012344 C107.41397935 135.55985657 107.6345566 132.80971188 107.85634041 130.05965805 C108.16689676 126.20643687 108.471539 122.35276011 108.77563477 118.49902344 C108.86757111 117.36725174 108.95950745 116.23548004 109.05422974 115.06941223 C110.45295205 97.14391234 109.58633784 81.47684743 98.01757812 66.96826172 C88.59089587 56.73930863 74.43086851 51.64014241 60.74023438 50.88916016 C36.42946015 50.35257536 36.42946015 50.35257536 13.67773438 58.05029297 Z " fill="#369758" transform="translate(160.322265625,5.94970703125)"/>
<path d="M0 0 C0.66 0 1.32 0 2 0 C2.93745479 5.52417129 3.1320925 10.83694707 3.09765625 16.43359375 C3.0962413 17.31153091 3.09482635 18.18946808 3.09336853 19.0940094 C3.08780821 21.87520882 3.07526321 24.65632526 3.0625 27.4375 C3.05747987 29.33268112 3.05291786 31.22786352 3.04882812 33.12304688 C3.0378518 37.74872948 3.02061482 42.37435071 3 47 C3.99 46.67 4.98 46.34 6 46 C6 45.34 6 44.68 6 44 C18.25052645 39.14203262 31.65903124 37.92742247 44.15234375 42.84765625 C48.61638026 44.90094679 51.75014545 47.25016782 55 51 C55.55558594 51.62648437 56.11117187 52.25296875 56.68359375 52.8984375 C67.79152478 66.13240264 68.88997513 80.46294354 68 97 C66.50791225 109.35398076 61.17389195 121.1449953 51.375 129.0625 C42.49669398 135.513404 32.79969229 137.76651808 22 137 C14.84247168 135.80267669 8.26583871 134.26583871 3 129 C2.34 130.98 1.68 132.96 1 135 C-8.57 135 -18.14 135 -28 135 C-28 91.77 -28 48.54 -28 4 C-28.66 3.67 -29.32 3.34 -30 3 C-26.57320055 1.28660027 -22.72002407 1.57030117 -18.9375 1.375 C-17.70483398 1.29765625 -17.70483398 1.29765625 -16.44726562 1.21875 C-10.83120482 0.91828412 -5.57426902 1.24778243 0 2 C0 1.34 0 0.68 0 0 Z M3 69 C1.45066693 74.85281646 1.77685622 80.90972777 1.75976562 86.91992188 C1.75002867 88.9938929 1.71895009 91.06688466 1.6875 93.140625 C1.68234375 94.45546875 1.6771875 95.7703125 1.671875 97.125 C1.6625293 98.32382813 1.65318359 99.52265625 1.64355469 100.7578125 C2.03483802 104.31688283 2.86941481 106.1541196 5 109 C10.35558463 112.84503512 15.4614364 113.67344756 22 113 C28.5228957 110.89940647 32.35139341 107.88506153 35.75 101.9375 C38.9882067 93.40713835 38.60172063 83.63043886 36 75 C33.21148977 69.71144611 29.75083926 65.91694642 24 64 C16.41026545 63.27321283 8.44819904 62.8019084 3 69 Z " fill="#379858" transform="translate(503,62)"/>
<path d="M0 0 C9.86522501 8.31372078 16.07365822 18.80667185 17.390625 31.765625 C17.64764264 36.87170885 17.57792482 41.9833409 17.5078125 47.09375 C13.84991171 47.93817194 10.4900806 48.21113685 6.73950195 48.19140625 C5.60515213 48.18810303 4.47080231 48.1847998 3.30207825 48.18139648 C2.08735336 48.17309814 0.87262848 48.1647998 -0.37890625 48.15625 C-1.63226273 48.15246338 -2.8856192 48.14867676 -4.17695618 48.14477539 C-8.17790244 48.13256157 -12.17877688 48.11412246 -16.1796875 48.09375 C-21.4544221 48.0669683 -26.72912472 48.04722267 -32.00390625 48.03125 C-33.22470383 48.02295166 -34.4455014 48.01465332 -35.70329285 48.00610352 C-36.82818619 48.00280029 -37.95307953 47.99949707 -39.11206055 47.99609375 C-40.10513718 47.99085693 -41.09821381 47.98562012 -42.12138367 47.98022461 C-44.51061544 47.93466341 -44.51061544 47.93466341 -46.4921875 49.09375 C-46.4921875 48.43375 -46.4921875 47.77375 -46.4921875 47.09375 C-47.4821875 47.42375 -48.4721875 47.75375 -49.4921875 48.09375 C-48.89762185 54.3366893 -46.63927351 58.11182445 -42.0546875 62.34375 C-32.93766511 66.82228732 -23.14305413 66.75279997 -13.4921875 64.09375 C-9.26296441 62.57276992 -5.4527479 60.67843894 -1.6171875 58.34375 C0.5078125 57.09375 0.5078125 57.09375 3.5078125 57.09375 C5.15625 58.66796875 5.15625 58.66796875 6.8828125 60.78125 C9.62778351 64.06239369 12.43815545 67.11711286 15.5078125 70.09375 C12.7515925 76.99944406 4.18172702 81.27443986 -2.359375 84.25 C-16.95205526 90.02292846 -37.76560051 91.13484219 -52.4921875 85.09375 C-63.90662658 80.04686991 -73.3136643 72.67481097 -78.4921875 61.09375 C-81.11223181 54.11403999 -82.01284674 47.7125433 -81.9296875 40.28125 C-81.92138916 39.31856201 -81.91309082 38.35587402 -81.90454102 37.36401367 C-81.61564782 25.13899967 -78.33209723 14.65721965 -70.4921875 5.09375 C-67.64403664 2.50239963 -64.64370628 0.29532014 -61.4921875 -1.90625 C-60.8321875 -2.56625 -60.1721875 -3.22625 -59.4921875 -3.90625 C-57.62115727 -4.65863697 -55.71975457 -5.3368019 -53.8046875 -5.96875 C-52.28294922 -6.48115234 -52.28294922 -6.48115234 -50.73046875 -7.00390625 C-34.58545463 -11.50269788 -13.62846742 -10.42428229 0 0 Z M-44.7421875 15.34375 C-48.20634374 18.80790624 -50.43154696 21.77593362 -50.5625 26.78125 C-50.53929687 27.544375 -50.51609375 28.3075 -50.4921875 29.09375 C-45.5625851 29.11846455 -40.63301876 29.13661691 -35.70336914 29.14868164 C-34.02627942 29.15371113 -32.34919408 29.16053548 -30.67211914 29.16918945 C-28.2618705 29.18131559 -25.85167982 29.18699215 -23.44140625 29.19140625 C-22.69130783 29.19656754 -21.94120941 29.20172882 -21.16838074 29.20704651 C-18.00267518 29.20738785 -15.51880778 29.10262343 -12.4921875 28.09375 C-12.82756444 21.60979586 -13.7582295 18.61252809 -18.4921875 14.09375 C-27.11387675 9.9703334 -36.81302048 9.85432668 -44.7421875 15.34375 Z " fill="#369858" transform="translate(443.4921875,110.90625)"/>
<path d="M0 0 C10.1295742 9.50061371 12.15719345 20.42125649 12.61062622 33.87304688 C12.73119936 41.49616235 12.65282524 49.11894625 12.578125 56.7421875 C12.5504359 60.16672683 12.52578055 63.59122363 12.50694275 67.01582336 C12.49474939 69.13157535 12.47720909 71.2473051 12.45362854 73.36296082 C12.44709763 74.31528091 12.44056671 75.26760101 12.43383789 76.2487793 C12.42145836 77.49995796 12.42145836 77.49995796 12.40882874 78.77641296 C12.4275397 81.06661764 12.4275397 81.06661764 13.14573669 83.23005676 C13.26779984 83.83218491 13.38986298 84.43431305 13.515625 85.0546875 C11.515625 87.0546875 11.515625 87.0546875 9.02539062 87.29760742 C7.48915039 87.29144409 7.48915039 87.29144409 5.921875 87.28515625 C4.80941406 87.28322266 3.69695312 87.28128906 2.55078125 87.27929688 C1.38417969 87.26705078 0.21757813 87.25480469 -0.984375 87.2421875 C-2.73427734 87.2412207 -2.73427734 87.2412207 -4.51953125 87.24023438 C-13.2038477 87.19495115 -13.2038477 87.19495115 -15.484375 86.0546875 C-16.109375 82.9921875 -16.109375 82.9921875 -16.484375 80.0546875 C-17.433125 80.8178125 -18.381875 81.5809375 -19.359375 82.3671875 C-29.19390164 89.28270125 -42.67568613 90.10532703 -54.296875 88.4921875 C-61.99000009 86.75207587 -68.33120563 83.18677074 -72.984375 76.7421875 C-77.59455389 68.87083093 -78.01486436 62.14411399 -76.3671875 53.20703125 C-74.33721851 45.95842516 -69.97576539 40.54599303 -63.7890625 36.33203125 C-49.69828731 28.52239822 -32.20342733 28.79394986 -16.484375 28.0546875 C-17.43371399 24.70035641 -18.38186335 21.36222245 -19.484375 18.0546875 C-28.81036467 14.07188347 -38.89226589 13.98694089 -48.484375 17.0546875 C-53.30865319 19.41277306 -57.47313807 21.53783211 -60.484375 26.0546875 C-61.804375 25.7246875 -63.124375 25.3946875 -64.484375 25.0546875 C-64.484375 24.0646875 -64.484375 23.0746875 -64.484375 22.0546875 C-65.144375 21.3946875 -65.804375 20.7346875 -66.484375 20.0546875 C-67.4602352 18.33066782 -68.43512637 16.60606286 -69.3984375 14.875 C-70.8693626 12.40934858 -72.62978584 10.24045329 -74.484375 8.0546875 C-66.44918774 -1.41535463 -54.2793235 -6.32058904 -42.171875 -7.6328125 C-28.10088886 -8.58543215 -11.71446156 -9.17264443 0 0 Z M-45.484375 51.0546875 C-48.17676459 55.09327188 -48.25797747 58.31325298 -47.484375 63.0546875 C-45.46840796 66.28023476 -43.95802377 67.63737103 -40.27734375 68.6796875 C-33.94465072 69.63707101 -28.29199863 68.74703167 -22.484375 66.0546875 C-19.20302048 63.38858695 -17.05287321 60.9620525 -15.484375 57.0546875 C-15.24364306 54.23383022 -15.24364306 54.23383022 -15.359375 51.3046875 C-15.37742187 50.31984375 -15.39546875 49.335 -15.4140625 48.3203125 C-15.43726563 47.57265625 -15.46046875 46.825 -15.484375 46.0546875 C-31.1241035 45.56310855 -31.1241035 45.56310855 -45.484375 51.0546875 Z " fill="#369857" transform="translate(793.484375,109.9453125)"/>
<path d="M0 0 C0.495 0.99 0.495 0.99 1 2 C10.24 2 19.48 2 29 2 C29.15299011 13.97798093 29.30175019 25.95599355 29.4429636 37.93411922 C29.50869859 43.49542336 29.57632261 49.05669142 29.64819336 54.61791992 C29.71742242 59.98002645 29.78178143 65.34217091 29.84269524 70.70437813 C29.86685948 72.75502221 29.89280928 74.80564601 29.92053413 76.85624504 C29.95892566 79.71785177 29.99109378 82.57946336 30.02172852 85.44116211 C30.03467453 86.29783478 30.04762054 87.15450745 30.06095886 88.03713989 C30.07900194 90.0247819 30.04526206 92.0127915 30 94 C27.23291906 96.76708094 18.91286232 95.28498625 15.1875 95.3125 C13.24133789 95.35600586 13.24133789 95.35600586 11.25585938 95.40039062 C10.00998047 95.40876953 8.76410156 95.41714844 7.48046875 95.42578125 C6.33473389 95.44036377 5.18899902 95.45494629 4.00854492 95.4699707 C0.40352756 94.90682387 -0.74445537 93.79068839 -3 91 C-2.67 90.67 -2.34 90.34 -2 90 C-2.72445312 90.42152344 -3.44890625 90.84304687 -4.1953125 91.27734375 C-5.16210938 91.82519531 -6.12890625 92.37304688 -7.125 92.9375 C-8.07632813 93.48277344 -9.02765625 94.02804688 -10.0078125 94.58984375 C-19.03598138 98.84463352 -30.56975042 98.01894121 -39.78125 94.75390625 C-42.03549285 93.90704024 -42.03549285 93.90704024 -44.65625 93.65234375 C-47 93 -47 93 -48.12890625 91.171875 C-48.41636719 90.45515625 -48.70382812 89.7384375 -49 89 C-49.95611551 87.73228138 -50.93659712 86.4826641 -51.9375 85.25 C-60.2309659 74.26621467 -59.13112897 61.19312684 -59 48 C-58.92552541 34.42785242 -59.29371626 20.90308824 -59.90820312 7.34301758 C-59.97793779 5.56311442 -60 3.7812687 -60 2 C-56.58403845 0.86134615 -54.17537791 0.97475837 -50.58203125 1.12109375 C-48.70161133 1.19360352 -48.70161133 1.19360352 -46.78320312 1.26757812 C-45.47287109 1.32365234 -44.16253906 1.37972656 -42.8125 1.4375 C-41.4772337 1.49074235 -40.14194728 1.5434826 -38.80664062 1.59570312 C-35.53752856 1.72552346 -32.26871081 1.86049536 -29 2 C-28.98786972 3.08541832 -28.98786972 3.08541832 -28.97549438 4.19276428 C-28.89734408 11.03373328 -28.80999264 17.87453059 -28.71247292 24.71524906 C-28.66266478 28.23159451 -28.61633438 31.74791217 -28.578125 35.2644043 C-28.53397607 39.31317507 -28.47438977 43.36159398 -28.4140625 47.41015625 C-28.40251129 48.66458023 -28.39096008 49.91900421 -28.37905884 51.21144104 C-28.47019736 61.08455195 -28.47019736 61.08455195 -24.5625 69.875 C-20.54292051 72.76909724 -15.72211748 72.44395976 -11 72 C-6.16566468 70.29903017 -4.2350865 68.5554868 -2 64 C-1.53935125 61.01017196 -1.53935125 61.01017196 -1.58349609 57.77270508 C-1.56692963 56.5382515 -1.55036316 55.30379791 -1.53329468 54.03193665 C-1.529842 52.6944686 -1.52656032 51.35700011 -1.5234375 50.01953125 C-1.50911907 48.6413979 -1.49336053 47.26327883 -1.47622681 45.88517761 C-1.43446416 42.26761705 -1.40940568 38.65014505 -1.38873291 35.03240967 C-1.3528475 29.23157321 -1.29197127 23.43095493 -1.23024368 17.6303463 C-1.21114431 15.60397267 -1.19942329 13.57765757 -1.18881226 11.55122375 C-1.17855011 10.32622665 -1.16828796 9.10122955 -1.15771484 7.83911133 C-1.15121918 6.75721024 -1.14472351 5.67530914 -1.13803101 4.56062317 C-1 2 -1 2 0 0 Z M0 91 C1 93 1 93 1 93 Z " fill="#379958" transform="translate(637,102)"/>
<path d="M0 0 C0.33 0.66 0.66 1.32 1 2 C4.72943822 1.86064456 8.45847096 1.71237699 12.1875 1.5625 C13.24259766 1.52318359 14.29769531 1.48386719 15.38476562 1.44335938 C16.40634766 1.40146484 17.42792969 1.35957031 18.48046875 1.31640625 C19.41785889 1.27974854 20.35524902 1.24309082 21.32104492 1.20532227 C24.40824556 1.02287791 24.40824556 1.02287791 29 0 C29.33 44.88 29.66 89.76 30 136 C20.1 135.67 10.2 135.34 0 135 C-0.84996723 131.60013107 -1.12557292 129.20777282 -1.12698364 125.7691803 C-1.13121338 124.1814959 -1.13121338 124.1814959 -1.13552856 122.56173706 C-1.13350433 121.40578033 -1.1314801 120.24982361 -1.12939453 119.05883789 C-1.13114685 117.83733536 -1.13289917 116.61583282 -1.13470459 115.35731506 C-1.13835178 112.01019376 -1.13749653 108.66313427 -1.1343255 105.31601644 C-1.13179219 101.8109728 -1.13414221 98.3059318 -1.13571167 94.80088806 C-1.13753076 88.91388475 -1.13513412 83.02689398 -1.13037109 77.13989258 C-1.1249315 70.33822055 -1.12668998 63.53657851 -1.1321975 56.73490721 C-1.13673905 50.89190669 -1.13737399 45.04891519 -1.13475883 39.20591348 C-1.13320147 35.71762916 -1.13298742 32.22935893 -1.13629532 28.74107552 C-1.13972663 24.85089075 -1.13496724 20.96073942 -1.12939453 17.07055664 C-1.13141876 15.91662415 -1.13344299 14.76269165 -1.13552856 13.5737915 C-1.13270874 12.51251541 -1.12988892 11.45123932 -1.12698364 10.35780334 C-1.12660662 9.43844026 -1.12622959 8.51907717 -1.12584114 7.57185459 C-0.997962 4.95834884 -0.57916737 2.54840444 0 0 Z " fill="#349354" transform="translate(677,62)"/>
<path d="M0 0 C1 3 1 3 0.03125 5.3828125 C-3.44318402 11.60488566 -7.04001416 17.82269519 -12 23 C-12.66 23 -13.32 23 -14 23 C-14.23460937 23.58265625 -14.46921875 24.1653125 -14.7109375 24.765625 C-20.70412012 35.15380822 -39.05923339 42.09616334 -50 45.4375 C-57.83313198 47.10663186 -65.57080748 47.38609732 -73.55883789 47.5871582 C-74.97921198 47.62699608 -76.39958428 47.66689819 -77.81995487 47.70686054 C-92.1932285 48.09255355 -106.56730308 48.16451635 -120.94519687 48.16725707 C-123.10302962 48.16798371 -125.26085656 48.17014654 -127.41868782 48.17275429 C-134.99861158 48.18188653 -142.57851818 48.18610279 -150.15844727 48.18530273 C-157.14907471 48.18469798 -164.13962603 48.19535845 -171.13023418 48.2110464 C-177.21432548 48.22419906 -183.298392 48.22948375 -189.38249737 48.22884732 C-192.98143535 48.22859557 -196.58030446 48.23126732 -200.17922783 48.24202538 C-232.69772732 48.33238044 -232.69772732 48.33238044 -243 46 C-243.33 45.34 -243.66 44.68 -244 44 C-242.57511843 44.00553076 -242.57511843 44.00553076 -241.12145138 44.01117325 C-217.95829369 44.10015442 -194.79515828 44.16578962 -171.6318655 44.20724869 C-160.43005214 44.22783327 -149.228352 44.25587511 -138.02661133 44.30175781 C-128.25790342 44.34175153 -118.48927755 44.36746261 -108.72049004 44.37635398 C-103.55275278 44.38154756 -98.38525014 44.39366807 -93.21758842 44.42292023 C-88.34286756 44.45028778 -83.46847555 44.45840232 -78.59368515 44.45243073 C-76.81486658 44.45352149 -75.03603576 44.46134723 -73.25728416 44.4768219 C-52.18329453 44.6510004 -33.99628854 39.46086818 -18 25 C-17.29230469 24.37351562 -16.58460938 23.74703125 -15.85546875 23.1015625 C-8.92452587 16.60794489 -3.95060314 8.59837154 0 0 Z " fill="#247037" transform="translate(318,253)"/>
<path d="M0 0 C0.33 0.66 0.66 1.32 1 2 C10.24 2 19.48 2 29 2 C29.33 32.36 29.66 62.72 30 94 C20.76 94 11.52 94 2 94 C2.495 93.01 2.495 93.01 3 92 C10.92 92 18.84 92 27 92 C26.67 63.29 26.34 34.58 26 5 C17.75 5 9.5 5 1 5 C1.01571045 6.75586426 1.0314209 8.51172852 1.04760742 10.32080078 C1.0960735 16.13617613 1.13049545 21.95154452 1.15543652 27.76706123 C1.17106162 31.29143732 1.19224144 34.81559394 1.22631836 38.33984375 C1.26528952 42.39585421 1.27973523 46.4516358 1.29296875 50.5078125 C1.30845261 51.76739777 1.32393646 53.02698303 1.33988953 54.32473755 C1.34022942 56.09589432 1.34022942 56.09589432 1.34057617 57.90283203 C1.34723801 58.93763702 1.35389984 59.97244202 1.36076355 61.03860474 C0.81902669 65.48555337 -0.74104031 68.85549119 -4.0625 71.875 C-6 73 -6 73 -8 73 C-8 72.34 -8 71.68 -8 71 C-7.195625 70.360625 -6.39125 69.72125 -5.5625 69.0625 C-2.76279268 67.18964068 -2.76279268 67.18964068 -2 64 C-1.88794561 62.00206171 -1.83357189 60.00070149 -1.81054688 57.99975586 C-1.79382935 56.76515121 -1.77711182 55.53054657 -1.7598877 54.25852966 C-1.75320572 53.59960661 -1.74652374 52.94068356 -1.73963928 52.26179314 C-1.71858238 50.19841825 -1.69156375 48.13519791 -1.66296387 46.07191467 C-1.59318946 40.94912417 -1.53369717 35.82622347 -1.47393799 30.70330811 C-1.42302913 26.37154598 -1.36821777 22.03986804 -1.30812073 17.70822334 C-1.28152018 15.6730155 -1.26072417 13.63779985 -1.2401123 11.6025238 C-1.22339478 10.37107132 -1.20667725 9.13961884 -1.18945312 7.87084961 C-1.17692505 6.78291611 -1.16439697 5.6949826 -1.15148926 4.57408142 C-1 2 -1 2 0 0 Z " fill="#247137" transform="translate(637,102)"/>
<path d="M0 0 C1.50433594 0.01353516 1.50433594 0.01353516 3.0390625 0.02734375 C3.80992187 0.03894531 4.58078125 0.05054688 5.375 0.0625 C5.375 0.3925 5.375 0.7225 5.375 1.0625 C2.405 1.0625 -0.565 1.0625 -3.625 1.0625 C-3.625 43.9625 -3.625 86.8625 -3.625 131.0625 C10.34777369 131.90012585 10.34777369 131.90012585 23.375 129.0625 C23.375 130.3825 23.375 131.7025 23.375 133.0625 C13.805 133.0625 4.235 133.0625 -5.625 133.0625 C-5.625 89.8325 -5.625 46.6025 -5.625 2.0625 C-6.285 1.7325 -6.945 1.4025 -7.625 1.0625 C-4.98041621 -0.25979189 -2.94738699 -0.03427194 0 0 Z " fill="#277439" transform="translate(480.625,63.9375)"/>
<path d="M0 0 C2.56644215 2.56644215 2.29584186 3.6480746 2.40966797 7.22045898 C2.44778595 8.30263199 2.48590393 9.38480499 2.525177 10.49977112 C2.55554047 11.67418259 2.58590393 12.84859406 2.6171875 14.05859375 C2.65472137 15.27558456 2.69225525 16.49257538 2.73092651 17.7464447 C3.07764946 29.85209453 3.15267236 41.95271728 3.125 54.0625 C3.12411377 55.20170898 3.12322754 56.34091797 3.12231445 57.51464844 C3.09224878 91.34546757 2.5279211 125.17400717 2 159 C1.34 159.33 0.68 159.66 0 160 C0 107.2 0 54.4 0 0 Z " fill="#29783E" transform="translate(324,72)"/>
<path d="M0 0 C0 20.79 0 41.58 0 63 C-1.98800067 59.02399866 -2.24592807 57.5797433 -2.22705078 53.31347656 C-2.22689972 52.17259583 -2.22674866 51.03171509 -2.22659302 49.85626221 C-2.21627045 48.63010193 -2.20594788 47.40394165 -2.1953125 46.140625 C-2.1924826 44.88111023 -2.18965271 43.62159546 -2.18673706 42.32391357 C-2.17744121 38.98326098 -2.15948583 35.64288331 -2.1373291 32.30230713 C-2.11683208 28.89036472 -2.10761738 25.47839301 -2.09765625 22.06640625 C-2.07730033 15.37744964 -2.03815004 8.68897361 -2 2 C-10.58 2 -19.16 2 -28 2 C-28 23.45 -28 44.9 -28 67 C-28.33 67 -28.66 67 -29 67 C-30.30632909 60.10094948 -30.06772288 53.24907084 -30 46.25 C-29.92609865 32.59420634 -30.28992749 18.98669634 -30.90820312 5.34301758 C-30.97793779 3.56311442 -31 1.7812687 -31 0 C-21.75758569 -4.62120715 -10.32719533 -0.35611018 0 0 Z " fill="#27753B" transform="translate(608,104)"/>
<path d="M0 0 C0.33 0.66 0.66 1.32 1 2 C-16.37499215 2.03048923 -33.7499848 2.05093625 -51.125 2.0625 C-52.40217896 2.06335602 -53.67935791 2.06421204 -54.99523926 2.06509399 C-94.34059124 2.08840801 -133.66444125 1.92254055 -173 1 C-173 0.67 -173 0.34 -173 0 C-115.30240788 -1.00668034 -57.69814484 -1.16999865 0 0 Z " fill="#237038" transform="translate(260,7)"/>
<path d="M0 0 C5.16651931 2.99852269 8.52452388 8.88750679 10.18505859 14.52709961 C10.92646914 18.06258286 10.80946205 21.58752815 10.8125 25.1875 C10.82474609 25.95513672 10.83699219 26.72277344 10.84960938 27.51367188 C10.85979815 31.40917874 10.83392006 33.3116199 8.625 36.625 C8.64820313 35.74199219 8.67140625 34.85898438 8.6953125 33.94921875 C9.13089894 18.80297278 9.13089894 18.80297278 2.625 5.625 C-2.48847132 1.13134338 -7.56717292 1.28519797 -14.125 1.34375 C-18.69961621 1.73963025 -20.86744082 2.6754616 -24.375 5.625 C-26.08626634 11.37485489 -25.59833638 17.60246096 -25.61523438 23.54492188 C-25.62497133 25.6188929 -25.65604991 27.69188466 -25.6875 29.765625 C-25.69265625 31.08046875 -25.6978125 32.3953125 -25.703125 33.75 C-25.7124707 34.94882813 -25.72181641 36.14765625 -25.73144531 37.3828125 C-25.34408516 40.906198 -24.26864603 42.69121898 -22.375 45.625 C-22.705 46.285 -23.035 46.945 -23.375 47.625 C-25.82910156 46.14208984 -25.82910156 46.14208984 -28.375 43.625 C-28.9082495 40.67448064 -29.12413127 38.30455571 -29.109375 35.3515625 C-29.11890198 34.55019867 -29.12842896 33.74883484 -29.13824463 32.92318726 C-29.15039192 31.23041053 -29.14958664 29.53749796 -29.13671875 27.84472656 C-29.12506252 25.26384349 -29.17721321 22.68953987 -29.234375 20.109375 C-29.23826144 18.46094208 -29.23838433 16.81249512 -29.234375 15.1640625 C-29.25481873 14.3982486 -29.27526245 13.63243469 -29.29632568 12.84341431 C-29.22438041 9.49081104 -29.051185 7.4299348 -26.84941101 4.80892944 C-19.28444746 -1.80765495 -9.583458 -3.91463024 0 0 Z " fill="#27783D" transform="translate(531.375,125.375)"/>
<path d="M0 0 C-3.75782141 2.50521427 -7.76082658 4.38645832 -11.81835938 6.34570312 C-15.13472133 7.97386379 -18.13880505 9.6551109 -21 12 C-19.53779205 15.05034768 -17.89026449 17.90371026 -16.0625 20.75 C-15.30646484 21.94882813 -15.30646484 21.94882813 -14.53515625 23.171875 C-14.02855469 23.77515625 -13.52195312 24.3784375 -13 25 C-9.31089654 25 -7.5535684 23.85965633 -4.3125 22.125 C4.8736054 17.44361936 13.63893994 15.18146933 23.75 18.25 C28.2777336 19.9695922 31.86044691 21.54729004 34 26.15234375 C36.23264158 32.30207525 36.23264158 32.30207525 35 36 C29.06 36 23.12 36 17 36 C17 35.67 17 35.34 17 35 C22.61 35 28.22 35 34 35 C33.525625 33.576875 33.05125 32.15375 32.5625 30.6875 C31.70833333 28.125 30.85416667 25.5625 30 23 C20.67401033 19.01719597 10.59210911 18.93225339 1 22 C-3.82427819 24.35808556 -7.98876307 26.48314461 -11 31 C-12.32 30.67 -13.64 30.34 -15 30 C-15 29.01 -15 28.02 -15 27 C-15.66 26.34 -16.32 25.68 -17 25 C-17.9758602 23.27598032 -18.95075137 21.55137536 -19.9140625 19.8203125 C-21.3849876 17.35466108 -23.14541084 15.18576579 -25 13 C-18.99171341 5.91880509 -9.42451373 -0.25471659 0 0 Z " fill="#2A783D" transform="translate(744,105)"/>
<path d="M0 0 C7.51032142 -0.09265712 15.02058364 -0.16374292 22.53134632 -0.20724869 C26.01890556 -0.228129 29.50607394 -0.25645318 32.9934082 -0.30175781 C37.00215417 -0.35351062 41.01048922 -0.37294136 45.01953125 -0.390625 C46.89932426 -0.42159271 46.89932426 -0.42159271 48.8170929 -0.45318604 C49.97806992 -0.45348816 51.13904694 -0.45379028 52.33520508 -0.45410156 C53.87075798 -0.46742523 53.87075798 -0.46742523 55.43733215 -0.48101807 C58 0 58 0 59.84941101 1.79888916 C61.56950125 5.08947277 61.0688739 8.17926027 60.6875 11.75 C60.62626953 12.44738281 60.56503906 13.14476563 60.50195312 13.86328125 C60.34937092 15.57689681 60.17666411 17.2886995 60 19 C60.99 19 61.98 19 63 19 C62.8465965 21.68456134 62.56242315 23.4494618 60.60205078 25.3684082 C59.06803385 26.5789388 57.53401693 27.7894694 56 29 C56.144375 27.865625 56.28875 26.73125 56.4375 25.5625 C56.62525334 24.04169792 56.81273903 22.52086278 57 21 C57.14308594 19.88431641 57.14308594 19.88431641 57.2890625 18.74609375 C57.89227676 13.79111949 58.09075591 8.99157504 58 4 C55.4006683 2.70033415 53.45135797 2.83955838 50.54052734 2.79467773 C49.39949554 2.77473251 48.25846375 2.75478729 47.08285522 2.73423767 C45.22813095 2.70916893 45.22813095 2.70916893 43.3359375 2.68359375 C42.07359283 2.66281265 40.81124817 2.64203156 39.51065063 2.62062073 C36.15367955 2.56622074 32.79669811 2.51599764 29.43963623 2.46777344 C26.01438935 2.41754958 22.58923171 2.36186814 19.1640625 2.30664062 C12.44277939 2.19938141 5.72142956 2.0976256 -1 2 C-0.67 1.34 -0.34 0.68 0 0 Z " fill="#237036" transform="translate(92,56)"/>
<path d="M0 0 C10.0224935 1.00224935 16.21675363 5.86380423 23 13 C32.24276693 25.33012123 33.20476706 38.0747566 33 53 C29.34209921 53.84442194 25.9822681 54.11738685 22.23168945 54.09765625 C21.09733963 54.09435303 19.96298981 54.0910498 18.79426575 54.08764648 C17.57954086 54.07934814 16.36481598 54.0710498 15.11328125 54.0625 C13.85992477 54.05871338 12.6065683 54.05492676 11.31523132 54.05102539 C7.31428506 54.03881157 3.31341062 54.02037246 -0.6875 54 C-5.9622346 53.9732183 -11.23693722 53.95347267 -16.51171875 53.9375 C-17.73251633 53.92920166 -18.9533139 53.92090332 -20.21110535 53.91235352 C-21.33599869 53.90905029 -22.46089203 53.90574707 -23.61987305 53.90234375 C-24.61294968 53.89710693 -25.60602631 53.89187012 -26.62919617 53.88647461 C-29.01842794 53.84091341 -29.01842794 53.84091341 -31 55 C-31 54.34 -31 53.68 -31 53 C-32.485 53.495 -32.485 53.495 -34 54 C-34.66 53.34 -35.32 52.68 -36 52 C-13.89 52 8.22 52 31 52 C30.0258981 36.41436956 28.77828082 20.7262884 16.625 9.625 C11.6341544 5.71624039 5.90574718 3.21465519 0 1 C0 0.67 0 0.34 0 0 Z " fill="#216830" transform="translate(428,105)"/>
<path d="M0 0 C0.33 0 0.66 0 1 0 C2.36841228 11.47267082 2.07842371 22.96798032 2 34.5 C1.97338963 38.46874717 1.9534451 42.43744733 1.9375 46.40625 C1.92920166 47.31040649 1.92090332 48.21456299 1.91235352 49.14611816 C1.90905029 49.98799683 1.90574707 50.82987549 1.90234375 51.69726562 C1.89710693 52.43384399 1.89187012 53.17042236 1.88647461 53.92932129 C1.92278848 56.04035717 1.92278848 56.04035717 2.63110352 58.1439209 C2.75283936 58.756427 2.8745752 59.36893311 3 60 C1 62 1 62 -1.52197266 62.22705078 C-2.5588623 62.21657715 -3.59575195 62.20610352 -4.6640625 62.1953125 C-5.78554688 62.18886719 -6.90703125 62.18242187 -8.0625 62.17578125 C-9.238125 62.15902344 -10.41375 62.14226562 -11.625 62.125 C-13.40003906 62.11146484 -13.40003906 62.11146484 -15.2109375 62.09765625 C-18.14082523 62.07402812 -21.0703134 62.04108514 -24 62 C-24.33 59.69 -24.66 57.38 -25 55 C-24.34 56.32 -23.68 57.64 -23 59 C-15.41 59 -7.82 59 0 59 C0 39.53 0 20.06 0 0 Z " fill="#29743B" transform="translate(804,135)"/>
<path d="M0 0 C0.33 0 0.66 0 1 0 C1.33 5.28 1.66 10.56 2 16 C22.79 16.33 43.58 16.66 65 17 C62.35808772 19.64191228 61.1249137 19.26824162 57.4362793 19.30639648 C55.68887703 19.33037758 55.68887703 19.33037758 53.90617371 19.35484314 C52.64162857 19.36020584 51.37708344 19.36556854 50.07421875 19.37109375 C48.77934036 19.38012222 47.48446198 19.3891507 46.15034485 19.39845276 C43.40562447 19.41495582 40.66102622 19.42264486 37.91625977 19.42553711 C34.40533542 19.43091387 30.89556561 19.4685558 27.38496685 19.51428127 C24.03138944 19.55125558 20.67799309 19.55256873 17.32421875 19.55859375 C15.43651009 19.58789223 15.43651009 19.58789223 13.51066589 19.61778259 C3.79998412 19.56752772 3.79998412 19.56752772 0.69995117 16.60766602 C-1.07514719 13.88472683 -1.58881902 12.69603163 -1.375 9.5 C-1.33117187 8.72785156 -1.28734375 7.95570313 -1.2421875 7.16015625 C-0.96975921 4.73027169 -0.61137791 2.36908942 0 0 Z " fill="#27773D" transform="translate(73,225)"/>
<path d="M0 0 C3 1 3 1 4.625 3.9375 C8.08728138 12.91198731 6.88608594 22.59956016 6.07421875 31.9609375 C5.91274101 33.92312729 5.91274101 33.92312729 5.7480011 35.92495728 C5.52088011 38.67364578 5.28736158 41.42169142 5.04907227 44.16943359 C4.74462342 47.68553137 4.45591197 51.20271537 4.17183208 54.72051048 C3.89745684 58.09301968 3.61033105 61.46440345 3.32421875 64.8359375 C3.17094368 66.72655411 3.17094368 66.72655411 3.01457214 68.65536499 C2.91139175 69.82403107 2.80821136 70.99269714 2.7019043 72.19677734 C2.61450485 73.2236264 2.52710541 74.25047546 2.4370575 75.30844116 C2.01199434 77.92613447 1.32891642 79.72433587 0 82 C-0.40922493 69.15062148 0.852843 56.47079398 2 43.6875 C2.28809192 40.45057461 2.57433219 37.21352318 2.85595703 33.97602844 C3.03007983 31.97664805 3.20789622 29.97758444 3.39013672 27.97892761 C4.70133837 17.10048079 4.70133837 17.10048079 2.5625 6.625 C1 3 1 3 0 0 Z " fill="#267339" transform="translate(200,105)"/>
<path d="M0 0 C0.33 0 0.66 0 1 0 C1.33 6.27 1.66 12.54 2 19 C22.13 19 42.26 19 63 19 C59.620127 21.25324867 58.45086361 21.25629866 54.49047852 21.2746582 C53.36243301 21.28419022 52.23438751 21.29372223 51.07215881 21.30354309 C49.24399879 21.30217598 49.24399879 21.30217598 47.37890625 21.30078125 C46.12746323 21.30506638 44.8760202 21.3093515 43.58665466 21.31376648 C40.93775427 21.31951448 38.28924295 21.32093986 35.64038086 21.31567383 C32.2496151 21.3098806 28.85939585 21.3268072 25.46872044 21.3500185 C22.2304531 21.3683127 18.99221597 21.36457023 15.75390625 21.36328125 C14.53715714 21.372491 13.32040802 21.38170074 12.06678772 21.39118958 C10.93559006 21.38496078 9.8043924 21.37873199 8.63891602 21.37231445 C7.6442482 21.37294388 6.64958038 21.3735733 5.62477112 21.3742218 C2.58345853 20.94061238 1.20164067 20.11078646 -1 18 C-1.36230469 16.00708008 -1.36230469 16.00708008 -1.171875 13.76953125 C-1.11386719 12.96708984 -1.05585938 12.16464844 -0.99609375 11.33789062 C-0.87427734 10.08782227 -0.87427734 10.08782227 -0.75 8.8125 C-0.68425781 7.96751953 -0.61851562 7.12253906 -0.55078125 6.25195312 C-0.38582311 4.1664109 -0.19533975 2.08291621 0 0 Z " fill="#26753C" transform="translate(196,223)"/>
<path d="M0 0 C-2.75295009 1.83530006 -4.77691826 2.67166014 -7.875 3.6875 C-26.67860432 10.49143577 -42.50732674 23.35268831 -51.125 41.7421875 C-53.0565178 46.72619326 -54.52838321 51.86499675 -56 57 C-56.33 57 -56.66 57 -57 57 C-56.21820237 41.36404736 -47.35215888 27.68960393 -36.1875 17.125 C-26.5134579 8.98003184 -13.14908899 -0.61969197 0 0 Z " fill="#256F37" transform="translate(72,10)"/>
<path d="M0 0 C0.67289062 -0.00386719 1.34578125 -0.00773437 2.0390625 -0.01171875 C6.44036583 -0.00322203 10.6815471 0.25469954 15 1.125 C15.495 2.115 15.495 2.115 16 3.125 C14.88141602 3.10928955 14.88141602 3.10928955 13.74023438 3.09326172 C10.32685787 3.05141555 6.91353558 3.02558324 3.5 3 C2.32695312 2.98324219 1.15390625 2.96648437 -0.0546875 2.94921875 C-13.1407368 2.87570162 -25.26435604 5.86620391 -35 15.125 C-40.13695226 21.18450695 -43.4360491 27.6401744 -46 35.125 C-46.33 35.125 -46.66 35.125 -47 35.125 C-46.66656508 26.12225721 -42.13384117 18.63058912 -36 12.125 C-34.23414155 10.76174133 -32.43892003 9.48034596 -30.5859375 8.23828125 C-28.84252532 7.0825147 -28.84252532 7.0825147 -27 5.125 C-25.12896977 4.37261303 -23.22756707 3.6944481 -21.3125 3.0625 C-19.79076172 2.55009766 -19.79076172 2.55009766 -18.23828125 2.02734375 C-12.17871363 0.33885145 -6.26195541 -0.03598825 0 0 Z " fill="#267338" transform="translate(411,101.875)"/>
<path d="M0 0 C4.19889806 2.55191649 7.25147882 6.15285904 9.5 10.5 C9.875 14 9.875 14 9.5 16.5 C9.22800781 15.93539062 8.95601563 15.37078125 8.67578125 14.7890625 C7.44967537 12.4020258 6.12407349 10.14167797 4.6875 7.875 C4.20667969 7.09898437 3.72585938 6.32296875 3.23046875 5.5234375 C0.00280721 1.74933213 -4.11210514 1.21400695 -8.875 0.75 C-14.76190745 0.31481195 -19.07584072 1.03422927 -24.1875 4.125 C-28.2186972 8.26514847 -30.11127142 12.94508568 -31.5 18.5 C-18.3 18.5 -5.1 18.5 8.5 18.5 C8.5 18.83 8.5 19.16 8.5 19.5 C-5.03 19.5 -18.56 19.5 -32.5 19.5 C-31.37179487 9.34615385 -31.37179487 9.34615385 -28.6875 6.125 C-28.18605469 5.49851562 -27.68460937 4.87203125 -27.16796875 4.2265625 C-20.34029037 -2.84096407 -8.97256691 -3.95489842 0 0 Z " fill="#1E682E" transform="translate(423.5,122.5)"/>
<path d="M0 0 C0.33 0 0.66 0 1 0 C1.01458252 0.67466309 1.02916504 1.34932617 1.04418945 2.04443359 C1.11949583 5.15514582 1.21587844 8.26487969 1.3125 11.375 C1.33505859 12.43589844 1.35761719 13.49679688 1.38085938 14.58984375 C1.84420434 28.32170352 5.95142793 38.74822332 15.921875 48.359375 C19.91812108 51.51430611 24.44918156 53.75339343 29 56 C27.328125 56.6796875 27.328125 56.6796875 25 57 C13.57707013 51.92708394 5.52368284 42.46700998 1 31 C-1.22437905 24.85389344 -1.26856686 19.18564855 -1.1875 12.6875 C-1.18685547 11.68654297 -1.18621094 10.68558594 -1.18554688 9.65429688 C-1.14074248 2.28148496 -1.14074248 2.28148496 0 0 Z " fill="#246F35" transform="translate(363,138)"/>
<path d="M0 0 C0.33 0 0.66 0 1 0 C1.25297192 9.96556065 0.56958707 19.83365187 -0.171875 29.76318359 C-0.37455381 32.49398829 -0.56658386 35.22540365 -0.7578125 37.95703125 C-1.41514328 47.06159016 -2.2087558 56.03228194 -4 65 C-4.33 65 -4.66 65 -5 65 C-5.36842061 53.12998958 -4.36670999 41.41631383 -3.34594727 29.60083008 C-3.05987015 26.28199058 -2.78420151 22.96239853 -2.50976562 19.64257812 C-2.33133525 17.52859459 -2.15232049 15.41466028 -1.97265625 13.30078125 C-1.89032242 12.31024246 -1.80798859 11.31970367 -1.72315979 10.29914856 C-1.64315231 9.38356674 -1.56314484 8.46798492 -1.48071289 7.5246582 C-1.41187393 6.72083206 -1.34303497 5.91700592 -1.27210999 5.08882141 C-1 3 -1 3 0 0 Z " fill="#257339" transform="translate(144,175)"/>
<path d="M0 0 C0.33 0 0.66 0 1 0 C1 15.18 1 30.36 1 46 C9.09254202 45.92096049 9.09254202 45.92096049 17.18481445 45.81982422 C18.1924585 45.8148291 19.20010254 45.80983398 20.23828125 45.8046875 C21.26993408 45.79421387 22.30158691 45.78374023 23.36450195 45.77294922 C26 46 26 46 29 48 C29.33 47.01 29.66 46.02 30 45 C30 46.65 30 48.3 30 50 C15.15 49.505 15.15 49.505 0 49 C-0.81937291 45.72250838 -1.10434419 43.68294799 -1.02172852 40.41503906 C-1.00163223 39.51440735 -0.98153595 38.61377563 -0.96083069 37.68585205 C-0.93379562 36.72217712 -0.90676056 35.7585022 -0.87890625 34.765625 C-0.85529526 33.77246277 -0.83168427 32.77930054 -0.80735779 31.75604248 C-0.73084932 28.58721162 -0.6467696 25.41863304 -0.5625 22.25 C-0.5092665 20.10027272 -0.45652619 17.95053316 -0.40429688 15.80078125 C-0.27525153 10.53369842 -0.13999115 5.26680265 0 0 Z " fill="#2B763E" transform="translate(677,148)"/>
<path d="M0 0 C3 0 3 0 4.6484375 1.57421875 C5.21820313 2.27160156 5.78796875 2.96898437 6.375 3.6875 C9.11997101 6.96864369 11.93034295 10.02336286 15 13 C11.92953092 20.69304341 2.15213374 24.7376232 -5 28 C-8.47325181 29.1577506 -11.36067448 29.06866652 -15 29 C-15 28.67 -15 28.34 -15 28 C-14.17757813 27.78085938 -13.35515625 27.56171875 -12.5078125 27.3359375 C-3.12122 24.66953824 6.44633745 21.58293303 12 13 C10.9171875 11.9171875 10.9171875 11.9171875 9.8125 10.8125 C7.20833333 8.20833333 4.60416667 5.60416667 2 3 C-1.88208482 4.45578181 -5.42621789 6.27053398 -9.03515625 8.29296875 C-11.42200179 9.15185353 -12.64282126 8.82422508 -15 8 C-14.00097656 7.50628906 -13.00195312 7.01257813 -11.97265625 6.50390625 C-10.6692186 5.85687605 -9.36583602 5.20973489 -8.0625 4.5625 C-7.40314453 4.23701172 -6.74378906 3.91152344 -6.06445312 3.57617188 C-2.81709965 2.10888654 -2.81709965 2.10888654 0 0 Z " fill="#257036" transform="translate(444,168)"/>
<path d="M0 0 C2.20895116 3.31342675 3.04382089 6.19033854 4.1875 10 C8.90352411 24.74200771 18.49305926 35.94321715 30.73828125 45.2109375 C33.00313272 47.00247804 34.99902326 48.92118206 37 51 C31.57048159 49.61373998 28.24247587 47.10512027 24.125 43.5 C23.53203125 43.00113281 22.9390625 42.50226563 22.328125 41.98828125 C20.84028656 40.70956296 19.41423381 39.3596788 18 38 C18 37.34 18 36.68 18 36 C17.34 36 16.68 36 16 36 C14.47508437 34.1365531 13.10367489 32.29615003 11.75 30.3125 C11.15155273 29.43597778 11.15155273 29.43597778 10.54101562 28.54174805 C4.64010732 19.67256884 0.0489725 10.84740833 0 0 Z " fill="#256E37" transform="translate(15,238)"/>
<path d="M0 0 C1.78070481 2.67105721 2.50435396 4.37383188 3.375 7.375 C4.62583675 11.27354703 6.11048721 14.01727712 9 17 C9.66 17.33 10.32 17.66 11 18 C11 18.66 11 19.32 11 20 C12.5778125 20.433125 12.5778125 20.433125 14.1875 20.875 C18 22 18 22 20.23046875 23.05078125 C23.86834567 24.29761354 27.32412606 24.33953144 31.125 24.3125 C31.87257568 24.31121094 32.62015137 24.30992187 33.39038086 24.30859375 C39.57878136 24.20209229 45.16655836 23.11666997 51 21 C46.25395118 25.89310949 41.66435149 26.75819 34.921875 27.203125 C28.58316198 27.29680056 23.21202521 26.87823496 17.21875 24.75390625 C14.96450715 23.90704024 14.96450715 23.90704024 12.34375 23.65234375 C10 23 10 23 8.875 21.18359375 C8.441875 20.10271484 8.441875 20.10271484 8 19 C7.02571467 17.66830021 6.02451723 16.35595301 5 15.0625 C1.15356189 9.98707801 -0.30058069 6.4624848 0 0 Z " fill="#277239" transform="translate(580,172)"/>
<path d="M0 0 C0.33 0 0.66 0 1 0 C1.32887548 12.10627175 0.4448435 24.04663633 -0.59912109 36.10229492 C-0.87827013 39.35055213 -1.14072993 42.59989801 -1.40234375 45.84960938 C-1.57712807 47.9167512 -1.75287297 49.98381209 -1.9296875 52.05078125 C-2.00686005 53.02147049 -2.08403259 53.99215973 -2.1635437 54.99226379 C-2.24347565 55.8846727 -2.32340759 56.7770816 -2.40576172 57.6965332 C-2.47238007 58.48179886 -2.53899841 59.26706451 -2.6076355 60.0761261 C-3 62 -3 62 -5 64 C-5.11835263 56.66618297 -4.77192503 49.43425407 -4.1875 42.125 C-4.10129395 41.0210791 -4.01508789 39.9171582 -3.92626953 38.77978516 C-2.87844895 25.82639831 -1.45812368 12.91272249 0 0 Z " fill="#226E34" transform="translate(81,134)"/>
<path d="M0 0 C0.99 0.495 0.99 0.495 2 1 C4.58939717 13.94698586 2.89716965 27.91093568 2 41 C1.34 41 0.68 41 0 41 C0 27.47 0 13.94 0 0 Z " fill="#2C7E42" transform="translate(503,66)"/>
<path d="M0 0 C0 0.33 0 0.66 0 1 C-11.598643 1.91353588 -23.18318876 2.1106828 -34.8125 2.125 C-35.51438446 2.12749756 -36.21626892 2.12999512 -36.93942261 2.13256836 C-46.00187375 2.15898911 -54.97329836 1.85064334 -64 1 C-64 0.67 -64 0.34 -64 0 C-42.6247957 -1.4115701 -21.37993773 -1.24716303 0 0 Z " fill="#1F6831" transform="translate(199,299)"/>
<path d="M0 0 C9.82127736 3.04371118 16.65578103 14.1836429 21.4152832 22.84106445 C25.32483039 30.28541215 28.75856873 37.4661018 28 46 C25.6577608 43.6577608 25.77967447 43.10397172 25.4375 39.9375 C23.06741599 27.33959189 15.32588144 16.45038529 6.48046875 7.515625 C4.12540363 5.127181 2.04739054 2.6534945 0 0 Z " fill="#246F37" transform="translate(296,24)"/>
<path d="M0 0 C0.66 0 1.32 0 2 0 C2.4738425 17.60237152 2.02557497 33.8503425 -10 48 C-10.66 48 -11.32 48 -12 48 C-10.69787309 45.28173507 -9.24376229 42.81082433 -7.5625 40.3125 C-1.66625277 30.97242696 -0.8833491 20.91308649 -0.4375 10.125 C-0.39431641 9.15046875 -0.35113281 8.1759375 -0.30664062 7.171875 C-0.20117726 4.78137198 -0.09905825 2.39077556 0 0 Z " fill="#256F36" transform="translate(569,139)"/>
<path d="M0 0 C2.53354248 1.26677124 2.69801435 2.25629673 3.8125 4.8125 C6.03498447 9.413866 8.61805418 11.89814751 13.296875 14.0625 C20.38043077 16.51922454 28.56401183 16.14299977 36 16 C30.8571106 19.42859293 25.05138239 19.6883089 19 19 C12.80369295 17.30591308 8.15203242 15.03276656 4 10 C3.4225 9.360625 2.845 8.72125 2.25 8.0625 C0.65298216 5.42742057 0.34499414 3.0359484 0 0 Z " fill="#257238" transform="translate(392,161)"/>
<path d="M0 0 C10.26716995 1.026717 15.23289792 5.51980512 21.5625 13.25 C26.12008853 19.23059106 29.79537414 25.24510213 29 33 C26.47836179 29.21754269 25.05565058 25.23357794 23.4140625 21.0078125 C21.9579749 17.9106096 20.15798856 15.63550093 18 13 C18 12.34 18 11.68 18 11 C17.34 11 16.68 11 16 11 C16 10.34 16 9.68 16 9 C15.46890625 8.73445313 14.9378125 8.46890625 14.390625 8.1953125 C9.59375 5.796875 4.796875 3.3984375 0 1 C0 0.67 0 0.34 0 0 Z " fill="#267339" transform="translate(540,104)"/>
<path d="M0 0 C1.07973121 1.61959681 2.15785222 3.24029733 3.2265625 4.8671875 C8.28657308 12.1321189 14.21356585 16.29939984 23 18 C27.66205599 18.4410746 32.32388577 18.75354738 37 19 C31.72585952 22.2867832 25.87060501 20.93227099 20 20 C12.20808644 17.85270595 5.94495897 14.45743333 1.625 7.4375 C0 4 0 4 0 0 Z " fill="#277138" transform="translate(718,178)"/>
<path d="M0 0 C9.92362627 0.45942714 16.39067429 3.54120624 23.234375 10.7890625 C27.71797533 16.40348238 29.60680442 21.87004807 29 29 C27.62251861 26.45695743 26.70602494 24.08713008 25.8125 21.3125 C23.11071888 14.14341741 18.84989297 8.60734568 12 5.0625 C8.07496383 3.32204053 4.17282226 1.9978488 0 1 C0 0.67 0 0.34 0 0 Z " fill="#28733A" transform="translate(775,104)"/>
<path d="M0 0 C-0.87011719 0.41958984 -0.87011719 0.41958984 -1.7578125 0.84765625 C-9.63019805 4.88777491 -14.74082906 9.88435438 -18.1875 18.11328125 C-20.0042336 24.56792612 -20.41886354 31.33987034 -21 38 C-21.33 38 -21.66 38 -22 38 C-22.59421445 25.76908591 -21.74813959 15.62397894 -13.7109375 5.73046875 C-9.7719965 1.74656267 -5.70999782 -2.01753256 0 0 Z " fill="#226C32" transform="translate(170,102)"/>
<path d="M0 0 C0.66 0 1.32 0 2 0 C0.7361722 5.89786309 -2.12107748 8.77731703 -7 12 C-12.77367329 14.55374011 -18.90157727 14.44691877 -25 13 C-26.828125 11.44921875 -26.828125 11.44921875 -28 10 C-27.01 10.165 -26.02 10.33 -25 10.5 C-17.84331262 11.48115875 -12.57337409 11.53950913 -6 8 C-3.15717173 5.61817091 -1.45873946 3.40372541 0 0 Z " fill="#267639" transform="translate(538,163)"/>
<path d="M0 0 C4.54493168 0.98802863 7.79941109 2.62640628 11 6 C12.96265211 10.18294967 14.49440873 13.51677381 13 18 C7.06 18 1.12 18 -5 18 C-5 17.67 -5 17.34 -5 17 C0.61 17 6.22 17 12 17 C11.525625 15.576875 11.05125 14.15375 10.5625 12.6875 C9.70833333 10.125 8.85416667 7.5625 8 5 C5.43957934 3.96961044 5.43957934 3.96961044 2.4375 3.3125 C0.91962891 2.93544922 0.91962891 2.93544922 -0.62890625 2.55078125 C-1.80259766 2.27814453 -1.80259766 2.27814453 -3 2 C-2.01 1.34 -1.02 0.68 0 0 Z " fill="#28793D" transform="translate(766,123)"/>
<path d="M0 0 C2.04872746 0.99220881 4.01501335 2.00940596 5.9453125 3.21875 C14.10013829 8.01226767 22.76695827 8.32612876 32 9 C32 9.66 32 10.32 32 11 C21.83956987 11.54002286 11.05751232 10.81789504 3 4 C1.125 1.75 1.125 1.75 0 0 Z " fill="#29753A" transform="translate(504,188)"/>
<path d="M0 0 C0.33 0 0.66 0 1 0 C2.11453877 6.64770997 1.83597201 12.74544532 1.1875 19.4375 C1.10435547 20.44232422 1.02121094 21.44714844 0.93554688 22.48242188 C0.8030957 23.91231445 0.8030957 23.91231445 0.66796875 25.37109375 C0.58828857 26.23661865 0.5086084 27.10214355 0.42651367 27.99389648 C0.28576416 28.65591064 0.14501465 29.3179248 0 30 C-0.66 30.33 -1.32 30.66 -2 31 C-2.16993336 20.69070972 -2.24846606 10.10864996 0 0 Z " fill="#206E34" transform="translate(199,188)"/>
<path d="M0 0 C-0.7734375 0.268125 -1.546875 0.53625 -2.34375 0.8125 C-10.38027285 3.83614226 -17.15767438 7.34425377 -21.15234375 15.29296875 C-22.1092653 17.68746675 -22.1092653 17.68746675 -23 21 C-23.33 21 -23.66 21 -24 21 C-23.72936367 14.50472815 -21.41713833 10.71425526 -17 6 C-12.0898957 1.64035582 -6.68457324 -1.97531286 0 0 Z " fill="#257237" transform="translate(742,144)"/>
<path d="M0 0 C-1.08796875 0.03738281 -2.1759375 0.07476562 -3.296875 0.11328125 C-12.20385361 0.4880874 -20.41830558 1.37092599 -29 4 C-22.67215286 -2.93385477 -7.94972317 -5.29981545 0 0 Z " fill="#28763A" transform="translate(539,104)"/>
<path d="M0 0 C0 0.33 0 0.66 0 1 C-1.80597656 1.09087891 -1.80597656 1.09087891 -3.6484375 1.18359375 C-5.22397077 1.26799732 -6.79949096 1.35264541 -8.375 1.4375 C-9.1690625 1.47681641 -9.963125 1.51613281 -10.78125 1.55664062 C-15.02601221 1.68893404 -15.02601221 1.68893404 -19 3 C-21.71262116 3.2322646 -24.40773126 3.41936235 -27.125 3.5625 C-27.87910156 3.60568359 -28.63320313 3.64886719 -29.41015625 3.69335938 C-31.27321888 3.7994832 -33.13658524 3.90025001 -35 4 C-34.67 3.34 -34.34 2.68 -34 2 C-23.32119748 -1.46686575 -11.05079287 -0.19175161 0 0 Z " fill="#30894A" transform="translate(778,139)"/>
<path d="M0 0 C9.57 0 19.14 0 29 0 C29 0.66 29 1.32 29 2 C29.99 2.33 30.98 2.66 32 3 C28.37 3 24.74 3 21 3 C21 2.34 21 1.68 21 1 C14.07 1 7.14 1 0 1 C0 0.67 0 0.34 0 0 Z " fill="#2A7C41" transform="translate(178,298)"/>
<path d="M0 0 C0 0.99 0 1.98 0 3 C-1.64453125 4.3515625 -1.64453125 4.3515625 -3.8125 5.625 C-4.52019531 6.05039063 -5.22789062 6.47578125 -5.95703125 6.9140625 C-9.97864641 9.05174704 -13.19917237 9.10693889 -17.6875 9.0625 C-19.45673828 9.04896484 -19.45673828 9.04896484 -21.26171875 9.03515625 C-22.16535156 9.02355469 -23.06898438 9.01195312 -24 9 C-24 8.67 -24 8.34 -24 8 C-22.40671875 7.76216797 -22.40671875 7.76216797 -20.78125 7.51953125 C-12.80952696 6.23580506 -6.54384944 5.04421728 0 0 Z " fill="#26753A" transform="translate(777,171)"/>
<path d="M0 0 C-3.70456934 2.46971289 -7.64206975 4.32800483 -11.64257812 6.2578125 C-15.67568613 8.23746508 -19.32226424 10.44304435 -23 13 C-21.50115053 9.02059848 -19.25287411 7.56536515 -15.6875 5.375 C-14.74261719 4.78460938 -13.79773438 4.19421875 -12.82421875 3.5859375 C-8.41356979 1.10914154 -5.09461716 -0.29112098 0 0 Z " fill="#267238" transform="translate(744,105)"/>
<path d="M0 0 C0.33 0.66 0.66 1.32 1 2 C1.99 2 2.98 2 4 2 C3.84518205 4.70931419 3.51827919 6.46584039 1.59765625 8.4453125 C0.10228292 9.67679642 -1.4462924 10.8429837 -3 12 C-2.88648483 10.18674449 -2.75887039 8.37436643 -2.625 6.5625 C-2.55539063 5.55316406 -2.48578125 4.54382813 -2.4140625 3.50390625 C-2.27742187 2.67761719 -2.14078125 1.85132812 -2 1 C-1.34 0.67 -0.68 0.34 0 0 Z " fill="#328648" transform="translate(151,73)"/>
<path d="M0 0 C4.59708098 -0.36776648 8.02935164 -0.46665787 12.25 1.5625 C16.5211064 5.3482534 19.7819119 8.60103086 20.3125 14.4375 C20.209375 15.283125 20.10625 16.12875 20 17 C19.72800781 16.43539062 19.45601563 15.87078125 19.17578125 15.2890625 C17.94967537 12.9020258 16.62407349 10.64167797 15.1875 8.375 C14.70667969 7.59898437 14.22585938 6.82296875 13.73046875 6.0234375 C10.15186591 1.83897639 5.23036126 1.61533662 0 1 C0 0.67 0 0.34 0 0 Z " fill="#28773B" transform="translate(413,122)"/>
<path d="M0 0 C0.66 0.66 1.32 1.32 2 2 C1.67 2.99 1.34 3.98 1 5 C0.236875 4.360625 -0.52625 3.72125 -1.3125 3.0625 C-5.06692251 0.181199 -8.08188224 -0.18321383 -12.6875 -0.5625 C-13.68136719 -0.64628906 -14.67523437 -0.73007813 -15.69921875 -0.81640625 C-16.83810547 -0.90728516 -16.83810547 -0.90728516 -18 -1 C-18 -1.33 -18 -1.66 -18 -2 C-11.21994343 -3.1838194 -6.27528116 -3.01160428 0 0 Z " fill="#318447" transform="translate(534,127)"/>
<path d="M0 0 C0 0.33 0 0.66 0 1 C-1.299375 1.061875 -2.59875 1.12375 -3.9375 1.1875 C-10.13982009 1.85483824 -15.58783077 4.58783077 -20 9 C-20 8.01 -20 7.02 -20 6 C-13.69439449 0.0547148 -8.29967909 -0.29008587 0 0 Z " fill="#237036" transform="translate(525,124)"/>
<path d="M0 0 C0 0.66 0 1.32 0 2 C-6.24161903 5.58125682 -10.75420281 7.67090715 -18 7 C-18 6.67 -18 6.34 -18 6 C-16.64455078 5.60167969 -16.64455078 5.60167969 -15.26171875 5.1953125 C-14.08222656 4.84210938 -12.90273438 4.48890625 -11.6875 4.125 C-10.51574219 3.77695313 -9.34398437 3.42890625 -8.13671875 3.0703125 C-5.20732787 2.0707445 -3.04351795 0 0 0 Z " fill="#28743A" transform="translate(775,190)"/>
<path d="M0 0 C1.13199353 0.9080162 2.25532363 1.82683826 3.375 2.75 C4.00148438 3.26046875 4.62796875 3.7709375 5.2734375 4.296875 C7.08312318 6.08199481 8.00117455 7.67949644 9 10 C7.68 10.99 6.36 11.98 5 13 C5 11 5 9 5 7 C3.3540349 5.31288577 1.68762851 3.6454378 0 2 C0 1.34 0 0.68 0 0 Z " fill="#2C7C40" transform="translate(450,173)"/>
<path d="M0 0 C0.66 0 1.32 0 2 0 C1.54936121 4.84436703 0.46006039 7.53993961 -3 11 C-5.25 11.8125 -5.25 11.8125 -7 12 C-7 11.34 -7 10.68 -7 10 C-6.21625 9.4225 -5.4325 8.845 -4.625 8.25 C-1.60192016 5.65878871 -0.95078902 3.80315606 0 0 Z " fill="#297A3E" transform="translate(636,163)"/>
<path d="M0 0 C0 1.98 0 3.96 0 6 C-0.66 6 -1.32 6 -2 6 C-2.33 6.66 -2.66 7.32 -3 8 C-3.66 7.34 -4.32 6.68 -5 6 C-4.67 5.67 -4.34 5.34 -4 5 C-4.99 4.67 -5.98 4.34 -7 4 C-2.25 0 -2.25 0 0 0 Z " fill="#32874A" transform="translate(639,187)"/>
<path d="M0 0 C0.66 0.66 1.32 1.32 2 2 C0.75803878 3.15454162 -0.49392845 4.29832562 -1.75 5.4375 C-2.79414062 6.39462891 -2.79414062 6.39462891 -3.859375 7.37109375 C-5.98792725 8.99081325 -7.39023405 9.58267256 -10 10 C-3.84965831 2.51708428 -3.84965831 2.51708428 0 0 Z " fill="#2C7740" transform="translate(40,24)"/>
<path d="M0 0 C5.29158974 1.40071493 7.77478044 4.85487245 11 9 C8 9 8 9 5.95703125 7.28515625 C5.24933594 6.55167969 4.54164063 5.81820313 3.8125 5.0625 C3.09707031 4.33160156 2.38164062 3.60070312 1.64453125 2.84765625 C0 1 0 1 0 0 Z " fill="#2B7940" transform="translate(296,24)"/>
<path d="M0 0 C0.33 0 0.66 0 1 0 C2.03863773 6.23182639 1.83288874 11.74692761 1 18 C0.67 18 0.34 18 0 18 C-0.19620767 15.93831015 -0.38160753 13.87559002 -0.5625 11.8125 C-0.66691406 10.66394531 -0.77132812 9.51539063 -0.87890625 8.33203125 C-0.98859985 5.31368801 -0.74002389 2.91076064 0 0 Z " fill="#28793E" transform="translate(199,188)"/>
<path d="M0 0 C0.639375 0.639375 1.27875 1.27875 1.9375 1.9375 C5.91930882 4.61912635 9.294792 4.79498004 14 5 C14 5.33 14 5.66 14 6 C12.41986783 6.25028811 10.83557694 6.47440946 9.25 6.6875 C8.36828125 6.81511719 7.4865625 6.94273437 6.578125 7.07421875 C3.37546108 6.98202085 2.18760949 6.31539042 0 4 C0 2.68 0 1.36 0 0 Z " fill="#35894D" transform="translate(746,173)"/>
<path d="M0 0 C0.33 0 0.66 0 1 0 C1.2226746 1.43534841 1.42761906 2.87345525 1.625 4.3125 C1.74101562 5.11300781 1.85703125 5.91351563 1.9765625 6.73828125 C2 9 2 9 0 12 C-0.33 10.35 -0.66 8.7 -1 7 C-1.66 7 -2.32 7 -3 7 C-3 6.34 -3 5.68 -3 5 C-2.34 5 -1.68 5 -1 5 C-0.67 3.35 -0.34 1.7 0 0 Z " fill="#327E45" transform="translate(14,229)"/>
<path d="M0 0 C-0.66 1.32 -1.32 2.64 -2 4 C-2.66 4 -3.32 4 -4 4 C-4.66 5.32 -5.32 6.64 -6 8 C-6.66 7.34 -7.32 6.68 -8 6 C-7.0479279 4.99403703 -6.08812654 3.99538437 -5.125 3 C-4.59132813 2.443125 -4.05765625 1.88625 -3.5078125 1.3125 C-2 0 -2 0 0 0 Z " fill="#2B783D" transform="translate(308,272)"/>
<path d="M0 0 C2.31 1.98 4.62 3.96 7 6 C6.34 6.66 5.68 7.32 5 8 C3.02 5.69 1.04 3.38 -1 1 C-0.67 0.67 -0.34 0.34 0 0 Z " fill="#2B793F" transform="translate(372,180)"/>
<path d="M0 0 C1.06546953 3.1964086 1.07427838 5.65747276 1 9 C0.34 9 -0.32 9 -1 9 C-1.33 7.02 -1.66 5.04 -2 3 C-2.99 3 -3.98 3 -5 3 C-2.25 0 -2.25 0 0 0 Z " fill="#328548" transform="translate(779,187)"/>
<path d="M0 0 C0.33 0 0.66 0 1 0 C1 2.31 1 4.62 1 7 C0.67 7 0.34 7 0 7 C0 4.69 0 2.38 0 0 Z " fill="#44A160" transform="translate(634,127)"/>
<path d="M0 0 C0.99 0.33 1.98 0.66 3 1 C2.01 1.33 1.02 1.66 0 2 C0 1.34 0 0.68 0 0 Z " fill="#439D5E" transform="translate(367,179)"/>
<path d="M0 0 C0.66 1.32 1.32 2.64 2 4 C1.34 3.67 0.68 3.34 0 3 C0 2.01 0 1.02 0 0 Z " fill="#439F5F" transform="translate(362,167)"/>
<path d="M0 0 C0.33 0 0.66 0 1 0 C1 1.65 1 3.3 1 5 C0.67 5 0.34 5 0 5 C0 3.35 0 1.7 0 0 Z " fill="#46A261" transform="translate(634,151)"/>
<path d="M0 0 C0.33 0 0.66 0 1 0 C1 1.65 1 3.3 1 5 C0.67 5 0.34 5 0 5 C0 3.35 0 1.7 0 0 Z " fill="#43A261" transform="translate(206,139)"/>
<path d="M0 0 C0.33 0 0.66 0 1 0 C1 1.65 1 3.3 1 5 C0.67 5 0.34 5 0 5 C0 3.35 0 1.7 0 0 Z " fill="#45A260" transform="translate(634,120)"/>
<path d="M0 0 C0.99 0.495 0.99 0.495 2 1 C1.34 1.66 0.68 2.32 0 3 C0 2.01 0 1.02 0 0 Z " fill="#43A261" transform="translate(198,236)"/>
<path d="M0 0 C1 4 1 4 1 4 Z " fill="#459C5F" transform="translate(11,229)"/>
<path d="M0 0 C4 1 4 1 4 1 Z " fill="#44A260" transform="translate(411,175)"/>
<path d="M0 0 C1 4 1 4 1 4 Z " fill="#45A361" transform="translate(634,144)"/>
<path d="M0 0 C1 4 1 4 1 4 Z " fill="#43A260" transform="translate(360,141)"/>
<path d="M0 0 C0.99 0.33 1.98 0.66 3 1 C2.01 1 1.02 1 0 1 C0 0.67 0 0.34 0 0 Z " fill="#449E5F" transform="translate(727,139)"/>
<path d="M0 0 C1 4 1 4 1 4 Z " fill="#45A260" transform="translate(634,135)"/>
<path d="M0 0 C4 1 4 1 4 1 Z " fill="#429F61" transform="translate(200,58)"/>
<path d="" fill="#44A362" transform="translate(0,0)"/>
<path d="M0 0 C0.66 0.66 1.32 1.32 2 2 C1.34 2 0.68 2 0 2 C0 1.34 0 0.68 0 0 Z " fill="#479C5F" transform="translate(755,201)"/>
<path d="M0 0 C0.33 0.66 0.66 1.32 1 2 C0.34 1.67 -0.32 1.34 -1 1 C-0.67 0.67 -0.34 0.34 0 0 Z " fill="#489C5F" transform="translate(684,200)"/>
<path d="" fill="#45A160" transform="translate(0,0)"/>
<path d="M0 0 C3 1 3 1 3 1 Z " fill="#44A161" transform="translate(737,141)"/>
<path d="M0 0 C0.66 0.66 1.32 1.32 2 2 C1.34 2 0.68 2 0 2 C0 1.34 0 0.68 0 0 Z " fill="#45A163" transform="translate(741,139)"/>
<path d="" fill="#47A262" transform="translate(0,0)"/>
<path d="M0 0 C3 1 3 1 3 1 Z " fill="#439D5E" transform="translate(212,58)"/>
<path d="M0 0 C2 1 2 1 2 1 Z " fill="#469C5F" transform="translate(60,295)"/>
<path d="M0 0 C2 1 2 1 2 1 Z " fill="#547F5F" transform="translate(729,278)"/>
<path d="M0 0 C2 1 2 1 2 1 Z " fill="#53825E" transform="translate(729,270)"/>
<path d="" fill="#449B60" transform="translate(0,0)"/>
<path d="M0 0 C2 1 2 1 2 1 Z " fill="#50875F" transform="translate(729,254)"/>
<path d="M0 0 C2 1 2 1 2 1 Z " fill="#47A363" transform="translate(225,240)"/>
<path d="" fill="#46A362" transform="translate(0,0)"/>
<path d="" fill="#46A462" transform="translate(0,0)"/>
<path d="M0 0 C2 1 2 1 2 1 Z " fill="#449D5E" transform="translate(609,200)"/>
<path d="M0 0 C2 1 2 1 2 1 Z " fill="#459C5E" transform="translate(423,200)"/>
<path d="M0 0 C2 1 2 1 2 1 Z " fill="#459D5D" transform="translate(415,200)"/>
<path d="" fill="#469A5E" transform="translate(0,0)"/>
<path d="" fill="#449E60" transform="translate(0,0)"/>
<path d="M0 0 C2 1 2 1 2 1 Z " fill="#4B9B61" transform="translate(805,198)"/>
<path d="M0 0 C2 1 2 1 2 1 Z " fill="#479B5E" transform="translate(704,198)"/>
<path d="M0 0 C2 1 2 1 2 1 Z " fill="#449D5E" transform="translate(393,198)"/>
<path d="" fill="#439E5D" transform="translate(0,0)"/>
<path d="" fill="#44A15F" transform="translate(0,0)"/>
<path d="" fill="#469C60" transform="translate(0,0)"/>
<path d="M0 0 C2 1 2 1 2 1 Z " fill="#409C5B" transform="translate(506,193)"/>
<path d="" fill="#439D5C" transform="translate(0,0)"/>
<path d="M0 0 C2 1 2 1 2 1 Z " fill="#459C5F" transform="translate(585,190)"/>
<path d="" fill="#449C5D" transform="translate(0,0)"/>
<path d="" fill="#47A163" transform="translate(0,0)"/>
<path d="" fill="#439C5F" transform="translate(0,0)"/>
<path d="M0 0 C2 1 2 1 2 1 Z " fill="#479E60" transform="translate(564,181)"/>
<path d="" fill="#43A261" transform="translate(0,0)"/>
<path d="" fill="#45A060" transform="translate(0,0)"/>
<path d="" fill="#45A161" transform="translate(0,0)"/>
<path d="" fill="#48A562" transform="translate(0,0)"/>
<path d="" fill="#449D60" transform="translate(0,0)"/>
<path d="M0 0 C2 1 2 1 2 1 Z " fill="#45A160" transform="translate(611,164)"/>
<path d="" fill="#46A362" transform="translate(0,0)"/>
<path d="" fill="#43A160" transform="translate(0,0)"/>
<path d="" fill="#48A461" transform="translate(0,0)"/>
<path d="M0 0 C2 1 2 1 2 1 Z " fill="#45A060" transform="translate(774,157)"/>
<path d="" fill="#43A25E" transform="translate(0,0)"/>
<path d="" fill="#47A361" transform="translate(0,0)"/>
<path d="" fill="#46A161" transform="translate(0,0)"/>
<path d="" fill="#48A461" transform="translate(0,0)"/>
<path d="" fill="#45A25D" transform="translate(0,0)"/>
<path d="" fill="#449D5F" transform="translate(0,0)"/>
<path d="" fill="#44A15F" transform="translate(0,0)"/>
<path d="M0 0 C2 1 2 1 2 1 Z " fill="#46A264" transform="translate(744,139)"/>
<path d="M0 0 C2 1 2 1 2 1 Z " fill="#44A162" transform="translate(737,139)"/>
<path d="" fill="#459C5E" transform="translate(0,0)"/>
<path d="" fill="#449D5F" transform="translate(0,0)"/>
<path d="" fill="#459F61" transform="translate(0,0)"/>
<path d="" fill="#43A360" transform="translate(0,0)"/>
<path d="" fill="#49A562" transform="translate(0,0)"/>
<path d="" fill="#48A362" transform="translate(0,0)"/>
<path d="" fill="#46A363" transform="translate(0,0)"/>
<path d="" fill="#49A563" transform="translate(0,0)"/>
<path d="M0 0 C2 1 2 1 2 1 Z " fill="#479E5E" transform="translate(664,102)"/>
<path d="M0 0 C2 1 2 1 2 1 Z " fill="#439E5E" transform="translate(410,100)"/>
<path d="" fill="#479C5D" transform="translate(0,0)"/>
<path d="" fill="#479D60" transform="translate(0,0)"/>
<path d="M0 0 C2 1 2 1 2 1 Z " fill="#429E60" transform="translate(207,58)"/>
<path d="M0 0 C2 1 2 1 2 1 Z " fill="#509162" transform="translate(729,46)"/>
<path d="M0 0 C2 1 2 1 2 1 Z " fill="#469B5F" transform="translate(297,20)"/>
<path d="" fill="#518B60" transform="translate(0,0)"/>
<path d="M0 0 C2 1 2 1 2 1 Z " fill="#528860" transform="translate(729,14)"/>
<path d="M0 0 C2 1 2 1 2 1 Z " fill="#548560" transform="translate(729,6)"/>
<path d="" fill="#4A9D62" transform="translate(0,0)"/>
<path d="" fill="#4F7857" transform="translate(0,0)"/>
<path d="" fill="#4E865A" transform="translate(0,0)"/>
<path d="" fill="#4C7857" transform="translate(0,0)"/>
<path d="" fill="#479C5F" transform="translate(0,0)"/>
<path d="" fill="#557C5E" transform="translate(0,0)"/>
<path d="" fill="#4F7A59" transform="translate(0,0)"/>
<path d="" fill="#469C5F" transform="translate(0,0)"/>
<path d="" fill="#4E7958" transform="translate(0,0)"/>
<path d="" fill="#50875A" transform="translate(0,0)"/>
<path d="" fill="#537E5C" transform="translate(0,0)"/>
<path d="" fill="#4E7B59" transform="translate(0,0)"/>
<path d="" fill="#547F5F" transform="translate(0,0)"/>
<path d="" fill="#527E5C" transform="translate(0,0)"/>
<path d="" fill="#4E7C59" transform="translate(0,0)"/>
<path d="" fill="#597F61" transform="translate(0,0)"/>
<path d="" fill="#4F7A59" transform="translate(0,0)"/>
<path d="" fill="#489A5F" transform="translate(0,0)"/>
<path d="" fill="#46985C" transform="translate(0,0)"/>
<path d="" fill="#51805C" transform="translate(0,0)"/>
<path d="" fill="#469B5E" transform="translate(0,0)"/>
<path d="" fill="#4C7D58" transform="translate(0,0)"/>
<path d="" fill="#46995E" transform="translate(0,0)"/>
<path d="" fill="#449960" transform="translate(0,0)"/>
<path d="" fill="#4F7D5B" transform="translate(0,0)"/>
<path d="" fill="#4E7E59" transform="translate(0,0)"/>
<path d="" fill="#469B5F" transform="translate(0,0)"/>
<path d="" fill="#52825E" transform="translate(0,0)"/>
<path d="" fill="#4E7F5A" transform="translate(0,0)"/>
<path d="" fill="#588461" transform="translate(0,0)"/>
<path d="" fill="#52825C" transform="translate(0,0)"/>
<path d="" fill="#4F815C" transform="translate(0,0)"/>
<path d="" fill="#479B5F" transform="translate(0,0)"/>
<path d="" fill="#578360" transform="translate(0,0)"/>
<path d="" fill="#459A5E" transform="translate(0,0)"/>
<path d="" fill="#51865F" transform="translate(0,0)"/>
<path d="" fill="#4D825B" transform="translate(0,0)"/>
<path d="" fill="#53865F" transform="translate(0,0)"/>
<path d="" fill="#51855D" transform="translate(0,0)"/>
<path d="" fill="#4F835C" transform="translate(0,0)"/>
<path d="" fill="#4E835B" transform="translate(0,0)"/>
<path d="" fill="#499A60" transform="translate(0,0)"/>
<path d="" fill="#419C5F" transform="translate(0,0)"/>
<path d="" fill="#479C5F" transform="translate(0,0)"/>
<path d="" fill="#50875E" transform="translate(0,0)"/>
<path d="" fill="#4D865A" transform="translate(0,0)"/>
<path d="" fill="#4E875E" transform="translate(0,0)"/>
<path d="" fill="#449D5F" transform="translate(0,0)"/>
<path d="" fill="#4E865C" transform="translate(0,0)"/>
<path d="" fill="#4C935E" transform="translate(0,0)"/>
<path d="" fill="#449D61" transform="translate(0,0)"/>
<path d="" fill="#4E895E" transform="translate(0,0)"/>
<path d="" fill="#508A60" transform="translate(0,0)"/>
<path d="" fill="#4C885B" transform="translate(0,0)"/>
<path d="" fill="#4A8C5D" transform="translate(0,0)"/>
<path d="" fill="#48A162" transform="translate(0,0)"/>
<path d="" fill="#47A262" transform="translate(0,0)"/>
<path d="" fill="#48A363" transform="translate(0,0)"/>
<path d="" fill="#45A263" transform="translate(0,0)"/>
<path d="" fill="#47A363" transform="translate(0,0)"/>
<path d="" fill="#4AA466" transform="translate(0,0)"/>
<path d="" fill="#48A464" transform="translate(0,0)"/>
<path d="" fill="#46A262" transform="translate(0,0)"/>
<path d="" fill="#46A064" transform="translate(0,0)"/>
<path d="" fill="#45A162" transform="translate(0,0)"/>
<path d="" fill="#4F8E61" transform="translate(0,0)"/>
<path d="" fill="#4E8D5F" transform="translate(0,0)"/>
<path d="" fill="#4D8C5E" transform="translate(0,0)"/>
<path d="" fill="#419A5E" transform="translate(0,0)"/>
<path d="" fill="#45A362" transform="translate(0,0)"/>
<path d="" fill="#47A463" transform="translate(0,0)"/>
<path d="" fill="#48A364" transform="translate(0,0)"/>
<path d="" fill="#43A260" transform="translate(0,0)"/>
<path d="" fill="#44A161" transform="translate(0,0)"/>
<path d="" fill="#47A363" transform="translate(0,0)"/>
<path d="" fill="#44A463" transform="translate(0,0)"/>
<path d="" fill="#509160" transform="translate(0,0)"/>
<path d="" fill="#4B8F5E" transform="translate(0,0)"/>
<path d="" fill="#4C8E5C" transform="translate(0,0)"/>
<path d="" fill="#49A264" transform="translate(0,0)"/>
<path d="" fill="#449D60" transform="translate(0,0)"/>
<path d="" fill="#45A061" transform="translate(0,0)"/>
<path d="" fill="#508F62" transform="translate(0,0)"/>
<path d="" fill="#4E9161" transform="translate(0,0)"/>
<path d="" fill="#4D905F" transform="translate(0,0)"/>
<path d="" fill="#48A262" transform="translate(0,0)"/>
<path d="" fill="#469D5F" transform="translate(0,0)"/>
<path d="" fill="#45A260" transform="translate(0,0)"/>
<path d="" fill="#449C60" transform="translate(0,0)"/>
<path d="" fill="#46A063" transform="translate(0,0)"/>
<path d="" fill="#459C5F" transform="translate(0,0)"/>
<path d="" fill="#4C915F" transform="translate(0,0)"/>
<path d="" fill="#49A264" transform="translate(0,0)"/>
<path d="" fill="#4D9361" transform="translate(0,0)"/>
<path d="" fill="#4D9360" transform="translate(0,0)"/>
<path d="" fill="#4D9460" transform="translate(0,0)"/>
<path d="" fill="#4E9061" transform="translate(0,0)"/>
<path d="" fill="#4C9461" transform="translate(0,0)"/>
<path d="" fill="#43A361" transform="translate(0,0)"/>
<path d="" fill="#4A945F" transform="translate(0,0)"/>
<path d="" fill="#48A163" transform="translate(0,0)"/>
<path d="" fill="#459D60" transform="translate(0,0)"/>
<path d="" fill="#4E9560" transform="translate(0,0)"/>
<path d="" fill="#469F60" transform="translate(0,0)"/>
<path d="" fill="#4A9760" transform="translate(0,0)"/>
<path d="" fill="#48A264" transform="translate(0,0)"/>
<path d="" fill="#4D9962" transform="translate(0,0)"/>
<path d="" fill="#459F62" transform="translate(0,0)"/>
<path d="" fill="#4C9961" transform="translate(0,0)"/>
<path d="" fill="#44A060" transform="translate(0,0)"/>
<path d="" fill="#49A262" transform="translate(0,0)"/>
<path d="" fill="#499E61" transform="translate(0,0)"/>
<path d="" fill="#44A261" transform="translate(0,0)"/>
<path d="" fill="#489B60" transform="translate(0,0)"/>
<path d="" fill="#479E5F" transform="translate(0,0)"/>
<path d="" fill="#47995F" transform="translate(0,0)"/>
<path d="" fill="#4A9B60" transform="translate(0,0)"/>
<path d="" fill="#449F62" transform="translate(0,0)"/>
<path d="" fill="#479E60" transform="translate(0,0)"/>
<path d="" fill="#45A05F" transform="translate(0,0)"/>
<path d="" fill="#479B60" transform="translate(0,0)"/>
<path d="" fill="#469D5F" transform="translate(0,0)"/>
<path d="" fill="#449B5C" transform="translate(0,0)"/>
<path d="" fill="#479E5F" transform="translate(0,0)"/>
<path d="" fill="#459B5D" transform="translate(0,0)"/>
<path d="" fill="#479A5F" transform="translate(0,0)"/>
<path d="" fill="#449D5C" transform="translate(0,0)"/>
<path d="" fill="#449E5F" transform="translate(0,0)"/>
<path d="" fill="#469F5E" transform="translate(0,0)"/>
<path d="" fill="#48A164" transform="translate(0,0)"/>
<path d="" fill="#489B5F" transform="translate(0,0)"/>
<path d="" fill="#489B60" transform="translate(0,0)"/>
<path d="" fill="#459E60" transform="translate(0,0)"/>
<path d="" fill="#459B60" transform="translate(0,0)"/>
<path d="" fill="#479B5F" transform="translate(0,0)"/>
<path d="" fill="#4C9C5F" transform="translate(0,0)"/>
<path d="" fill="#48995E" transform="translate(0,0)"/>
<path d="" fill="#499E60" transform="translate(0,0)"/>
<path d="" fill="#479D5F" transform="translate(0,0)"/>
<path d="" fill="#499C5F" transform="translate(0,0)"/>
<path d="" fill="#499C5F" transform="translate(0,0)"/>
<path d="" fill="#479D5F" transform="translate(0,0)"/>
<path d="" fill="#489D5F" transform="translate(0,0)"/>
<path d="" fill="#499B5D" transform="translate(0,0)"/>
<path d="" fill="#489C5E" transform="translate(0,0)"/>
<path d="" fill="#469C5D" transform="translate(0,0)"/>
<path d="" fill="#4A9E61" transform="translate(0,0)"/>
<path d="" fill="#449B5D" transform="translate(0,0)"/>
<path d="" fill="#459C5D" transform="translate(0,0)"/>
<path d="" fill="#469E5F" transform="translate(0,0)"/>
<path d="" fill="#479D5C" transform="translate(0,0)"/>
<path d="" fill="#479B5D" transform="translate(0,0)"/>
<path d="" fill="#43A15E" transform="translate(0,0)"/>
<path d="" fill="#489B61" transform="translate(0,0)"/>
<path d="" fill="#469D5F" transform="translate(0,0)"/>
<path d="" fill="#479D5F" transform="translate(0,0)"/>
<path d="" fill="#489A5E" transform="translate(0,0)"/>
<path d="" fill="#49995D" transform="translate(0,0)"/>
<path d="" fill="#449E5F" transform="translate(0,0)"/>
<path d="" fill="#4A9C60" transform="translate(0,0)"/>
<path d="" fill="#48A262" transform="translate(0,0)"/>
<path d="" fill="#4BA062" transform="translate(0,0)"/>
<path d="" fill="#469E60" transform="translate(0,0)"/>
<path d="" fill="#40975A" transform="translate(0,0)"/>
<path d="" fill="#47A05F" transform="translate(0,0)"/>
<path d="" fill="#469E5E" transform="translate(0,0)"/>
<path d="" fill="#439C5D" transform="translate(0,0)"/>
<path d="" fill="#439F61" transform="translate(0,0)"/>
<path d="" fill="#43A05F" transform="translate(0,0)"/>
<path d="" fill="#439B5D" transform="translate(0,0)"/>
<path d="" fill="#449B5F" transform="translate(0,0)"/>
<path d="" fill="#47A163" transform="translate(0,0)"/>
<path d="" fill="#449E5E" transform="translate(0,0)"/>
<path d="" fill="#439D61" transform="translate(0,0)"/>
<path d="" fill="#49A362" transform="translate(0,0)"/>
<path d="" fill="#459D5D" transform="translate(0,0)"/>
<path d="" fill="#47A05F" transform="translate(0,0)"/>
<path d="" fill="#439C5B" transform="translate(0,0)"/>
<path d="" fill="#449D5D" transform="translate(0,0)"/>
<path d="" fill="#48A162" transform="translate(0,0)"/>
<path d="" fill="#479F5F" transform="translate(0,0)"/>
<path d="" fill="#47A361" transform="translate(0,0)"/>
<path d="" fill="#449E5C" transform="translate(0,0)"/>
<path d="" fill="#449F60" transform="translate(0,0)"/>
<path d="" fill="#47A162" transform="translate(0,0)"/>
<path d="" fill="#47A061" transform="translate(0,0)"/>
<path d="" fill="#469F5F" transform="translate(0,0)"/>
<path d="" fill="#46A162" transform="translate(0,0)"/>
<path d="" fill="#46A362" transform="translate(0,0)"/>
<path d="" fill="#429D5D" transform="translate(0,0)"/>
<path d="" fill="#46A061" transform="translate(0,0)"/>
<path d="" fill="#48A265" transform="translate(0,0)"/>
<path d="" fill="#48A361" transform="translate(0,0)"/>
<path d="" fill="#45A05C" transform="translate(0,0)"/>
<path d="" fill="#459E60" transform="translate(0,0)"/>
<path d="" fill="#44A262" transform="translate(0,0)"/>
<path d="" fill="#43A561" transform="translate(0,0)"/>
<path d="" fill="#47A161" transform="translate(0,0)"/>
<path d="" fill="#44A161" transform="translate(0,0)"/>
<path d="" fill="#419E5D" transform="translate(0,0)"/>
<path d="" fill="#44A062" transform="translate(0,0)"/>
<path d="" fill="#44A463" transform="translate(0,0)"/>
<path d="" fill="#43A461" transform="translate(0,0)"/>
<path d="" fill="#439D5D" transform="translate(0,0)"/>
<path d="" fill="#47A262" transform="translate(0,0)"/>
<path d="" fill="#45A362" transform="translate(0,0)"/>
<path d="" fill="#45A060" transform="translate(0,0)"/>
<path d="" fill="#459F60" transform="translate(0,0)"/>
<path d="" fill="#48A263" transform="translate(0,0)"/>
<path d="" fill="#459F61" transform="translate(0,0)"/>
<path d="" fill="#45A262" transform="translate(0,0)"/>
<path d="" fill="#46A062" transform="translate(0,0)"/>
<path d="" fill="#46A060" transform="translate(0,0)"/>
<path d="" fill="#44A261" transform="translate(0,0)"/>
<path d="" fill="#43A160" transform="translate(0,0)"/>
<path d="" fill="#44A261" transform="translate(0,0)"/>
<path d="" fill="#439F60" transform="translate(0,0)"/>
<path d="" fill="#46A462" transform="translate(0,0)"/>
<path d="" fill="#459F61" transform="translate(0,0)"/>
<path d="" fill="#45A05E" transform="translate(0,0)"/>
<path d="" fill="#49A163" transform="translate(0,0)"/>
<path d="" fill="#439F60" transform="translate(0,0)"/>
<path d="" fill="#439D61" transform="translate(0,0)"/>
<path d="" fill="#47A360" transform="translate(0,0)"/>
<path d="" fill="#47A060" transform="translate(0,0)"/>
<path d="" fill="#46A161" transform="translate(0,0)"/>
<path d="" fill="#45A05F" transform="translate(0,0)"/>
<path d="" fill="#47A161" transform="translate(0,0)"/>
<path d="" fill="#419D5F" transform="translate(0,0)"/>
<path d="" fill="#45A161" transform="translate(0,0)"/>
<path d="" fill="#49A262" transform="translate(0,0)"/>
<path d="" fill="#42A261" transform="translate(0,0)"/>
<path d="" fill="#439E61" transform="translate(0,0)"/>
<path d="" fill="#46A462" transform="translate(0,0)"/>
<path d="" fill="#47A261" transform="translate(0,0)"/>
<path d="" fill="#439F5F" transform="translate(0,0)"/>
<path d="" fill="#48A262" transform="translate(0,0)"/>
<path d="" fill="#49A360" transform="translate(0,0)"/>
<path d="" fill="#45A260" transform="translate(0,0)"/>
<path d="" fill="#44A061" transform="translate(0,0)"/>
<path d="" fill="#479F60" transform="translate(0,0)"/>
<path d="" fill="#47A061" transform="translate(0,0)"/>
<path d="" fill="#43A25F" transform="translate(0,0)"/>
<path d="" fill="#44A561" transform="translate(0,0)"/>
<path d="" fill="#47A161" transform="translate(0,0)"/>
<path d="" fill="#42A15D" transform="translate(0,0)"/>
<path d="" fill="#44A461" transform="translate(0,0)"/>
<path d="" fill="#47A162" transform="translate(0,0)"/>
<path d="" fill="#47A161" transform="translate(0,0)"/>
<path d="" fill="#44A05F" transform="translate(0,0)"/>
<path d="" fill="#48A066" transform="translate(0,0)"/>
<path d="" fill="#44A262" transform="translate(0,0)"/>
<path d="" fill="#45A15F" transform="translate(0,0)"/>
<path d="" fill="#48A462" transform="translate(0,0)"/>
<path d="" fill="#46A061" transform="translate(0,0)"/>
<path d="" fill="#429F5E" transform="translate(0,0)"/>
<path d="" fill="#47A060" transform="translate(0,0)"/>
<path d="" fill="#43A25F" transform="translate(0,0)"/>
<path d="" fill="#42A15E" transform="translate(0,0)"/>
<path d="" fill="#469D62" transform="translate(0,0)"/>
<path d="" fill="#469E60" transform="translate(0,0)"/>
<path d="" fill="#45A15F" transform="translate(0,0)"/>
<path d="" fill="#43A25F" transform="translate(0,0)"/>
<path d="" fill="#47A062" transform="translate(0,0)"/>
<path d="" fill="#499D63" transform="translate(0,0)"/>
<path d="" fill="#45A261" transform="translate(0,0)"/>
<path d="" fill="#48A161" transform="translate(0,0)"/>
<path d="" fill="#439F5E" transform="translate(0,0)"/>
<path d="" fill="#44A15F" transform="translate(0,0)"/>
<path d="" fill="#469F5F" transform="translate(0,0)"/>
<path d="" fill="#469D61" transform="translate(0,0)"/>
<path d="" fill="#43A05E" transform="translate(0,0)"/>
<path d="" fill="#44A161" transform="translate(0,0)"/>
<path d="" fill="#439E60" transform="translate(0,0)"/>
<path d="" fill="#43A05E" transform="translate(0,0)"/>
<path d="" fill="#46A260" transform="translate(0,0)"/>
<path d="" fill="#42A25F" transform="translate(0,0)"/>
<path d="" fill="#49A161" transform="translate(0,0)"/>
<path d="" fill="#4AA164" transform="translate(0,0)"/>
<path d="" fill="#41A160" transform="translate(0,0)"/>
<path d="" fill="#46A260" transform="translate(0,0)"/>
<path d="" fill="#46A060" transform="translate(0,0)"/>
<path d="" fill="#439D60" transform="translate(0,0)"/>
<path d="" fill="#479E5F" transform="translate(0,0)"/>
<path d="" fill="#47A161" transform="translate(0,0)"/>
<path d="" fill="#46A262" transform="translate(0,0)"/>
<path d="" fill="#46A160" transform="translate(0,0)"/>
<path d="" fill="#449F5E" transform="translate(0,0)"/>
<path d="" fill="#48A160" transform="translate(0,0)"/>
<path d="" fill="#439E5C" transform="translate(0,0)"/>
<path d="" fill="#469C60" transform="translate(0,0)"/>
<path d="" fill="#46A161" transform="translate(0,0)"/>
<path d="" fill="#449E5E" transform="translate(0,0)"/>
<path d="" fill="#49A263" transform="translate(0,0)"/>
<path d="" fill="#43A260" transform="translate(0,0)"/>
<path d="" fill="#49A264" transform="translate(0,0)"/>
<path d="" fill="#46A160" transform="translate(0,0)"/>
<path d="" fill="#449E60" transform="translate(0,0)"/>
<path d="" fill="#4C9D62" transform="translate(0,0)"/>
<path d="" fill="#48A262" transform="translate(0,0)"/>
<path d="" fill="#46A060" transform="translate(0,0)"/>
<path d="" fill="#43A161" transform="translate(0,0)"/>
<path d="" fill="#47A260" transform="translate(0,0)"/>
<path d="" fill="#47A05F" transform="translate(0,0)"/>
<path d="" fill="#46A45D" transform="translate(0,0)"/>
<path d="" fill="#4AA063" transform="translate(0,0)"/>
<path d="" fill="#44A162" transform="translate(0,0)"/>
<path d="" fill="#449E61" transform="translate(0,0)"/>
<path d="" fill="#46A262" transform="translate(0,0)"/>
<path d="" fill="#49A562" transform="translate(0,0)"/>
<path d="" fill="#479E5F" transform="translate(0,0)"/>
<path d="" fill="#43A05D" transform="translate(0,0)"/>
<path d="" fill="#41A05C" transform="translate(0,0)"/>
<path d="" fill="#459D5F" transform="translate(0,0)"/>
<path d="" fill="#46A260" transform="translate(0,0)"/>
<path d="" fill="#479F60" transform="translate(0,0)"/>
<path d="" fill="#44A05E" transform="translate(0,0)"/>
<path d="" fill="#47A15E" transform="translate(0,0)"/>
<path d="" fill="#49A162" transform="translate(0,0)"/>
<path d="" fill="#479E60" transform="translate(0,0)"/>
<path d="" fill="#46A363" transform="translate(0,0)"/>
<path d="" fill="#489E62" transform="translate(0,0)"/>
<path d="" fill="#47A161" transform="translate(0,0)"/>
<path d="" fill="#43A05E" transform="translate(0,0)"/>
<path d="" fill="#45A160" transform="translate(0,0)"/>
<path d="" fill="#46A060" transform="translate(0,0)"/>
<path d="" fill="#46A462" transform="translate(0,0)"/>
<path d="" fill="#45A060" transform="translate(0,0)"/>
<path d="" fill="#499F61" transform="translate(0,0)"/>
<path d="" fill="#46A261" transform="translate(0,0)"/>
<path d="" fill="#469F60" transform="translate(0,0)"/>
<path d="" fill="#47A161" transform="translate(0,0)"/>
<path d="" fill="#459F5E" transform="translate(0,0)"/>
<path d="" fill="#47A262" transform="translate(0,0)"/>
<path d="" fill="#43A364" transform="translate(0,0)"/>
<path d="" fill="#45A061" transform="translate(0,0)"/>
<path d="" fill="#46A061" transform="translate(0,0)"/>
<path d="" fill="#489E62" transform="translate(0,0)"/>
<path d="" fill="#49A164" transform="translate(0,0)"/>
<path d="" fill="#4A9D63" transform="translate(0,0)"/>
<path d="" fill="#439E5D" transform="translate(0,0)"/>
<path d="" fill="#4A9C62" transform="translate(0,0)"/>
<path d="" fill="#49A464" transform="translate(0,0)"/>
<path d="" fill="#4C9B63" transform="translate(0,0)"/>
<path d="" fill="#4B9E63" transform="translate(0,0)"/>
<path d="" fill="#47A061" transform="translate(0,0)"/>
<path d="" fill="#499A61" transform="translate(0,0)"/>
<path d="" fill="#449E5E" transform="translate(0,0)"/>
<path d="" fill="#43A061" transform="translate(0,0)"/>
<path d="" fill="#499F63" transform="translate(0,0)"/>
<path d="" fill="#479E5F" transform="translate(0,0)"/>
<path d="" fill="#44A05E" transform="translate(0,0)"/>
<path d="" fill="#49A362" transform="translate(0,0)"/>
<path d="" fill="#4D9A64" transform="translate(0,0)"/>
<path d="" fill="#43A05F" transform="translate(0,0)"/>
<path d="" fill="#509663" transform="translate(0,0)"/>
<path d="" fill="#4A9861" transform="translate(0,0)"/>
<path d="" fill="#4AA064" transform="translate(0,0)"/>
<path d="" fill="#4D9A64" transform="translate(0,0)"/>
<path d="" fill="#4E9962" transform="translate(0,0)"/>
<path d="" fill="#49A262" transform="translate(0,0)"/>
<path d="" fill="#4A9F63" transform="translate(0,0)"/>
<path d="" fill="#439E5D" transform="translate(0,0)"/>
<path d="" fill="#4B9D5E" transform="translate(0,0)"/>
<path d="" fill="#4A9561" transform="translate(0,0)"/>
<path d="" fill="#4C9D60" transform="translate(0,0)"/>
<path d="" fill="#45A060" transform="translate(0,0)"/>
<path d="" fill="#48A163" transform="translate(0,0)"/>
<path d="" fill="#539262" transform="translate(0,0)"/>
<path d="" fill="#4E9663" transform="translate(0,0)"/>
<path d="" fill="#479F61" transform="translate(0,0)"/>
<path d="" fill="#439B5D" transform="translate(0,0)"/>
<path d="" fill="#47A061" transform="translate(0,0)"/>
<path d="" fill="#4A9C61" transform="translate(0,0)"/>
<path d="" fill="#489B61" transform="translate(0,0)"/>
<path d="" fill="#508F61" transform="translate(0,0)"/>
<path d="" fill="#499B60" transform="translate(0,0)"/>
<path d="" fill="#499B5F" transform="translate(0,0)"/>
<path d="" fill="#499A5F" transform="translate(0,0)"/>
<path d="" fill="#469D60" transform="translate(0,0)"/>
<path d="" fill="#449C60" transform="translate(0,0)"/>
<path d="" fill="#449C61" transform="translate(0,0)"/>
<path d="" fill="#439A5F" transform="translate(0,0)"/>
<path d="" fill="#479F60" transform="translate(0,0)"/>
<path d="" fill="#4B9361" transform="translate(0,0)"/>
<path d="" fill="#4F9463" transform="translate(0,0)"/>
<path d="" fill="#439C62" transform="translate(0,0)"/>
<path d="" fill="#47A161" transform="translate(0,0)"/>
<path d="" fill="#469E60" transform="translate(0,0)"/>
<path d="" fill="#4D915E" transform="translate(0,0)"/>
<path d="" fill="#429C5F" transform="translate(0,0)"/>
<path d="" fill="#548B61" transform="translate(0,0)"/>
<path d="" fill="#4F9462" transform="translate(0,0)"/>
<path d="" fill="#4C965F" transform="translate(0,0)"/>
<path d="" fill="#449F62" transform="translate(0,0)"/>
<path d="" fill="#479C5F" transform="translate(0,0)"/>
<path d="" fill="#509462" transform="translate(0,0)"/>
<path d="" fill="#4C8F5F" transform="translate(0,0)"/>
<path d="" fill="#509062" transform="translate(0,0)"/>
<path d="" fill="#4F9061" transform="translate(0,0)"/>
<path d="" fill="#479F60" transform="translate(0,0)"/>
<path d="" fill="#4E8E5E" transform="translate(0,0)"/>
<path d="" fill="#479D5F" transform="translate(0,0)"/>
<path d="" fill="#479E62" transform="translate(0,0)"/>
<path d="" fill="#409B5E" transform="translate(0,0)"/>
<path d="" fill="#519161" transform="translate(0,0)"/>
<path d="" fill="#4C8C5E" transform="translate(0,0)"/>
<path d="" fill="#538C63" transform="translate(0,0)"/>
<path d="" fill="#4E8B5D" transform="translate(0,0)"/>
<path d="" fill="#449B5E" transform="translate(0,0)"/>
<path d="" fill="#518D61" transform="translate(0,0)"/>
<path d="" fill="#4E8C5E" transform="translate(0,0)"/>
<path d="" fill="#449A5E" transform="translate(0,0)"/>
<path d="" fill="#439B60" transform="translate(0,0)"/>
<path d="" fill="#518E61" transform="translate(0,0)"/>
<path d="" fill="#4C8A5E" transform="translate(0,0)"/>
<path d="" fill="#4C8C5D" transform="translate(0,0)"/>
<path d="" fill="#528B61" transform="translate(0,0)"/>
<path d="" fill="#538B60" transform="translate(0,0)"/>
<path d="" fill="#4F8A5F" transform="translate(0,0)"/>
<path d="" fill="#469B5F" transform="translate(0,0)"/>
<path d="" fill="#4F895E" transform="translate(0,0)"/>
<path d="" fill="#449A5E" transform="translate(0,0)"/>
<path d="" fill="#479B5F" transform="translate(0,0)"/>
<path d="" fill="#4C885C" transform="translate(0,0)"/>
<path d="" fill="#4F885F" transform="translate(0,0)"/>
<path d="" fill="#4F885D" transform="translate(0,0)"/>
<path d="" fill="#489C5F" transform="translate(0,0)"/>
<path d="" fill="#538960" transform="translate(0,0)"/>
<path d="" fill="#578462" transform="translate(0,0)"/>
<path d="" fill="#4D855C" transform="translate(0,0)"/>
<path d="" fill="#489D61" transform="translate(0,0)"/>
<path d="" fill="#469D5E" transform="translate(0,0)"/>
<path d="" fill="#578161" transform="translate(0,0)"/>
<path d="" fill="#50855D" transform="translate(0,0)"/>
<path d="" fill="#4D835C" transform="translate(0,0)"/>
<path d="" fill="#4D9D65" transform="translate(0,0)"/>
</svg>
