<?xml version="1.0" encoding="UTF-8"?>
<svg version="1.1" xmlns="http://www.w3.org/2000/svg" width="1280" height="853">
<path d="M0 0 C1.84239773 -0.00300337 3.68479484 -0.00640853 5.52719116 -0.01017761 C10.46521217 -0.01889792 15.40321578 -0.02135047 20.34124374 -0.0219934 C23.44043909 -0.02271028 26.53963018 -0.02485638 29.63882446 -0.02749062 C40.49001338 -0.03670138 51.34119012 -0.04083051 62.19238281 -0.04003906 C72.24668357 -0.03943805 82.30093073 -0.05000566 92.35521793 -0.06578273 C101.0437625 -0.07892242 109.73228967 -0.08422034 118.42084408 -0.08358365 C123.58556453 -0.08333074 128.75023712 -0.08606692 133.91494751 -0.0967617 C138.77429751 -0.10655304 143.63355491 -0.10644761 148.49290848 -0.09924507 C150.25833906 -0.09821309 152.02377577 -0.10047766 153.78919601 -0.10660553 C163.00838025 -0.13649117 172.13065549 0.13654083 181.3137207 0.99638367 C182.53115731 1.10482533 182.53115731 1.10482533 183.77318859 1.21545774 C201.23579615 3.03093633 215.32003899 13.14583519 226.60546875 26.14526367 C235.10924162 37.53249975 239.93256958 50.00775748 239.86616516 64.23347473 C239.86999071 65.11459622 239.87381626 65.9957177 239.87775773 66.90353984 C239.88802627 69.83809874 239.88410729 72.77245972 239.88012695 75.70703125 C239.88447686 77.81841715 239.88966094 79.92980148 239.89561462 82.04118347 C239.90898671 87.76442413 239.90958521 93.48759868 239.90705132 99.21085191 C239.90598027 103.99447874 239.91086849 108.77809228 239.91565675 113.56171626 C239.92674602 124.85105016 239.92719277 136.14035079 239.92114258 147.4296875 C239.91510427 159.0619492 239.92741156 170.6940899 239.94871265 182.32633096 C239.96634794 192.32574 239.97232691 202.32511059 239.9690749 212.3245346 C239.96726478 218.29120181 239.96987113 224.25778272 239.98378944 230.22443581 C239.99639427 235.83792564 239.99439847 241.45122738 239.98137856 247.06471443 C239.97901891 249.1193371 239.9817254 251.17397312 239.99000168 253.22858047 C240.05991663 271.94149123 236.97142327 288.30611825 224.60546875 303.14526367 C223.94546875 303.14526367 223.28546875 303.14526367 222.60546875 303.14526367 C221.94546875 304.46526367 221.28546875 305.78526367 220.60546875 307.14526367 C219.94546875 307.14526367 219.28546875 307.14526367 218.60546875 307.14526367 C218.60546875 307.80526367 218.60546875 308.46526367 218.60546875 309.14526367 C201.8493485 323.37564521 184.72681605 325.7511071 163.4921875 325.6628418 C161.28626038 325.66827138 159.08033688 325.67539871 156.87442017 325.68408203 C150.91986209 325.70221865 144.96558322 325.69528784 139.01102066 325.68256569 C132.75823504 325.67238779 126.50547218 325.68184461 120.25268555 325.68811035 C109.08432947 325.69583707 97.91607519 325.68346254 86.74774349 325.663073 C76.64849833 325.6452052 66.54943716 325.6483103 56.45019531 325.66674805 C44.68503071 325.68821754 32.91995558 325.69608855 21.15477085 325.68429899 C14.94048717 325.67808597 8.72632984 325.67716791 2.51205444 325.69044495 C-3.33222597 325.70206089 -9.17616139 325.69387307 -15.02040482 325.67086792 C-17.15600641 325.66561143 -19.2916374 325.66704164 -21.42722702 325.67591858 C-40.60634279 325.74824599 -58.79867644 323.03014561 -73.39453125 309.14526367 C-73.39453125 308.48526367 -73.39453125 307.82526367 -73.39453125 307.14526367 C-74.05453125 307.14526367 -74.71453125 307.14526367 -75.39453125 307.14526367 C-75.39453125 306.48526367 -75.39453125 305.82526367 -75.39453125 305.14526367 C-76.05453125 305.14526367 -76.71453125 305.14526367 -77.39453125 305.14526367 C-77.39453125 304.48526367 -77.39453125 303.82526367 -77.39453125 303.14526367 C-78.05453125 303.14526367 -78.71453125 303.14526367 -79.39453125 303.14526367 C-80.95842789 301.05000446 -82.37778079 298.97653177 -83.76953125 296.77026367 C-84.17437744 296.13338623 -84.57922363 295.49650879 -84.99633789 294.84033203 C-88.11442713 289.8247691 -90.60600778 284.78884291 -92.39453125 279.14526367 C-92.72729978 278.10981257 -93.0600683 277.07436148 -93.40292072 276.00753307 C-94.44083406 271.96491675 -94.83896618 268.11712619 -95.01420593 263.970047 C-95.05188542 263.19021259 -95.08956491 262.41037819 -95.1283862 261.60691243 C-95.53331864 252.38936798 -95.51480655 243.17306204 -95.47973633 233.94873047 C-95.47612934 231.99675056 -95.47292698 230.04476988 -95.47009277 228.0927887 C-95.46082416 222.84932275 -95.44451439 217.60590437 -95.42572236 212.36246467 C-95.41400156 209.07740284 -95.40336077 205.79233904 -95.39298058 202.50727272 C-95.35985949 192.20071643 -95.32192697 181.89419289 -95.27761537 171.58767861 C-95.22679425 159.73906905 -95.19259884 147.89056172 -95.17243463 136.04186124 C-95.15572395 126.84214868 -95.12381887 117.6425649 -95.08058852 108.4429391 C-95.0551993 102.96484826 -95.03617298 97.48691705 -95.03321266 92.00876427 C-95.03004554 86.8612176 -95.00792031 81.71408794 -94.9716568 76.56667137 C-94.96160508 74.68706138 -94.95818716 72.80740132 -94.96218681 70.92776871 C-94.99664674 50.88290737 -90.16395536 34.60817237 -76.07421875 19.68823242 C-62.96787498 7.31938388 -48.00860517 1.42129548 -30.23168945 0.59184265 C-29.35237668 0.5497422 -28.47306391 0.50764175 -27.56710529 0.46426553 C-18.37724178 0.05436337 -9.19744096 -0.00306184 0 0 Z " fill="#66AA46" transform="translate(566.39453125,253.854736328125)"/>
<path d="M0 0 C12.97923935 9.48918225 19.22994023 22.78440886 22.04931641 38.31835938 C23.6134452 48.7583027 23.32899348 59.31116355 23.3359375 69.84375 C23.34237384 72.14489828 23.34910281 74.44604577 23.35610962 76.74719238 C23.36802336 81.54469707 23.37179588 86.34213002 23.37060547 91.13964844 C23.37040109 97.28767142 23.39785233 103.43523835 23.43214989 109.58315277 C23.45435893 114.32375208 23.45844507 119.06423985 23.45738602 123.80488586 C23.45974527 126.07271415 23.46858694 128.34054536 23.48405075 130.60832214 C23.50361531 133.76981132 23.49791289 136.93029197 23.48583984 140.09179688 C23.49707886 141.02587372 23.50831787 141.95995056 23.51989746 142.92233276 C23.47883287 147.14754841 23.37426639 149.39956725 21.09463501 153.0567627 C18.26291139 155.68381273 16.73624467 156.12667967 12.98095703 156.19287109 C12.15314728 156.20893402 11.32533752 156.22499695 10.47244263 156.24154663 C6.68980728 156.28598419 2.90734692 156.32705058 -0.87548828 156.35009766 C-2.87170051 156.36667047 -4.86785309 156.39397791 -6.86376953 156.43212891 C-9.74022228 156.48683241 -12.61528502 156.50875991 -15.4921875 156.5234375 C-16.82985672 156.55744156 -16.82985672 156.55744156 -18.19454956 156.59213257 C-19.02866364 156.58928253 -19.86277771 156.5864325 -20.72216797 156.58349609 C-21.81898392 156.59562637 -21.81898392 156.59562637 -22.93795776 156.60800171 C-26.30122879 155.61632729 -27.25966642 154.00044224 -29 151 C-29.56392596 147.91602468 -29.53350447 144.89085133 -29.49829102 141.76269531 C-29.50380981 140.84007904 -29.50932861 139.91746277 -29.51501465 138.96688843 C-29.52432678 136.96715674 -29.52444633 134.96736574 -29.51642036 132.96762848 C-29.50378294 129.79719002 -29.51508886 126.62762131 -29.53245544 123.45721436 C-29.55917121 117.8645313 -29.56475093 112.27206125 -29.56335449 106.67932129 C-29.56112764 97.74231667 -29.5753689 88.80557693 -29.61894035 79.86867523 C-29.62874287 76.75501979 -29.6200778 73.64178375 -29.61024475 70.52813721 C-29.61639335 68.60371634 -29.62330654 66.67929771 -29.63110352 64.75488281 C-29.62338425 63.89742462 -29.61566498 63.03996643 -29.60771179 62.15652466 C-29.66807913 54.89454065 -31.16231633 48.78277814 -35.1875 42.6875 C-42.61633978 35.58883088 -51.01549904 34.54621443 -60.90234375 34.71875 C-68.89921704 35.0856632 -75.45335513 38.32129216 -81 44 C-84.35121142 48.78436615 -86.11646261 53.22848451 -86.13803101 59.05393982 C-86.14348434 59.85155731 -86.14893768 60.6491748 -86.15455627 61.47096252 C-86.15611977 62.77008827 -86.15611977 62.77008827 -86.15771484 64.09545898 C-86.16279556 65.01460083 -86.16787628 65.93374268 -86.17311096 66.8807373 C-86.18380375 68.87505074 -86.1924282 70.86937609 -86.19923019 72.86370659 C-86.21102733 76.02012768 -86.23048136 79.17641246 -86.25234985 82.33277893 C-86.31394606 91.30652338 -86.36804707 100.28025283 -86.40136719 109.25415039 C-86.42230065 114.74425709 -86.45759042 120.23411346 -86.50212479 125.72407722 C-86.51629217 127.8160209 -86.52500888 129.90800884 -86.52817917 131.99999809 C-86.53308256 134.92531458 -86.55622507 137.84996511 -86.58349609 140.77514648 C-86.58048996 141.63920609 -86.57748383 142.50326569 -86.5743866 143.39350891 C-86.63877944 148.03990695 -86.88927068 151.28175769 -90 155 C-92.66748431 155.88916144 -94.28361989 156.14297987 -97.02490234 156.19287109 C-97.82938812 156.20893402 -98.6338739 156.22499695 -99.46273804 156.24154663 C-103.13139837 156.28614742 -106.79988195 156.32704261 -110.46875 156.35009766 C-112.40279157 156.36666959 -114.33677159 156.39397593 -116.27050781 156.43212891 C-119.06347311 156.48692096 -121.85500703 156.50877242 -124.6484375 156.5234375 C-125.51004486 156.54610687 -126.37165222 156.56877625 -127.2593689 156.59213257 C-128.070159 156.58928253 -128.8809491 156.5864325 -129.71630859 156.58349609 C-130.42451752 156.59158295 -131.13272644 156.5996698 -131.86239624 156.60800171 C-135.24357479 155.64628824 -136.76943477 153.65543232 -139 151 C-139.62082577 147.99365234 -139.62082577 147.99365234 -139.61473083 144.5859375 C-139.62449448 143.29051025 -139.63425812 141.99508301 -139.64431763 140.66040039 C-139.62981287 139.23192865 -139.61481213 137.80346187 -139.59936523 136.375 C-139.60122979 134.86514889 -139.60526751 133.35529914 -139.61131287 131.84545898 C-139.62128555 127.75024432 -139.60012072 123.65572209 -139.57283282 119.56060791 C-139.54899295 115.27349184 -139.55194769 110.98638929 -139.55152893 106.69921875 C-139.54690128 99.49988086 -139.52326291 92.30080747 -139.48706055 85.1015625 C-139.44532728 76.78033374 -139.42774564 68.45934316 -139.4244408 60.13801575 C-139.42083958 51.27623518 -139.40196182 42.41454022 -139.37732053 33.55279541 C-139.37109504 31.00052862 -139.36745673 28.44826834 -139.36428642 25.89599609 C-139.35837988 21.88388176 -139.34205021 17.87193714 -139.31768227 13.8598938 C-139.31025012 12.38812573 -139.30617084 10.91633632 -139.30570221 9.44454956 C-139.30444174 7.4343601 -139.28963319 5.42419277 -139.27415466 3.4140625 C-139.26950416 2.2895166 -139.26485365 1.1649707 -139.26006222 0.00634766 C-138.99671826 -3.03793733 -138.2892302 -5.24657061 -137 -8 C-130.48554795 -8.0505939 -123.97114632 -8.08568856 -117.45654297 -8.10986328 C-115.23907579 -8.11993825 -113.02162195 -8.13359859 -110.80419922 -8.15087891 C-107.62203688 -8.17506163 -104.44004976 -8.18646797 -101.2578125 -8.1953125 C-99.76400558 -8.21079636 -99.76400558 -8.21079636 -98.24002075 -8.22659302 C-96.85881546 -8.22681961 -96.85881546 -8.22681961 -95.44970703 -8.22705078 C-94.6369632 -8.231492 -93.82421936 -8.23593323 -92.98684692 -8.24050903 C-91 -8 -91 -8 -89 -6 C-88.68115234 -3.84521484 -88.68115234 -3.84521484 -88.5859375 -1.2109375 C-88.52792969 0.20058594 -88.52792969 0.20058594 -88.46875 1.640625 C-88.4378125 2.62546875 -88.406875 3.6103125 -88.375 4.625 C-88.31699219 6.11386719 -88.31699219 6.11386719 -88.2578125 7.6328125 C-88.1633686 10.08835385 -88.07780125 12.5438841 -88 15 C-87.55519287 14.39115967 -87.11038574 13.78231934 -86.65209961 13.1550293 C-66.27688246 -14.46776932 -28.04419647 -19.23323086 0 0 Z " fill="#FCFDFC" transform="translate(698,345)"/>
<path d="M0 0 C0.91058531 3.07322544 1.08886184 5.80097361 1 9 C1.66 9 2.32 9 3 9 C3 32.1 3 55.2 3 79 C2.01 79.495 2.01 79.495 1 80 C-0.03180268 81.97336023 -0.99894815 83.98062193 -1.9375 86 C-10.37007619 103.4679667 -22.16640771 119.12034779 -35.40234375 133.21484375 C-37.72292198 135.70292237 -39.96258335 138.23925981 -42.1875 140.8125 C-45.19508532 144.209732 -48.357023 147.21094268 -51.82421875 150.1328125 C-54.33202998 152.28493776 -56.71715722 154.5491983 -59.125 156.8125 C-63.38851777 160.70579634 -67.8044918 164.20430467 -72.5 167.5625 C-73.0995752 167.99216064 -73.69915039 168.42182129 -74.31689453 168.86450195 C-76.86525222 170.65111045 -79.02991241 172.0099708 -82 173 C-82.25574417 164.28988393 -82.45074481 155.58107391 -82.56993389 146.86801243 C-82.6271646 142.82121551 -82.70466421 138.77700025 -82.82983398 134.73168945 C-82.95005087 130.8216293 -83.01526077 126.91403808 -83.04364967 123.00227165 C-83.06385609 121.51608342 -83.10332214 120.03001907 -83.16303062 118.54489326 C-83.61094737 106.93380345 -83.61094737 106.93380345 -79.69161987 102.22898865 C-76.89380967 99.94697975 -74.025128 97.9663026 -71 96 C-68.86117159 94.14018349 -66.92490624 92.16448617 -64.921875 90.15234375 C-64.42133606 89.65134659 -63.92079712 89.15034943 -63.40509033 88.63417053 C-62.36792113 87.59403144 -61.3331286 86.55151679 -60.30078125 85.5065918 C-58.74275872 83.93017322 -57.17674193 82.36204482 -55.609375 80.79492188 C-33.3367846 58.44645167 -15.46038436 32.92472307 -2.4609375 4.1484375 C-1 1 -1 1 0 0 Z " fill="#478F2C" transform="translate(803,308)"/>
<path d="M0 0 C1.36125 0.86625 1.36125 0.86625 2.75 1.75 C7.98742734 6.98742734 10.56138549 11.82258717 10.62210083 19.2780304 C10.59513626 20.62347176 10.59513626 20.62347176 10.56762695 21.99609375 C10.56835709 22.96286545 10.56908722 23.92963715 10.56983948 24.92570496 C10.5663773 28.09688934 10.52758025 31.26657465 10.48828125 34.4375 C10.47894828 36.64566241 10.47183445 38.85383522 10.46684265 41.06201172 C10.44781122 46.85562042 10.39874297 52.64859592 10.34332275 58.44195557 C10.29204742 64.36095618 10.26931089 70.28005975 10.24414062 76.19921875 C10.19062104 87.79975637 10.10535449 99.3998254 10 111 C9.67 111 9.34 111 9 111 C9 98.46 9 85.92 9 73 C1.575 77.455 1.575 77.455 -6 82 C-10.03692412 84.38385157 -14.07619724 86.76162438 -18.125 89.125 C-19.15399414 89.72755615 -20.18298828 90.3301123 -21.24316406 90.95092773 C-27.60685427 94.66073608 -34.00132993 98.21377063 -40.609375 101.47265625 C-43.41404713 103.26453011 -44.98204489 105.37798946 -47 108 C-47.069609 96.27327759 -47.12286669 84.5466046 -47.15543652 72.81971741 C-47.17107093 67.37404058 -47.19226869 61.92850545 -47.22631836 56.48291016 C-47.25899095 51.22445285 -47.27686974 45.96613157 -47.28463173 40.70758057 C-47.29016105 38.70458842 -47.30095844 36.70160344 -47.31719017 34.69866943 C-47.33906936 31.88619077 -47.34196254 29.07426927 -47.34057617 26.26171875 C-47.351362 25.43956375 -47.36214783 24.61740875 -47.3732605 23.77033997 C-47.32845219 15.33144201 -44.73415041 8.97906793 -38.96875 2.76171875 C-28.96536385 -6.18972402 -11.17408477 -7.16734168 0 0 Z " fill="#5EA63E" transform="translate(658,383)"/>
<path d="M0 0 C0.66 0 1.32 0 2 0 C2.04676745 17.8547892 2.08201209 35.70956246 2.10362434 53.56439972 C2.11392702 61.85512848 2.12796804 70.14581914 2.15087891 78.43652344 C2.1708437 85.6645973 2.18372377 92.89264356 2.18817699 100.12074423 C2.19077914 103.94623833 2.19687425 107.77165346 2.21146011 111.59712219 C2.22509288 115.20202382 2.22921119 118.80681439 2.22621536 122.41173935 C2.22702297 124.35683361 2.2377547 126.30191593 2.24884033 128.24697876 C2.23411367 134.52555146 1.87818563 139.9957133 0 146 C-2 144 -2 144 -2.01171875 141.9765625 C-1.90472656 141.20054687 -1.79773438 140.42453125 -1.6875 139.625 C-1.58824219 138.85414063 -1.48898437 138.08328125 -1.38671875 137.2890625 C-1 135 -1 135 -0.48097324 133.13376236 C0.03039805 130.8651438 0.10754634 128.89426342 0.08229065 126.57073975 C0.07173141 125.24988373 0.07173141 125.24988373 0.06095886 123.90234375 C0.04801285 122.94424805 0.03506683 121.98615234 0.02172852 120.99902344 C0.01212097 119.98406799 0.00251343 118.96911255 -0.00738525 117.92340088 C-0.04036588 114.56865481 -0.08070199 111.21403935 -0.12109375 107.859375 C-0.14539577 105.53339091 -0.16923929 103.207402 -0.19264221 100.88140869 C-0.25547494 94.75918067 -0.32454401 88.63703818 -0.39489746 82.51489258 C-0.46558815 76.26778052 -0.53040073 70.0206078 -0.59570312 63.7734375 C-0.72470505 51.51555834 -0.86029315 39.2577615 -1 27 C-1.68163208 28.0296991 -2.36326416 29.05939819 -3.06555176 30.12030029 C-3.97135786 31.48487416 -4.87724598 32.84939359 -5.78320312 34.21386719 C-6.23109192 34.89093719 -6.67898071 35.5680072 -7.14044189 36.26559448 C-10.37000816 41.12472789 -13.75489324 45.77251141 -17.5 50.25 C-18.04261475 50.90911377 -18.58522949 51.56822754 -19.14428711 52.24731445 C-23.24436243 57.19062075 -27.49518605 61.97376583 -31.87890625 66.66796875 C-33.32858991 68.26181985 -34.71932404 69.91077911 -36.0546875 71.6015625 C-37.78582073 73.73593159 -39.46682901 75.42677426 -41.5625 77.1875 C-44.84021193 79.97627148 -47.98877289 82.86564743 -51.125 85.8125 C-55.78876402 90.07521913 -60.67282017 93.76400828 -65.85327148 97.37231445 C-70.39435452 100.5369308 -74.73058815 103.89500339 -79.01171875 107.40625 C-81 109 -81 109 -84 111 C-84.57548668 95.95271589 -84.57548668 95.95271589 -81.05859375 91.59375 C-78.4499409 89.8628129 -75.77871521 88.43952885 -73 87 C-71.32249818 85.74973692 -69.67608917 84.45672824 -68.0625 83.125 C-66.83660156 82.12919922 -66.83660156 82.12919922 -65.5859375 81.11328125 C-64.73257813 80.41589844 -63.87921875 79.71851563 -63 79 C-62.04351563 78.23042969 -61.08703125 77.46085937 -60.1015625 76.66796875 C-59.13992188 75.89066406 -58.17828125 75.11335938 -57.1875 74.3125 C-56.31480469 73.60738281 -55.44210937 72.90226562 -54.54296875 72.17578125 C-51.88092421 69.89811795 -49.44434208 67.51010913 -47 65 C-46.47559326 64.46479736 -45.95118652 63.92959473 -45.41088867 63.37817383 C-27.17212106 44.65882671 -11.44911459 23.58862804 0 0 Z " fill="#62A73F" transform="translate(804,387)"/>
<path d="M0 0 C1.85788507 -0.00135839 3.71576987 -0.00314076 5.57365417 -0.00531006 C10.57328472 -0.00983078 15.5728944 -0.00811752 20.57252526 -0.00493097 C25.82619799 -0.00238136 31.07986906 -0.00475194 36.33354187 -0.00631714 C45.14684364 -0.00813048 53.96013701 -0.00575367 62.7734375 -0.00097656 C72.94426499 0.0044729 83.11507245 0.00269506 93.28589946 -0.00280297 C102.04637234 -0.00734786 110.80683922 -0.00797816 119.5673129 -0.0053643 C124.78766438 -0.00381019 130.00800645 -0.00358413 135.22835732 -0.00690079 C140.13273236 -0.00979982 145.03708166 -0.00776658 149.94145393 -0.00200653 C151.73526721 -0.00069018 153.52908266 -0.00105383 155.32289505 -0.0032692 C163.94279045 -0.01292954 172.44721466 0.03585798 181.0144043 1.12939453 C180.6844043 1.78939453 180.3544043 2.44939453 180.0144043 3.12939453 C109.3944043 3.12939453 38.7744043 3.12939453 -33.9855957 3.12939453 C-33.9855957 2.46939453 -33.9855957 1.80939453 -33.9855957 1.12939453 C-22.6392718 0.19955862 -11.37921598 -0.01414069 0 0 Z " fill="#BAE44B" transform="translate(565.985595703125,253.87060546875)"/>
<path d="M0 0 C0.33 0 0.66 0 1 0 C1.89434876 6.88367505 2.14828729 13.60601989 2.14526367 20.54321289 C2.15030159 22.22303001 2.15030159 22.22303001 2.15544128 23.93678284 C2.16489178 27.61541878 2.16689111 31.29400895 2.16796875 34.97265625 C2.17118434 37.54137694 2.17454864 40.11009744 2.17805481 42.67881775 C2.18403052 48.05256656 2.18593921 53.42629736 2.18530273 58.80004883 C2.18470134 64.99569582 2.19527278 71.19125593 2.2110464 77.38688093 C2.22573292 83.37070147 2.22928993 89.35447501 2.22869301 95.33831596 C2.22987134 97.87438755 2.23428489 100.41045981 2.24202538 102.94651985 C2.25184092 106.49314705 2.24894137 110.03955071 2.24291992 113.58618164 C2.24853943 114.6279657 2.25415894 115.66974976 2.25994873 116.74310303 C2.23510067 122.51325216 1.65814495 127.46626461 0 133 C-2 131 -2 131 -2.01171875 128.9765625 C-1.90472656 128.20054687 -1.79773438 127.42453125 -1.6875 126.625 C-1.58824219 125.85414063 -1.48898437 125.08328125 -1.38671875 124.2890625 C-1 122 -1 122 -0.48334599 120.16698074 C0.06081921 117.72732977 0.12291381 115.53898359 0.12025452 113.03924561 C0.12231651 111.54169235 0.12231651 111.54169235 0.12442017 110.0138855 C0.11902725 108.38037643 0.11902725 108.38037643 0.11352539 106.71386719 C0.11367142 105.56236176 0.11381744 104.41085632 0.1139679 103.22445679 C0.11327078 99.41524375 0.1054877 95.6060795 0.09765625 91.796875 C0.09579136 89.15700304 0.09436779 86.51713073 0.09336853 83.8772583 C0.09026147 77.63708966 0.08205651 71.39693855 0.07201904 65.15677762 C0.06083849 58.05162297 0.05534256 50.94646747 0.05032361 43.84130621 C0.03987338 29.22752843 0.02228603 14.61376446 0 0 Z " fill="#4C9B2A" transform="translate(804,400)"/>
<path d="M0 0 C0.33 0 0.66 0 1 0 C1.02319011 8.51897428 1.04094909 17.03793534 1.05181217 25.5569334 C1.0570264 29.51282048 1.06409754 33.46868592 1.07543945 37.42456055 C1.08632021 41.2435763 1.09228784 45.06257127 1.09487724 48.88160133 C1.09672214 50.33721048 1.10032474 51.79281852 1.10573006 53.24841881 C1.11300936 55.29023047 1.11398804 57.33195671 1.11352539 59.3737793 C1.115746 60.53515915 1.11796661 61.696539 1.12025452 62.89311218 C1.01089009 65.71864428 0.64888537 68.25406367 0 71 C-0.33 71 -0.66 71 -1 71 C-2.33672022 64.04388881 -2.04493102 57.13553971 -1.9140625 50.078125 C-1.89225924 48.72768707 -1.87081123 47.37724337 -1.84970093 46.02679443 C-1.80441324 43.2093581 -1.7552113 40.39202566 -1.703125 37.57470703 C-1.63664648 33.96454566 -1.57945813 30.35430785 -1.52509499 26.74394608 C-1.48226954 23.96095457 -1.43484706 21.17805621 -1.38599777 18.39516449 C-1.35201676 16.4170684 -1.32168978 14.43891064 -1.29141235 12.46075439 C-1.26823944 11.26230896 -1.24506653 10.06386353 -1.22119141 8.82910156 C-1.20263092 7.77321838 -1.18407043 6.71733521 -1.16494751 5.62945557 C-1 3 -1 3 0 0 Z " fill="#549F37" transform="translate(473,444)"/>
<path d="M0 0 C3.55222181 0.34655823 6.64307514 1.19248508 9.9375 2.5 C13.59682611 3.94410188 17.08433393 4.5393334 21 5 C21.99 5.33 22.98 5.66 24 6 C26.39490986 6.06970052 28.79167691 6.08448003 31.1875 6.0625 C32.45980469 6.05347656 33.73210938 6.04445313 35.04296875 6.03515625 C36.01878906 6.02355469 36.99460937 6.01195312 38 6 C38 6.66 38 7.32 38 8 C8.66824476 9.09164849 8.66824476 9.09164849 -1 1 C-0.67 0.67 -0.34 0.34 0 0 Z " fill="#226B17" transform="translate(509,571)"/>
<path d="M0 0 C0.66 0.66 1.32 1.32 2 2 C1.67 2.66 1.34 3.32 1 4 C0.34 4 -0.32 4 -1 4 C-1.66 5.32 -2.32 6.64 -3 8 C-3.66 8 -4.32 8 -5 8 C-5 8.66 -5 9.32 -5 10 C-7.23046875 11.9453125 -7.23046875 11.9453125 -10.1875 14.125 C-11.15042969 14.84945312 -12.11335937 15.57390625 -13.10546875 16.3203125 C-16.12119633 18.07032986 -17.59091336 18.3864047 -21 18 C-17.83186223 14.41862687 -14.15034444 12.03770458 -10.18359375 9.4453125 C-6.08371259 6.73161656 -2.77154275 4.08437879 0 0 Z " fill="#4D9F2C" transform="translate(790,553)"/>
<path d="M0 0 C5.03163018 4.29785078 10.02718443 8.63425542 15 13 C14.34 13.66 13.68 14.32 13 15 C11.82780457 14.21654285 10.66236332 13.42297164 9.5 12.625 C8.8503125 12.18414063 8.200625 11.74328125 7.53125 11.2890625 C7.0259375 10.86367188 6.520625 10.43828125 6 10 C6 9.34 6 8.68 6 8 C5.34 8 4.68 8 4 8 C4 7.34 4 6.68 4 6 C3.34 6 2.68 6 2 6 C2 5.34 2 4.68 2 4 C1.34 4 0.68 4 0 4 C-0.33 3.01 -0.66 2.02 -1 1 C-0.67 0.67 -0.34 0.34 0 0 Z " fill="#216C19" transform="translate(487,553)"/>
<path d="M0 0 C3.44682579 5.17023869 3.06347297 8.97365319 2 15 C2.66 15.33 3.32 15.66 4 16 C2.68 17.65 1.36 19.3 0 21 C0 14.07 0 7.14 0 0 Z " fill="#92CB76" transform="translate(609,341)"/>
<path d="M0 0 C2.44219959 2.29507914 4.35399474 4.73882729 6.25 7.5 C6.79140625 8.2734375 7.3328125 9.046875 7.890625 9.84375 C8.25671875 10.5553125 8.6228125 11.266875 9 12 C8.67 12.99 8.34 13.98 8 15 C3.4434473 11.28725335 1.42599607 6.20992598 -1 1 C-0.67 0.67 -0.34 0.34 0 0 Z " fill="#256F1D" transform="translate(478,539)"/>
<path d="M0 0 C0.99 0.33 1.98 0.66 3 1 C3.984375 3.6171875 3.984375 3.6171875 4.75 6.875 C5.01296875 7.94492187 5.2759375 9.01484375 5.546875 10.1171875 C6 13 6 13 5 16 C3.13389074 13.20083611 2.31214617 11.18061731 1.375 8 C1.11460937 7.13375 0.85421875 6.2675 0.5859375 5.375 C0 3 0 3 0 0 Z " fill="#2A761A" transform="translate(472,523)"/>
<path d="M0 0 C0.66 0.33 1.32 0.66 2 1 C0.68 2.32 -0.64 3.64 -2 5 C-2 2 -2 2 0 0 Z M-3 4 C-3.25 5.875 -3.25 5.875 -4 8 C-6 9.125 -6 9.125 -8 10 C-8.33 10.66 -8.66 11.32 -9 12 C-9.66 12 -10.32 12 -11 12 C-9.48291727 8.46014029 -7.24676932 4 -3 4 Z " fill="#A2E068" transform="translate(498,267)"/>
<path d="M0 0 C1.79633773 6.1993911 -0.16697933 12.01213249 -2 18 C-2.33 18 -2.66 18 -3 18 C-3.31985731 11.28299653 -2.4793824 6.24273068 0 0 Z " fill="#98D162" transform="translate(475,299)"/>
<path d="M0 0 C2.17515642 3.51635959 2.23948201 6.34982397 2.1875 10.4375 C2.18105469 11.54996094 2.17460937 12.66242188 2.16796875 13.80859375 C2.01836796 16.65100884 1.64625807 19.23401547 1 22 C0.67 22 0.34 22 0 22 C-0.90249856 16.85910079 -0.97986395 12.30273626 -0.5625 7.0625 C-0.51029297 6.37865234 -0.45808594 5.69480469 -0.40429688 4.99023438 C-0.27630102 3.32628831 -0.13912281 1.6630527 0 0 Z " fill="#43972C" transform="translate(472,493)"/>
<path d="M0 0 C-2.34591852 2.7710688 -4.14776201 3.52059284 -7.6875 4.1875 C-8.49574219 4.34605469 -9.30398438 4.50460937 -10.13671875 4.66796875 C-11.05904297 4.83232422 -11.05904297 4.83232422 -12 5 C-12 4.01 -12 3.02 -12 2 C-10.37787941 1.47026689 -8.75218416 0.95146893 -7.125 0.4375 C-6.22007812 0.14746094 -5.31515625 -0.14257812 -4.3828125 -0.44140625 C-2 -1 -2 -1 0 0 Z " fill="#4E9B28" transform="translate(763,574)"/>
<path d="M0 0 C-2.39509338 2.89932357 -4.31245243 3.50168276 -8 4 C-8 3.01 -8 2.02 -8 1 C-3.375 -1.125 -3.375 -1.125 0 0 Z " fill="#A7E26C" transform="translate(521,258)"/>
<path d="M0 0 C2.375 0.3125 2.375 0.3125 5 1 C5.66 1.99 6.32 2.98 7 4 C6.01 4.495 6.01 4.495 5 5 C2.96855359 4.06553465 0.96466413 3.06775224 -1 2 C-0.67 1.34 -0.34 0.68 0 0 Z " fill="#206514" transform="translate(502,567)"/>
<path d="M0 0 C0.66 0.66 1.32 1.32 2 2 C1.67 2.66 1.34 3.32 1 4 C0.34 4 -0.32 4 -1 4 C-1.33 4.99 -1.66 5.98 -2 7 C-2.99 6.67 -3.98 6.34 -5 6 C-3.35 4.02 -1.7 2.04 0 0 Z " fill="#44AA2C" transform="translate(790,553)"/>
<path d="M0 0 C0.66 0.66 1.32 1.32 2 2 C0.35 3.65 -1.3 5.3 -3 7 C-3.33 6.34 -3.66 5.68 -4 5 C-2.68 3.35 -1.36 1.7 0 0 Z " fill="#A1DB68" transform="translate(486,279)"/>
<path d="" fill="#00FF00" transform="translate(0,0)"/>
<path d="" fill="#FFFF00" transform="translate(0,0)"/>
<path d="" fill="#FFFF00" transform="translate(0,0)"/>
</svg>
